<svg xmlns="http://www.w3.org/2000/svg" xmlns:xlink="http://www.w3.org/1999/xlink" width="368" height="181" viewBox="0 0 368 181">
  <defs>
    <clipPath id="clip-path">
      <rect id="Rect치ngulo_35128" data-name="Rect치ngulo 35128" width="368" height="181" transform="translate(616 6328)" fill="#fff" stroke="#707070" stroke-width="1"/>
    </clipPath>
  </defs>
  <g id="Grupo_83" data-name="Grupo 83" transform="translate(-616 -6328)" clip-path="url(#clip-path)">
    <g id="Grupo_158106" data-name="Grupo 158106" transform="translate(649.212 6312.586)">
      <g id="Grupo_158107" data-name="Grupo 158107">
        <path id="Trazado_152836" data-name="Trazado 152836" d="M228.208,112.88H125.694A12.42,12.42,0,0,1,113.31,100.5V41.736a12.421,12.421,0,0,1,12.384-12.384H228.208A12.419,12.419,0,0,1,240.59,41.736V100.5a12.419,12.419,0,0,1-12.382,12.382" transform="translate(60.505 15.673)" fill="#fff0de"/>
        <path id="Trazado_152837" data-name="Trazado 152837" d="M229.1,29.352H124.8a11.524,11.524,0,0,0-11.49,11.491v.709h127.28v-.709A11.525,11.525,0,0,0,229.1,29.352" transform="translate(60.506 15.673)" fill="#1a1a1a"/>
        <path id="Trazado_152838" data-name="Trazado 152838" d="M183.621,104.093l-4.378,13.341S175.2,103.927,163.81,99.541s-17.642-3.088-17.642-3.088,3.376-2.335,2.939-5.294-5.337-5.317-5.337-5.317l-18.664.669s-4.378,1.629-4.649,4.895a5.836,5.836,0,0,0,2.324,5.047s-10.012-.509-15.823,2.144S93.1,104.449,88.8,117.434s-4.722,27.731-4.722,27.731l-19.558,4.964s-5.532,3.349-4.686,5.469l4,22.111S68.1,196.213,81.8,196.2s17.242-10.115,17.242-10.115-3.9,29-6.986,36.515h84.427s-6.225-23.922-8.13-43.175c0,0-1.907-14.9-1-20.795,0,0,1.793,16.01,13.174,18.695s18.307-3.728,22.3-13.162S209.176,137.5,210,132.35s3.7-23.7,3.7-23.7.558-3.91-13.41-5.906-15.551-1.661-16.665,1.347" transform="translate(31.901 45.838)" fill="#31313c"/>
        <path id="Trazado_152839" data-name="Trazado 152839" d="M119.365,148.9H43.149a12.42,12.42,0,0,1-12.382-12.382V91.036A12.419,12.419,0,0,1,43.149,78.654h76.216a12.418,12.418,0,0,1,12.382,12.382v45.482A12.419,12.419,0,0,1,119.365,148.9" transform="translate(16.429 42)" fill="#ddd4d1"/>
        <path id="Trazado_152840" data-name="Trazado 152840" d="M98.617,87.854s-3.758-14.5,3.211-16.512a20.749,20.749,0,0,1,5.432-4.185s-6.529-8.012-4.916-12.382,6.21-5.458,11.773-5.518,11.684,1.631,12.042,5.924-5.226,11.844-5.226,11.844,8.152,2.089,8.53,8.883a47.815,47.815,0,0,1-.561,11.3l-1.887,1.384L99.966,90.233Z" transform="translate(52.119 26.302)" fill="#1a1a1a"/>
        <path id="Trazado_152841" data-name="Trazado 152841" d="M127.914,88.29s7.469,2.29,7.615-4.765c0,0-.52-5.952-6.931-4.281l-.347-1.4s-5.338.943-11.667-3.5a113.124,113.124,0,0,1-9.814-7.589s-3.057,7.375-4.312,9.162l-.009,3.453s-6.058-1.887-7.159,4.151c0,0,.018,4.812,3.875,5.179s3.672-.715,3.672-.715.887,7.428,5.039,9.58l-.4,5.452s2.922,2.68,8.486,2.019,7.286-2.143,7.286-2.143l-.313-5.328s4.028-2.652,4.981-9.279" transform="translate(50.882 35.648)" fill="#fda194"/>
        <path id="Trazado_152842" data-name="Trazado 152842" d="M145.032,107.351s3.191-7.222,2.855-8.856-3.525-5.234-5.1-6.561-1.6-3.988,0-4.881,4.106.008,6.519,2.1,5.418,5.34,6.507,5.3c0,0,8.307-6.266,11.838-7.171s5.2-1.1,6.09.364c0,0,2.941.153,3.619,2.237,0,0,2.511-.509,3.41,1.012s-.336,4.472-3.263,6.518-7.409,4.648-10.673,5.5-4.557,8.165-4.557,8.165-10.963-.362-17.24-3.726" transform="translate(75.607 46.231)" fill="#fda194"/>
        <path id="Trazado_152843" data-name="Trazado 152843" d="M86.72,144.9l-2.1-7.762s3.185-3.882,1.339-11.557-6.947-6.07-6.947-6.07a103.026,103.026,0,0,1-4.031-11.657c-.907-4.039-3.471-8.92-6.846-8.264s-3.847,6.048-2.838,10.264,3.231,10.342,3.231,10.342-3.812-3.3-5.248-3.189-4.367,1.3-5.142,3.106a16.627,16.627,0,0,0-1.043,3.629s-2.856,1.546-2.948,4.424,1.908,5.935,9.5,10.552a6.7,6.7,0,0,0,5.374,4.39l1.118,6.8a42.807,42.807,0,0,0,8.869-1.855c3.924-1.4,7.713-3.158,7.713-3.158" transform="translate(28.909 53.146)" fill="#fda194"/>
        <path id="Trazado_152844" data-name="Trazado 152844" d="M199.935,89.655,177.413,75.715a1.393,1.393,0,0,0-2.125,1.252l1.3,26.457a1.391,1.391,0,0,0,2.1,1.131l6.087-3.59a1.391,1.391,0,0,1,1.907.492l8.854,15.015a1.393,1.393,0,0,0,1.907.492l4.818-2.841a1.391,1.391,0,0,0,.492-1.908L193.9,97.2a1.389,1.389,0,0,1,.492-1.907l5.518-3.255a1.392,1.392,0,0,0,.028-2.384" transform="translate(93.599 40.318)" fill="#785549"/>
        <path id="Trazado_152845" data-name="Trazado 152845" d="M77.191,100.559A10.021,10.021,0,1,1,67.169,90.538a10.022,10.022,0,0,1,10.021,10.021" transform="translate(30.516 48.345)" fill="#c0c942"/>
        <path id="Trazado_152846" data-name="Trazado 152846" d="M194.457,34.492a3.552,3.552,0,1,1-3.551-3.551,3.551,3.551,0,0,1,3.551,3.551" transform="translate(100.042 16.522)" fill="#ff4343"/>
        <path id="Trazado_152847" data-name="Trazado 152847" d="M187.571,34.492a3.552,3.552,0,1,1-3.551-3.551,3.551,3.551,0,0,1,3.551,3.551" transform="translate(96.365 16.522)" fill="#fff"/>
        <path id="Trazado_152848" data-name="Trazado 152848" d="M180.684,34.492a3.552,3.552,0,1,1-3.551-3.551,3.551,3.551,0,0,1,3.551,3.551" transform="translate(92.688 16.522)" fill="#fff"/>
        <path id="Trazado_152849" data-name="Trazado 152849" d="M64.035,127.752l1.727.388,1.652,6.815s-7.2.219-7.607-1.736,4.228-5.467,4.228-5.467" transform="translate(31.923 68.217)" fill="#1a1a1a"/>
        <path id="Trazado_152850" data-name="Trazado 152850" d="M74.277,125.085l1.689,6.507s6.43-3.332,4.933-5.826-6.622-.681-6.622-.681" transform="translate(39.662 66.452)" fill="#1a1a1a"/>
        <path id="Trazado_152851" data-name="Trazado 152851" d="M147.52,96.118s-.965,5.5-1.965,6.157-5.639-2.12-4.852-4.36,6.817-1.8,6.817-1.8" transform="translate(75.085 51.306)" fill="#1a1a1a"/>
        <path id="Trazado_152852" data-name="Trazado 152852" d="M157.418,97.956s-2.4,4.944-2.177,6.94c0,0,7.05.035,7.471-2.712.331-2.177-5.294-4.228-5.294-4.228" transform="translate(82.887 52.306)" fill="#1a1a1a"/>
        <path id="Trazado_152853" data-name="Trazado 152853" d="M47.615,91.239a4.064,4.064,0,1,1-4.064-4.063,4.064,4.064,0,0,1,4.064,4.063" transform="translate(21.085 46.55)" fill="#1a1a1a"/>
        <path id="Trazado_152854" data-name="Trazado 152854" d="M96.469,103.626a4.064,4.064,0,1,1-4.064-4.063,4.064,4.064,0,0,1,4.064,4.063" transform="translate(47.173 53.164)" fill="#1a1a1a"/>
        <rect id="Rect치ngulo_35126" data-name="Rect치ngulo 35126" width="19.764" height="19.764" transform="translate(189.729 67.424)" fill="#fd9827"/>
        <path id="Trazado_152857" data-name="Trazado 152857" d="M157.658,110.572a.493.493,0,0,1-.476-.551c.049-.314,1.218-7.69,4.923-8.56,3.586-.844,12.9-5.383,13.882-9.977a1.556,1.556,0,0,0-.451-1.554,2.758,2.758,0,0,0-2.657-.39c-2.126.647-9.971,5.186-10.051,5.232a.436.436,0,0,1-.3.06c-.075-.008-7.96-.945-11.465,2.85a.479.479,0,0,1-.7-.65c3.591-3.884,10.91-3.3,12.126-3.168,1.1-.635,8.018-4.6,10.114-5.242a3.712,3.712,0,0,1,3.583.6,2.531,2.531,0,0,1,.739,2.459c-1.152,5.36-11.479,9.974-14.6,10.709-2.556.6-3.893,5.814-4.192,7.771a.48.48,0,0,1-.472.408" transform="translate(80.222 47.216)" fill="#db5349"/>
        <path id="Trazado_152858" data-name="Trazado 152858" d="M153.941,95.446a.479.479,0,0,1-.252-.887c1.282-.788,12.579-7.7,14.87-7.447a3.258,3.258,0,0,1,2.931,2.6.479.479,0,0,1-.945.156,2.3,2.3,0,0,0-2.091-1.8c-1.451-.158-9.529,4.4-14.263,7.308a.49.49,0,0,1-.252.072" transform="translate(81.945 46.513)" fill="#db5349"/>
        <path id="Trazado_152859" data-name="Trazado 152859" d="M150.866,95.173a.479.479,0,0,1-.262-.879c.2-.13,4.889-3.208,6-3.806.535-.285,1.169-.66,1.861-1.071,2.381-1.41,5.343-3.162,7.515-3.274,2.974-.15,3.59,1.749,3.614,1.83a.479.479,0,0,1-.92.265c-.017-.06-.42-1.233-2.646-1.14-1.936.1-4.907,1.858-7.075,3.142-.706.419-1.351.8-1.9,1.092-1.078.578-5.883,3.729-5.932,3.76a.474.474,0,0,1-.262.08" transform="translate(80.303 45.994)" fill="#db5349"/>
        <path id="Trazado_152860" data-name="Trazado 152860" d="M104.2,74.91c.382-.06.638.1.749,1.48.123,1.536-.276,1.807-.62,1.793s-.69-.488-.673-1.585.043-1.611.545-1.689" transform="translate(55.349 39.995)"/>
        <path id="Trazado_152861" data-name="Trazado 152861" d="M112.769,74.991c.383-.051.635.12.709,1.5.083,1.539-.322,1.8-.666,1.775s-.678-.5-.632-1.6.086-1.608.589-1.674" transform="translate(59.899 40.039)"/>
        <path id="Trazado_152863" data-name="Trazado 152863" d="M98.109,82.052a.479.479,0,0,1-.291-.859l2.865-2.214L97.473,76.6a.479.479,0,0,1,.569-.77l3.72,2.752a.483.483,0,0,1,.195.38.475.475,0,0,1-.187.383L98.4,81.95a.465.465,0,0,1-.291.1" transform="translate(51.945 40.444)" fill="#dc5349"/>
        <path id="Trazado_152865" data-name="Trazado 152865" d="M120.331,82.052a.466.466,0,0,1-.293-.1l-3.369-2.6a.474.474,0,0,1-.187-.383.483.483,0,0,1,.195-.38l3.721-2.752a.478.478,0,0,1,.568.77l-3.209,2.375,2.865,2.214a.48.48,0,0,1-.291.859" transform="translate(62.199 40.444)" fill="#dc5349"/>
        <path id="Trazado_152866" data-name="Trazado 152866" d="M148.168,170.63c-.511,0-1.031-.02-1.563-.061-8.222-.644-16.95-7.038-16.789-23.051a.479.479,0,0,1,.959.008c-.155,15.355,8.113,21.477,15.9,22.088,17.455,1.365,21.506-21.835,22.833-29.462,1.934-11.123,6.251-38.866,6.3-39.146a.479.479,0,0,1,.946.147c-.043.279-4.364,28.03-6.3,39.162-1.324,7.609-5.275,30.314-22.287,30.314" transform="translate(69.318 53.72)"/>
        <path id="Trazado_152867" data-name="Trazado 152867" d="M133.573,142.938a.49.49,0,0,1-.477-.523,127.819,127.819,0,0,1,2.809-17.027,237.6,237.6,0,0,1,8.366-28.116.479.479,0,0,1,.893.345,237.037,237.037,0,0,0-8.328,27.989,127.526,127.526,0,0,0-2.786,16.9.48.48,0,0,1-.477.436" transform="translate(71.069 51.778)"/>
        <path id="Trazado_152868" data-name="Trazado 152868" d="M113.08,97.015a13.84,13.84,0,0,1-8.583-2.638c-2.111-1.677-3.51-4.372-4.274-8.239-.5-2.559-.614-10.617-.571-13.247a.479.479,0,0,1,.959.017c-.048,2.826.083,10.673.552,13.045.718,3.634,2,6.145,3.93,7.676a12.9,12.9,0,0,0,7.986,2.428.479.479,0,0,1,0,.959" transform="translate(53.208 38.67)" fill="#dc5349"/>
        <path id="Trazado_152869" data-name="Trazado 152869" d="M108.57,96.344a.479.479,0,0,1,0-.959,12.891,12.891,0,0,0,7.984-2.428c1.927-1.531,3.212-4.042,3.93-7.676.5-2.551.518-8.892.48-11.12a.479.479,0,0,1,.959-.017c.038,2.256.021,8.688-.5,11.322-.764,3.867-2.163,6.562-4.274,8.239a13.839,13.839,0,0,1-8.581,2.638" transform="translate(57.718 39.341)" fill="#dc5349"/>
        <path id="Trazado_152874" data-name="Trazado 152874" d="M80.977,209.132a.491.491,0,0,1-.212-.049.478.478,0,0,1-.218-.641c2.413-4.9,11.749-53.631,8.67-67.6-3.139-14.245,1.9-28.428,1.953-28.57a.479.479,0,1,1,.9.327c-.051.14-4.995,14.071-1.919,28.038,3.109,14.1-6.311,63.287-8.745,68.227a.477.477,0,0,1-.43.268" transform="translate(42.984 59.782)"/>
        <path id="Trazado_152875" data-name="Trazado 152875" d="M139.721,209.132a.477.477,0,0,1-.43-.268c-2.434-4.936-11.856-54.119-8.747-68.227,3.077-13.976-1.868-27.9-1.919-28.038a.479.479,0,1,1,.9-.327c.052.143,5.091,14.326,1.953,28.57-3.079,13.976,6.259,62.706,8.672,67.6a.479.479,0,0,1-.218.641.491.491,0,0,1-.212.049" transform="translate(68.668 59.782)"/>
        <path id="Trazado_152876" data-name="Trazado 152876" d="M162.938,106.616a46.569,46.569,0,0,1-8.058-.767c-7.084-1.282-12.961-3.8-14.291-6.124a1.842,1.842,0,0,1-.2-1.6c.95-2.586,4.7-2.6,7.684-2.158a.477.477,0,0,1,.4.543.463.463,0,0,1-.543.4c-2.155-.318-5.878-.543-6.644,1.542a.92.92,0,0,0,.129.795c1.161,2.028,7.023,4.459,13.631,5.657,8.507,1.532,14.82.545,15.157-1.308.155-.856-1.4-2.5-4.666-3.993a.48.48,0,0,1,.4-.873c2.732,1.247,5.536,3.224,5.209,5.038-.364,2-3.824,2.846-8.211,2.846" transform="translate(74.912 51.127)"/>
        <path id="Trazado_152877" data-name="Trazado 152877" d="M83.4,172.617a17.2,17.2,0,0,1-9.738-2.853c-7.26-4.841-10.077-14.662-11.109-20.086-.436-2.289-.96-5.5-1.516-8.894-.488-2.971-1.008-6.165-1.548-9.218a.479.479,0,0,1,.943-.167c.54,3.057,1.063,6.256,1.549,9.231.554,3.389,1.078,6.592,1.511,8.868,1,5.277,3.731,14.823,10.7,19.468,3.859,2.572,8.54,3.307,13.909,2.178a13.921,13.921,0,0,0,11.3-12.267.47.47,0,0,1,.54-.406.478.478,0,0,1,.407.541A15.053,15.053,0,0,1,88.3,172.082a23.822,23.822,0,0,1-4.9.535" transform="translate(31.764 69.954)"/>
        <path id="Trazado_152878" data-name="Trazado 152878" d="M87.866,152.173a.479.479,0,0,1-.456-.333c-4.453-13.859-8.965-25.912-9.009-26.032a.478.478,0,1,1,.9-.336c.044.12,4.564,12.192,9.024,26.075a.477.477,0,0,1-.308.6.456.456,0,0,1-.147.025" transform="translate(41.849 66.833)"/>
        <path id="Trazado_152879" data-name="Trazado 152879" d="M64.93,137.337c-2.872,0-4.979-.614-5.423-2.079a.479.479,0,0,1,.917-.279c.545,1.805,6.924,2.068,15.206-.436,6.427-1.944,11.971-5.03,12.893-7.181a.91.91,0,0,0,.038-.8c-.948-1.879-3.971-1.519-6.341-.884a.479.479,0,1,1-.247-.925c3.948-1.062,6.449-.594,7.443,1.376a1.848,1.848,0,0,1-.012,1.612c-1.038,2.424-6.716,5.67-13.5,7.719a40.652,40.652,0,0,1-10.976,1.878" transform="translate(31.765 66.319)"/>
        <path id="Trazado_152880" data-name="Trazado 152880" d="M59.981,133.866a.48.48,0,0,1-.459-.341c-.509-1.683,2.144-4.358,4.9-6.018a.48.48,0,0,1,.494.822c-2.887,1.738-4.745,4.031-4.476,4.918a.479.479,0,0,1-.319.6.491.491,0,0,1-.14.021" transform="translate(31.75 68.05)"/>
        <path id="Trazado_152881" data-name="Trazado 152881" d="M102.019,75.119a.519.519,0,0,1-.164-.028.479.479,0,0,1-.285-.615c.859-2.362,4.142-3.043,6.081-2.608a.48.48,0,0,1,.362.572.473.473,0,0,1-.572.362c-1.594-.357-4.332.242-4.972,2a.478.478,0,0,1-.449.314" transform="translate(54.22 38.31)"/>
        <path id="Trazado_152882" data-name="Trazado 152882" d="M109.679,85.783a7.394,7.394,0,0,1-2.088-.31.479.479,0,0,1,.3-.911c.023.009,2.342.739,3.838-.279a3.473,3.473,0,0,0,1.313-2.838.475.475,0,0,1,.508-.448A.481.481,0,0,1,114,81.5a4.377,4.377,0,0,1-1.735,3.573,4.573,4.573,0,0,1-2.582.706" transform="translate(57.275 43.251)"/>
        <path id="Trazado_152883" data-name="Trazado 152883" d="M106.9,85.432a.471.471,0,0,1-.319-.123,5.042,5.042,0,0,1-1.69-2.922A1.864,1.864,0,0,1,105.441,81a2.064,2.064,0,0,1,1.511-.66,3.094,3.094,0,0,1,1.629.552c.293-2.637.5-6.334-.037-7.144a.479.479,0,0,1,.8-.526c.96,1.46.238,7.451.083,8.638a.479.479,0,0,1-.816.275,2.807,2.807,0,0,0-1.66-.838,1.129,1.129,0,0,0-.828.374.885.885,0,0,0-.272.683,4.143,4.143,0,0,0,1.371,2.241.475.475,0,0,1,.037.675.469.469,0,0,1-.356.161" transform="translate(56.011 38.984)"/>
        <path id="Trazado_152884" data-name="Trazado 152884" d="M102.405,66.658a.484.484,0,0,1-.393-.2l-1.543-2.178a.479.479,0,0,1,.782-.554l1.543,2.177a.482.482,0,0,1-.112.669.5.5,0,0,1-.278.087" transform="translate(53.602 33.92)"/>
        <path id="Trazado_152891" data-name="Trazado 152891" d="M84.2,138.587a.478.478,0,0,1-.462-.353l-2.106-7.762a.477.477,0,0,1,.173-.508c1.149-.868,2.982-10.457-.641-15.521-1.861-2.6-12.137-.738-17.963,2.537-2.53,1.422-3.723,2.839-3.277,3.886a5.565,5.565,0,0,0,3.628,3.172c3.3,1.045,8.116.063,12.281-2.5a.479.479,0,1,1,.5.815c-4.395,2.709-9.526,3.735-13.073,2.6a6.564,6.564,0,0,1-4.22-3.709c-.476-1.111-.221-2.9,3.688-5.094,5.863-3.3,16.8-5.622,19.21-2.261,3.723,5.2,2.21,14.623.684,16.593l2.036,7.5a.477.477,0,0,1-.336.587.446.446,0,0,1-.126.018" transform="translate(31.432 59.936)" fill="#db5349"/>
        <path id="Trazado_152892" data-name="Trazado 152892" d="M73.066,130.987a9.45,9.45,0,0,1-1.983-.219,20.938,20.938,0,0,1-8.2-4.271,29.965,29.965,0,0,1-5.018-4.9,7.431,7.431,0,0,1-2-4.906,5.18,5.18,0,0,1,.417-1.744c.9-2.143,3.162-4.376,5.584-4.338a5.715,5.715,0,0,1,3.412,1.6l.313.242c1.269.977,2.2,1.72,3.309,2.652a.478.478,0,0,1-.614.733c-1.1-.922-2.023-1.658-3.281-2.628l-.318-.247a4.9,4.9,0,0,0-2.841-1.39c-1.965,0-3.895,1.894-4.682,3.752a4.233,4.233,0,0,0-.344,1.425A6.313,6.313,0,0,0,58.611,121a28.885,28.885,0,0,0,4.857,4.743,20.056,20.056,0,0,0,7.819,4.093,7.07,7.07,0,0,0,3.876-.147,3.988,3.988,0,0,0,1.914-1.37c1.057-1.482.3-3.171-.252-4.044l-.124-.195c-.08-.126-.115-.181-.264-.382a.479.479,0,0,1,.77-.569c.17.229.212.293.3.439l.123.192c1.167,1.867,1.246,3.682.222,5.116a4.91,4.91,0,0,1-2.37,1.715,7.124,7.124,0,0,1-2.421.4" transform="translate(29.826 59.064)" fill="#db5349"/>
        <path id="Trazado_152893" data-name="Trazado 152893" d="M71.512,133.233q-.453,0-.925-.043a20.958,20.958,0,0,1-8.652-3.254,30.082,30.082,0,0,1-5.571-4.263,7.443,7.443,0,0,1-2.576-4.628,5.266,5.266,0,0,1,.2-1.781,6.557,6.557,0,0,1,3.238-4.214.48.48,0,0,1,.426.859,5.624,5.624,0,0,0-2.744,3.617,4.3,4.3,0,0,0-.169,1.456,6.327,6.327,0,0,0,2.289,4.005,28.967,28.967,0,0,0,5.39,4.123,20.063,20.063,0,0,0,8.254,3.126,7.053,7.053,0,0,0,3.829-.611,3.993,3.993,0,0,0,1.736-1.591,2.425,2.425,0,0,0,.239-2.186.478.478,0,0,1,.905-.308,3.349,3.349,0,0,1-.3,2.953,4.916,4.916,0,0,1-2.148,1.988,7.621,7.621,0,0,1-3.425.75" transform="translate(28.717 61.408)" fill="#db5349"/>
        <path id="Trazado_152895" data-name="Trazado 152895" d="M75.776,142.174a.479.479,0,0,1-.479-.469c0-.218-.379-22.08,9.027-36.533,9.483-14.571,30.52-12.64,30.729-12.62a.48.48,0,0,1,.43.525.461.461,0,0,1-.525.428c-.2-.02-20.669-1.887-29.83,12.189-9.248,14.208-8.879,35.775-8.874,35.992a.48.48,0,0,1-.468.489Z" transform="translate(40.205 49.37)"/>
        <path id="Trazado_152896" data-name="Trazado 152896" d="M149.327,114.414a.477.477,0,0,1-.454-.33c-.965-2.915-4.314-8.314-4.347-8.368-9.164-14.079-28.037-12.306-28.227-12.286a.479.479,0,1,1-.1-.953c.2-.021,19.647-1.853,29.133,12.724.146.233,3.45,5.559,4.449,8.583a.483.483,0,0,1-.454.629" transform="translate(61.819 49.336)"/>
        <path id="Trazado_152897" data-name="Trazado 152897" d="M43.311,94.378A3.378,3.378,0,1,1,46.689,91a3.382,3.382,0,0,1-3.378,3.378m0-5.8A2.419,2.419,0,1,0,45.73,91a2.421,2.421,0,0,0-2.419-2.419" transform="translate(21.323 46.788)" fill="#fff"/>
        <path id="Trazado_152898" data-name="Trazado 152898" d="M92.084,106.443a3.138,3.138,0,1,1,3.137-3.139,3.142,3.142,0,0,1-3.137,3.139m0-5.317a2.179,2.179,0,1,0,2.178,2.178,2.181,2.181,0,0,0-2.178-2.178" transform="translate(47.495 53.487)" fill="#fff"/>
        <path id="Trazado_152899" data-name="Trazado 152899" d="M53.528,122.663a6.637,6.637,0,0,1-4.577-1.87.479.479,0,1,1,.647-.707,5.7,5.7,0,0,0,3.93,1.618l.238,0a.488.488,0,0,1,.488.471.481.481,0,0,1-.471.488l-.248,0Zm4.936-1.442a.479.479,0,0,1-.261-.881,12.824,12.824,0,0,0,3.367-3.387.479.479,0,1,1,.779.557,13.768,13.768,0,0,1-3.625,3.632.476.476,0,0,1-.261.078M46.448,116.85a.478.478,0,0,1-.431-.273,30.213,30.213,0,0,1-1.743-4.76.48.48,0,1,1,.923-.261,29.081,29.081,0,0,0,1.683,4.608.481.481,0,0,1-.225.64.5.5,0,0,1-.207.046M64.5,113.426a.493.493,0,0,1-.221-.054.48.48,0,0,1-.206-.646c.416-.8.816-1.617,1.216-2.425.339-.687.675-1.368,1.014-2.034a.486.486,0,0,1,.644-.21.479.479,0,0,1,.21.644c-.339.663-.673,1.341-1.009,2.023-.4.813-.807,1.632-1.224,2.442a.481.481,0,0,1-.425.259M43.632,107.3a.484.484,0,0,1-.472-.394c-.278-1.552-.52-3.226-.721-4.976a.478.478,0,0,1,.422-.531.489.489,0,0,1,.531.422c.2,1.73.436,3.384.713,4.913a.484.484,0,0,1-.387.558.557.557,0,0,1-.086.008M42.483,97.37a.479.479,0,0,1-.477-.449c-.178-2.849-.184-4.824-.184-5.039a.479.479,0,1,1,.959,0c0,.213,0,2.16.181,4.979a.481.481,0,0,1-.448.508l-.031,0" transform="translate(22.332 48.806)"/>
        <path id="Trazado_152900" data-name="Trazado 152900" d="M90.055,132.781a7.19,7.19,0,0,1-3.967-1.269.478.478,0,0,1,.523-.8A6.338,6.338,0,0,0,91,131.756a.471.471,0,0,1,.54.407.476.476,0,0,1-.4.542,7.55,7.55,0,0,1-1.078.077m5.343-2.319a.479.479,0,0,1-.333-.824,15.111,15.111,0,0,0,2.792-3.918.479.479,0,0,1,.85.443,16.138,16.138,0,0,1-2.976,4.163.483.483,0,0,1-.333.135M82.829,128.1a.474.474,0,0,1-.382-.192,35.807,35.807,0,0,1-2.712-4.264.479.479,0,1,1,.839-.462,35.064,35.064,0,0,0,2.637,4.151.477.477,0,0,1-.1.669.471.471,0,0,1-.287.1m17.36-6.289a.483.483,0,0,1-.454-.629c.48-1.456.919-3.062,1.3-4.774a.479.479,0,1,1,.934.209c-.391,1.743-.838,3.378-1.328,4.864a.477.477,0,0,1-.454.33M77.9,119.442a.481.481,0,0,1-.434-.275c-.7-1.486-1.388-3.02-2.065-4.557a.477.477,0,0,1,.244-.63.472.472,0,0,1,.63.244c.675,1.531,1.358,3.056,2.057,4.534a.481.481,0,0,1-.227.638.494.494,0,0,1-.206.046m24.514-7.362a.491.491,0,0,1-.472-.549c.428-2.879.558-4.919.56-4.941a.479.479,0,1,1,.956.06c0,.021-.133,2.1-.569,5.022a.48.48,0,0,1-.474.408m-28.589-1.752a.482.482,0,0,1-.439-.285c-.819-1.841-1.483-3.275-2.094-4.51a.478.478,0,0,1,.219-.641.484.484,0,0,1,.641.218c.614,1.247,1.284,2.691,2.109,4.544a.478.478,0,0,1-.244.632.459.459,0,0,1-.193.043m-4.507-8.9a.479.479,0,0,1-.4-.224q-.366-.58-.738-1.1a.479.479,0,0,1,.779-.558q.389.545.769,1.147a.482.482,0,0,1-.149.661.474.474,0,0,1-.256.075" transform="translate(36.355 53.048)"/>
        <path id="Trazado_152902" data-name="Trazado 152902" d="M190.647,37.042a2.808,2.808,0,1,1,2.809-2.809,2.811,2.811,0,0,1-2.809,2.809m0-4.659a1.851,1.851,0,1,0,1.85,1.85,1.852,1.852,0,0,0-1.85-1.85" transform="translate(100.301 16.781)"/>
        <path id="Trazado_152903" data-name="Trazado 152903" d="M183.761,37.042a2.808,2.808,0,1,1,2.807-2.809,2.811,2.811,0,0,1-2.807,2.809m0-4.659a1.851,1.851,0,1,0,1.848,1.85,1.852,1.852,0,0,0-1.848-1.85" transform="translate(96.624 16.781)"/>
        <path id="Trazado_152904" data-name="Trazado 152904" d="M176.873,37.042a2.808,2.808,0,1,1,2.809-2.809,2.811,2.811,0,0,1-2.809,2.809m0-4.659a1.851,1.851,0,1,0,1.85,1.85,1.851,1.851,0,0,0-1.85-1.85" transform="translate(92.947 16.781)"/>
        <path id="Trazado_152908" data-name="Trazado 152908" d="M136.789,77.859H123.915a.478.478,0,0,1-.479-.479V64.506a.478.478,0,0,1,.479-.479h12.875a.478.478,0,0,1,.479.479V77.38a.478.478,0,0,1-.479.479M124.395,76.9h11.916V64.984H124.395Z" transform="translate(65.912 34.189)" fill="#785549"/>
        <path id="Trazado_152909" data-name="Trazado 152909" d="M207.579,44.6H148.432a.479.479,0,0,1,0-.957h59.147a.479.479,0,0,1,0,.957" transform="translate(79.004 23.303)"/>
        <path id="Trazado_152910" data-name="Trazado 152910" d="M207.579,54.415H148.432a.479.479,0,0,1,0-.957h59.147a.479.479,0,0,1,0,.957" transform="translate(79.004 28.545)"/>
        <path id="Trazado_152911" data-name="Trazado 152911" d="M207.579,64.232H148.432a.479.479,0,0,1,0-.957h59.147a.479.479,0,0,1,0,.957" transform="translate(79.004 33.787)"/>
        <path id="Trazado_152914" data-name="Trazado 152914" d="M104.524,98.326a.483.483,0,0,1-.2-.044c-3.329-1.528-5.315-4.1-5.315-6.883,0-1.624.939-3.9,5.4-5.51a.479.479,0,0,1,.324.9c-3.165,1.14-4.769,2.691-4.769,4.608,0,2.4,1.778,4.646,4.755,6.013a.479.479,0,0,1-.2.914" transform="translate(52.869 45.847)"/>
        <path id="Trazado_152915" data-name="Trazado 152915" d="M110.159,100.064a31.441,31.441,0,0,1-3.876-.227.481.481,0,0,1-.416-.535.462.462,0,0,1,.535-.416,30.41,30.41,0,0,0,3.757.219c9,0,13.852-3.944,13.852-7.655,0-1.927-1.832-3.619-5.162-4.76a.479.479,0,0,1,.311-.905c3.744,1.284,5.809,3.3,5.809,5.665,0,4.175-5.191,8.613-14.811,8.613" transform="translate(56.529 45.794)"/>
        <path id="Trazado_152916" data-name="Trazado 152916" d="M101.494,100.809a.488.488,0,0,1-.479-.515c.4-5.377-.551-7.464-.561-7.484a.481.481,0,0,1,.225-.638.473.473,0,0,1,.637.221c.044.089,1.081,2.284.655,7.974a.481.481,0,0,1-.477.443" transform="translate(53.616 49.191)"/>
        <path id="Trazado_152917" data-name="Trazado 152917" d="M116.239,100.788a.479.479,0,0,1-.477-.443c-.43-5.693.611-7.832.655-7.92a.478.478,0,0,1,.856.428c-.017.037-.959,2.072-.555,7.42a.482.482,0,0,1-.443.514l-.035,0" transform="translate(61.759 49.212)"/>
        <path id="Trazado_152918" data-name="Trazado 152918" d="M96.7,83.887H76.676a.479.479,0,0,1,0-.959H96.7a.479.479,0,0,1,0,.959" transform="translate(40.688 44.282)"/>
        <path id="Trazado_152919" data-name="Trazado 152919" d="M92.983,87.244H83.64a.479.479,0,0,1,0-.959h9.343a.479.479,0,0,1,0,.959" transform="translate(44.406 46.074)"/>
        <path id="Trazado_152920" data-name="Trazado 152920" d="M83.473,87.244H78.121a.479.479,0,1,1,0-.959h5.352a.479.479,0,0,1,0,.959" transform="translate(41.459 46.074)"/>
        <path id="Trazado_152921" data-name="Trazado 152921" d="M105.77,53.686A24.437,24.437,0,1,1,81.332,29.248,24.439,24.439,0,0,1,105.77,53.686" transform="translate(30.381 15.618)" fill="#fff0de"/>
        <path id="Trazado_152922" data-name="Trazado 152922" d="M71.759,62.884v9.6s.85,4.783,7.11,4.783,7.6-4.275,7.6-4.275l.3-10.1s-6.122,2.835-15.008-.006" transform="translate(38.318 33.579)" fill="#1a1a1a"/>
        <path id="Trazado_152923" data-name="Trazado 152923" d="M80.856,77.915H77.969A6.528,6.528,0,0,1,71.447,71.4V63.5c0-.163.006-.321.018-.48a.484.484,0,0,1,.212-.359.474.474,0,0,1,.413-.057,24.124,24.124,0,0,0,14.646.017.484.484,0,0,1,.41.057.479.479,0,0,1,.213.354c.015.155.021.311.021.468v7.9a6.529,6.529,0,0,1-6.524,6.518M72.406,63.7v7.7a5.569,5.569,0,0,0,5.564,5.561h2.887A5.57,5.57,0,0,0,86.422,71.4V63.715A25.1,25.1,0,0,1,72.406,63.7" transform="translate(38.151 33.414)"/>
        <path id="Trazado_152924" data-name="Trazado 152924" d="M85.332,81.312a24.9,24.9,0,1,1,7.589-1.18,24.77,24.77,0,0,1-7.589,1.18m0-48.876A23.962,23.962,0,1,0,109.29,56.4,23.989,23.989,0,0,0,85.332,32.436" transform="translate(32.258 16.809)"/>
        <path id="Trazado_152925" data-name="Trazado 152925" d="M67.494,59.558c-.268,0-.526-.008-.767-.017a.479.479,0,0,1,.021-.957c1.468.063,3.537.006,4.9-1.18a5.285,5.285,0,0,0,.8-.876A7.547,7.547,0,0,1,70.849,55a7.286,7.286,0,0,1-1.425-5.392c.087-.657.69-3.263,2.033-4a1.518,1.518,0,0,1,1.424-.035c.916.428,1.266,1.684,1.5,2.514l.052.184a11.174,11.174,0,0,1,.42,3.132,11.023,11.023,0,0,1-1.1,4.814c1.9,1.043,4.559,1.508,8.043,1.42a15.556,15.556,0,0,0,5.079-.873A8.377,8.377,0,0,0,90.917,53.7c-.1-.051-.193-.1-.29-.155a4.888,4.888,0,0,1-2.606-3.5,4.546,4.546,0,0,1,.449-2.482,3.074,3.074,0,0,1,1.75-1.718,1.724,1.724,0,0,1,1.591.226c1.206.893,1.258,3.324,1.256,3.8a7.778,7.778,0,0,1-.79,3.395,22.892,22.892,0,0,0,8.027,1.011.478.478,0,1,1,0,.956c-2.916,0-5.943-.1-8.5-1.126a9.278,9.278,0,0,1-4.591,3.565,16.431,16.431,0,0,1-5.39.934c-3.675.094-6.506-.417-8.566-1.559a6.2,6.2,0,0,1-.979,1.088,7.189,7.189,0,0,1-4.781,1.431m4.7-13.185a.567.567,0,0,0-.279.078c-.795.433-1.417,2.339-1.543,3.284a6.314,6.314,0,0,0,1.233,4.679,6.6,6.6,0,0,0,1.336,1.293,10.087,10.087,0,0,0,.946-4.309,10.219,10.219,0,0,0-.382-2.862l-.054-.189c-.172-.623-.462-1.663-.98-1.905a.639.639,0,0,0-.278-.069m18.635.324a1.076,1.076,0,0,0-.327.055,2.226,2.226,0,0,0-1.169,1.21,3.6,3.6,0,0,0-.365,1.956A3.939,3.939,0,0,0,91.095,52.7c.1.057.2.11.305.163a6.788,6.788,0,0,0,.709-3.005c0-1.147-.265-2.585-.867-3.03a.653.653,0,0,0-.411-.135" transform="translate(35.387 24.251)"/>
        <path id="Trazado_152926" data-name="Trazado 152926" d="M72.029,39.652a.478.478,0,0,1-.448-.311l-10.25-27.36a.478.478,0,1,1,.9-.336l10.25,27.362a.476.476,0,0,1-.281.615.46.46,0,0,1-.167.031" transform="translate(32.734 6.053)"/>
        <path id="Trazado_152927" data-name="Trazado 152927" d="M43.182,96.092a.479.479,0,0,1-.341-.816L73.387,64.4a.479.479,0,0,1,.681.675L43.522,95.951a.482.482,0,0,1-.341.141" transform="translate(22.802 34.313)"/>
        <path id="Trazado_152928" data-name="Trazado 152928" d="M95.618,44.642a.479.479,0,0,1-.238-.894l18.55-10.629a.479.479,0,0,1,.477.831L95.855,44.579a.476.476,0,0,1-.238.063" transform="translate(50.802 17.651)"/>
        <path id="Trazado_152929" data-name="Trazado 152929" d="M57.545,52.672H44.884a.479.479,0,0,1,0-.957H57.545a.479.479,0,1,1,0,.957" transform="translate(23.711 27.615)"/>
        <path id="Trazado_152930" data-name="Trazado 152930" d="M134.244,15.651a7.826,7.826,0,1,1,7.826-7.825,7.835,7.835,0,0,1-7.826,7.825m0-14.694a6.868,6.868,0,1,0,6.868,6.869A6.876,6.876,0,0,0,134.244.957" transform="translate(67.504)"/>
        <path id="Trazado_152931" data-name="Trazado 152931" d="M7.826,89.013a7.826,7.826,0,1,1,7.826-7.826,7.836,7.836,0,0,1-7.826,7.826m0-14.694A6.868,6.868,0,1,0,14.7,81.187a6.875,6.875,0,0,0-6.869-6.868" transform="translate(0 39.174)"/>
        <path id="Trazado_152932" data-name="Trazado 152932" d="M177.862,34.048a.48.48,0,0,1-.408-.227c-.954-1.551-1.991-3.065-3.086-4.505a.478.478,0,1,1,.761-.58c1.114,1.465,2.171,3.007,3.142,4.584a.478.478,0,0,1-.408.729M171.2,25.294a.475.475,0,0,1-.35-.153c-1.235-1.324-2.551-2.6-3.912-3.806a.478.478,0,1,1,.632-.718c1.385,1.221,2.724,2.523,3.981,3.872a.479.479,0,0,1-.351.805m-8.241-7.28a.478.478,0,0,1-.281-.091c-1.457-1.055-2.993-2.065-4.562-3a.478.478,0,1,1,.488-.822c1.6.95,3.155,1.976,4.637,3.048a.478.478,0,0,1-.282.865m-9.445-5.631a.463.463,0,0,1-.209-.049c-1.615-.781-3.3-1.517-5.007-2.186a.478.478,0,1,1,.347-.891c1.733.678,3.441,1.424,5.077,2.217a.479.479,0,0,1-.209.91M143.277,8.365a.474.474,0,0,1-.143-.021c-1.7-.528-3.478-1.015-5.275-1.447a.479.479,0,1,1,.224-.931c1.818.437,3.613.928,5.337,1.463a.479.479,0,0,1-.143.936" transform="translate(73.417 3.178)"/>
        <path id="Trazado_152933" data-name="Trazado 152933" d="M82.66,43.071a.479.479,0,0,1-.433-.683,45.975,45.975,0,0,1,2.787-4.852.48.48,0,0,1,.807.518,46.665,46.665,0,0,0-2.729,4.74.477.477,0,0,1-.433.276m5.923-9.32a.479.479,0,0,1-.382-.767c1.114-1.47,2.295-2.916,3.513-4.3a.479.479,0,1,1,.719.634c-1.2,1.364-2.37,2.792-3.468,4.243a.477.477,0,0,1-.382.189m7.282-8.276a.479.479,0,0,1-.336-.821c1.318-1.295,2.7-2.553,4.1-3.738a.478.478,0,1,1,.617.73c-1.382,1.17-2.744,2.413-4.047,3.692a.476.476,0,0,1-.334.137m8.414-7.108A.479.479,0,0,1,104,17.5c1.5-1.081,3.053-2.115,4.622-3.069a.478.478,0,1,1,.5.818c-1.548.942-3.082,1.96-4.559,3.027a.462.462,0,0,1-.279.092m9.406-5.72a.479.479,0,0,1-.216-.907c1.644-.828,3.346-1.6,5.051-2.29a.478.478,0,0,1,.359.887c-1.681.683-3.358,1.442-4.979,2.258a.471.471,0,0,1-.215.052M123.88,8.51a.479.479,0,0,1-.144-.936c1.752-.551,3.553-1.039,5.352-1.45a.474.474,0,0,1,.574.359.481.481,0,0,1-.362.574c-1.773.407-3.548.888-5.275,1.431a.521.521,0,0,1-.144.021M134.6,6.048a.479.479,0,0,1-.069-.953c1.8-.27,3.654-.477,5.5-.615a.474.474,0,0,1,.514.44.479.479,0,0,1-.442.514c-1.827.138-3.655.342-5.436.607a.365.365,0,0,1-.071.006m13.26-.811c-.624-.014-1.233-.021-1.838-.021l-.448,0a.437.437,0,0,1-.483-.476.481.481,0,0,1,.477-.482l.454,0q.916,0,1.848.021a.479.479,0,0,1-.011.957" transform="translate(43.884 2.274)"/>
        <path id="Trazado_152934" data-name="Trazado 152934" d="M34.912,138.335a.49.49,0,0,1-.267-.081c-1.52-1.02-3.023-2.129-4.467-3.3a.478.478,0,1,1,.6-.742c1.419,1.149,2.9,2.241,4.4,3.243a.48.48,0,0,1-.267.879m-8.563-6.918a.477.477,0,0,1-.333-.135c-1.324-1.275-2.612-2.626-3.829-4.013a.479.479,0,1,1,.719-.632c1.2,1.368,2.468,2.7,3.775,3.956a.479.479,0,0,1-.333.824m-7.256-8.276a.476.476,0,0,1-.385-.195c-1.1-1.488-2.143-3.037-3.1-4.6a.478.478,0,0,1,.815-.5c.95,1.54,1.977,3.066,3.06,4.533a.479.479,0,0,1-.385.764m-5.768-9.377a.479.479,0,0,1-.428-.264c-.821-1.626-1.6-3.326-2.3-5.047a.478.478,0,1,1,.885-.362c.7,1.7,1.462,3.372,2.273,4.978a.479.479,0,0,1-.213.643.471.471,0,0,1-.215.052M9.135,103.582a.483.483,0,0,1-.456-.33c-.566-1.735-1.085-3.527-1.539-5.326a.479.479,0,0,1,.348-.581.472.472,0,0,1,.58.348c.449,1.776.96,3.547,1.522,5.262a.481.481,0,0,1-.307.6.45.45,0,0,1-.149.023M6.438,92.9a.479.479,0,0,1-.471-.393c-.328-1.807-.6-3.651-.813-5.482a.479.479,0,1,1,.953-.109c.207,1.81.479,3.634.8,5.42a.48.48,0,0,1-.387.557.4.4,0,0,1-.086.008" transform="translate(2.751 46.185)"/>
        <path id="Trazado_152935" data-name="Trazado 152935" d="M6.016,90.793a.5.5,0,0,1-.081-.008.478.478,0,0,1-.391-.552c.314-1.832.695-3.657,1.132-5.427a.479.479,0,0,1,.931.229c-.433,1.749-.81,3.551-1.118,5.36a.481.481,0,0,1-.472.4M8.668,80.1a.521.521,0,0,1-.152-.023.481.481,0,0,1-.3-.606c.584-1.769,1.243-3.514,1.956-5.193a.478.478,0,1,1,.881.374c-.7,1.654-1.35,3.376-1.927,5.119a.481.481,0,0,1-.454.328m4.309-10.129a.488.488,0,0,1-.224-.055.479.479,0,0,1-.2-.647c.876-1.647,1.828-3.255,2.83-4.777a.479.479,0,0,1,.8.526c-.986,1.5-1.924,3.079-2.786,4.7a.479.479,0,0,1-.423.253m6.059-9.184a.468.468,0,0,1-.3-.106.478.478,0,0,1-.072-.673,53.584,53.584,0,0,1,3.715-4.133.478.478,0,1,1,.676.675,53.214,53.214,0,0,0-3.648,4.06.474.474,0,0,1-.371.176m7.774-7.783a.478.478,0,0,1-.3-.85,52.079,52.079,0,0,1,4.5-3.258.478.478,0,0,1,.518.8,51.267,51.267,0,0,0-4.418,3.2.474.474,0,0,1-.3.106m9.224-5.978a.479.479,0,0,1-.218-.905c1.609-.825,3.306-1.6,5.047-2.31a.478.478,0,1,1,.359.887c-1.713.7-3.385,1.462-4.969,2.276a.49.49,0,0,1-.219.052m10.19-4.165a.478.478,0,0,1-.146-.934c1.7-.545,3.5-1.051,5.335-1.5a.478.478,0,1,1,.23.928c-1.815.451-3.591.951-5.274,1.488a.489.489,0,0,1-.146.023m10.693-2.672a.478.478,0,0,1-.091-.948c1.735-.331,3.571-.637,5.459-.91a.479.479,0,0,1,.137.948c-1.873.27-3.7.574-5.416.9a.446.446,0,0,1-.089.008m10.905-1.588a.479.479,0,0,1-.051-.956q2.747-.295,5.5-.511a.458.458,0,0,1,.517.439.481.481,0,0,1-.439.515q-2.743.219-5.478.509c-.017,0-.034,0-.051,0m10.988-.894a.478.478,0,0,1-.028-.956q2.763-.17,5.5-.3a.447.447,0,0,1,.5.456.478.478,0,0,1-.454.5q-2.736.133-5.5.3h-.029" transform="translate(2.956 19.466)"/>
      </g>
    </g>
  </g>
</svg>
