<svg xmlns="http://www.w3.org/2000/svg" xmlns:xlink="http://www.w3.org/1999/xlink" width="368" height="181" viewBox="0 0 368 181">
  <defs>
    <clipPath id="clip-path">
      <rect id="Rect치ngulo_34881" data-name="Rect치ngulo 34881" width="195.942" height="99.96" fill="#785549"/>
    </clipPath>
    <clipPath id="clip-path-2">
      <rect id="Rect치ngulo_35129" data-name="Rect치ngulo 35129" width="236.89" height="165.603" fill="none"/>
    </clipPath>
  </defs>
  <g id="Grupo_970372" data-name="Grupo 970372" transform="translate(-1031 -6328)">
    <g id="Grupo_157945" data-name="Grupo 157945" transform="translate(1031 6328)">
      <g id="Enmascarar_grupo_63" data-name="Enmascarar grupo 63" transform="translate(0 0)" opacity="0.311" clip-path="url(#clip-path)">
        <path id="Trazado_151731" data-name="Trazado 151731" d="M93.295,39.282a54.013,54.013,0,1,0,54.013,54.013A54.074,54.074,0,0,0,93.295,39.282M93.295,0A93.295,93.295,0,1,1,0,93.295,93.295,93.295,0,0,1,93.295,0Z" transform="translate(4.047 -93.295)" fill="#785549"/>
      </g>
      <path id="Trazado_145968" data-name="Trazado 145968" d="M40.14,80.281A40.14,40.14,0,1,0,0,40.14,40.14,40.14,0,0,0,40.14,80.281Z" transform="translate(287.719 100.719)" fill="#31313c" opacity="0.444" style="mix-blend-mode: multiply;isolation: isolate"/>
      <g id="Grupo_78276" data-name="Grupo 78276" transform="translate(238.493 43.716)">
        <g id="Grupo_53306" data-name="Grupo 53306" transform="translate(0 91.947)">
          <path id="Trazado_99200" data-name="Trazado 99200" d="M416.4,51.269a1.094,1.094,0,1,0-1.093,1.044A1.07,1.07,0,0,0,416.4,51.269Z" transform="translate(-414.214 -50.224)" fill="#fff"/>
          <path id="Trazado_99201" data-name="Trazado 99201" d="M424.845,51.269a1.094,1.094,0,1,0-1.092,1.044A1.069,1.069,0,0,0,424.845,51.269Z" transform="translate(-412.827 -50.224)" fill="#fff"/>
          <path id="Trazado_99202" data-name="Trazado 99202" d="M433.291,51.269a1.094,1.094,0,1,0-1.092,1.044A1.069,1.069,0,0,0,433.291,51.269Z" transform="translate(-411.441 -50.224)" fill="#fff"/>
          <path id="Trazado_99203" data-name="Trazado 99203" d="M441.738,51.269a1.094,1.094,0,1,0-1.093,1.044A1.07,1.07,0,0,0,441.738,51.269Z" transform="translate(-410.054 -50.224)" fill="#fff"/>
          <path id="Trazado_99204" data-name="Trazado 99204" d="M450.184,51.269a1.094,1.094,0,1,0-1.092,1.044A1.069,1.069,0,0,0,450.184,51.269Z" transform="translate(-408.667 -50.224)" fill="#fff"/>
          <path id="Trazado_99205" data-name="Trazado 99205" d="M458.63,51.269a1.094,1.094,0,1,0-1.092,1.044A1.069,1.069,0,0,0,458.63,51.269Z" transform="translate(-407.28 -50.224)" fill="#fff"/>
          <path id="Trazado_99206" data-name="Trazado 99206" d="M467.077,51.269a1.094,1.094,0,1,0-1.093,1.044A1.07,1.07,0,0,0,467.077,51.269Z" transform="translate(-405.893 -50.224)" fill="#fff"/>
          <path id="Trazado_99207" data-name="Trazado 99207" d="M475.523,51.269a1.094,1.094,0,1,0-1.092,1.044A1.069,1.069,0,0,0,475.523,51.269Z" transform="translate(-404.507 -50.224)" fill="#fff"/>
          <path id="Trazado_99208" data-name="Trazado 99208" d="M483.969,51.269a1.094,1.094,0,1,0-1.092,1.044A1.069,1.069,0,0,0,483.969,51.269Z" transform="translate(-403.12 -50.224)" fill="#fff"/>
          <path id="Trazado_99209" data-name="Trazado 99209" d="M492.416,51.269a1.094,1.094,0,1,0-1.093,1.044A1.07,1.07,0,0,0,492.416,51.269Z" transform="translate(-401.733 -50.224)" fill="#fff"/>
          <path id="Trazado_99210" data-name="Trazado 99210" d="M500.862,51.269a1.094,1.094,0,1,0-1.093,1.044A1.069,1.069,0,0,0,500.862,51.269Z" transform="translate(-400.347 -50.224)" fill="#fff"/>
        </g>
        <g id="Grupo_53307" data-name="Grupo 53307" transform="translate(0 83.588)">
          <path id="Trazado_99211" data-name="Trazado 99211" d="M416.4,58.777a1.094,1.094,0,1,0-1.093,1.044A1.07,1.07,0,0,0,416.4,58.777Z" transform="translate(-414.214 -57.732)" fill="#fff"/>
          <path id="Trazado_99212" data-name="Trazado 99212" d="M424.845,58.777a1.094,1.094,0,1,0-1.092,1.044A1.069,1.069,0,0,0,424.845,58.777Z" transform="translate(-412.827 -57.732)" fill="#fff"/>
          <path id="Trazado_99213" data-name="Trazado 99213" d="M433.291,58.777a1.094,1.094,0,1,0-1.092,1.044A1.069,1.069,0,0,0,433.291,58.777Z" transform="translate(-411.441 -57.732)" fill="#fff"/>
          <path id="Trazado_99214" data-name="Trazado 99214" d="M441.738,58.777a1.094,1.094,0,1,0-1.093,1.044A1.07,1.07,0,0,0,441.738,58.777Z" transform="translate(-410.054 -57.732)" fill="#fff"/>
          <path id="Trazado_99215" data-name="Trazado 99215" d="M450.184,58.777a1.094,1.094,0,1,0-1.092,1.044A1.069,1.069,0,0,0,450.184,58.777Z" transform="translate(-408.667 -57.732)" fill="#fff"/>
          <path id="Trazado_99216" data-name="Trazado 99216" d="M458.63,58.777a1.094,1.094,0,1,0-1.092,1.044A1.069,1.069,0,0,0,458.63,58.777Z" transform="translate(-407.28 -57.732)" fill="#fff"/>
          <path id="Trazado_99217" data-name="Trazado 99217" d="M467.077,58.777a1.094,1.094,0,1,0-1.093,1.044A1.07,1.07,0,0,0,467.077,58.777Z" transform="translate(-405.893 -57.732)" fill="#fff"/>
          <path id="Trazado_99218" data-name="Trazado 99218" d="M475.523,58.777a1.094,1.094,0,1,0-1.092,1.044A1.069,1.069,0,0,0,475.523,58.777Z" transform="translate(-404.507 -57.732)" fill="#fff"/>
          <path id="Trazado_99219" data-name="Trazado 99219" d="M483.969,58.777a1.094,1.094,0,1,0-1.092,1.044A1.069,1.069,0,0,0,483.969,58.777Z" transform="translate(-403.12 -57.732)" fill="#fff"/>
          <path id="Trazado_99220" data-name="Trazado 99220" d="M492.416,58.777a1.094,1.094,0,1,0-1.093,1.044A1.07,1.07,0,0,0,492.416,58.777Z" transform="translate(-401.733 -57.732)" fill="#fff"/>
          <path id="Trazado_99221" data-name="Trazado 99221" d="M500.862,58.777a1.094,1.094,0,1,0-1.093,1.044A1.069,1.069,0,0,0,500.862,58.777Z" transform="translate(-400.347 -57.732)" fill="#fff"/>
        </g>
        <g id="Grupo_53308" data-name="Grupo 53308" transform="translate(0 75.229)">
          <ellipse id="Elipse_3955" data-name="Elipse 3955" cx="1.093" cy="1.045" rx="1.093" ry="1.045" transform="translate(0 0)" fill="#fff"/>
          <path id="Trazado_99222" data-name="Trazado 99222" d="M424.845,66.285a1.094,1.094,0,1,0-1.092,1.044A1.07,1.07,0,0,0,424.845,66.285Z" transform="translate(-412.827 -65.24)" fill="#fff"/>
          <ellipse id="Elipse_3956" data-name="Elipse 3956" cx="1.093" cy="1.045" rx="1.093" ry="1.045" transform="translate(19.666 0)" fill="#fff"/>
          <path id="Trazado_99223" data-name="Trazado 99223" d="M441.738,66.285a1.094,1.094,0,1,0-1.093,1.044A1.07,1.07,0,0,0,441.738,66.285Z" transform="translate(-410.054 -65.24)" fill="#fff"/>
          <path id="Trazado_99224" data-name="Trazado 99224" d="M450.184,66.285a1.094,1.094,0,1,0-1.092,1.044A1.07,1.07,0,0,0,450.184,66.285Z" transform="translate(-408.667 -65.24)" fill="#fff"/>
          <ellipse id="Elipse_3957" data-name="Elipse 3957" cx="1.093" cy="1.045" rx="1.093" ry="1.045" transform="translate(49.165 0)" fill="#fff"/>
          <path id="Trazado_99225" data-name="Trazado 99225" d="M467.077,66.285a1.094,1.094,0,1,0-1.093,1.044A1.071,1.071,0,0,0,467.077,66.285Z" transform="translate(-405.893 -65.24)" fill="#fff"/>
          <ellipse id="Elipse_3958" data-name="Elipse 3958" cx="1.093" cy="1.045" rx="1.093" ry="1.045" transform="translate(68.831 0)" fill="#fff"/>
          <ellipse id="Elipse_3959" data-name="Elipse 3959" cx="1.093" cy="1.045" rx="1.093" ry="1.045" transform="translate(78.664 0)" fill="#fff"/>
          <path id="Trazado_99226" data-name="Trazado 99226" d="M492.416,66.285a1.094,1.094,0,1,0-1.093,1.044A1.071,1.071,0,0,0,492.416,66.285Z" transform="translate(-401.733 -65.24)" fill="#fff"/>
          <path id="Trazado_99227" data-name="Trazado 99227" d="M500.862,66.285a1.094,1.094,0,1,0-1.093,1.044A1.07,1.07,0,0,0,500.862,66.285Z" transform="translate(-400.347 -65.24)" fill="#fff"/>
        </g>
        <g id="Grupo_53309" data-name="Grupo 53309" transform="translate(0 66.871)">
          <ellipse id="Elipse_3960" data-name="Elipse 3960" cx="1.093" cy="1.045" rx="1.093" ry="1.045" transform="translate(0 0)" fill="#fff"/>
          <path id="Trazado_99228" data-name="Trazado 99228" d="M424.845,73.791a1.094,1.094,0,1,0-1.092,1.045A1.069,1.069,0,0,0,424.845,73.791Z" transform="translate(-412.827 -72.747)" fill="#fff"/>
          <ellipse id="Elipse_3961" data-name="Elipse 3961" cx="1.093" cy="1.045" rx="1.093" ry="1.045" transform="translate(19.666 0)" fill="#fff"/>
          <path id="Trazado_99229" data-name="Trazado 99229" d="M441.738,73.791a1.094,1.094,0,1,0-1.093,1.045A1.069,1.069,0,0,0,441.738,73.791Z" transform="translate(-410.054 -72.747)" fill="#fff"/>
          <path id="Trazado_99230" data-name="Trazado 99230" d="M450.184,73.791a1.094,1.094,0,1,0-1.092,1.045A1.069,1.069,0,0,0,450.184,73.791Z" transform="translate(-408.667 -72.747)" fill="#fff"/>
          <ellipse id="Elipse_3962" data-name="Elipse 3962" cx="1.093" cy="1.045" rx="1.093" ry="1.045" transform="translate(49.165 0)" fill="#fff"/>
          <path id="Trazado_99231" data-name="Trazado 99231" d="M467.077,73.791a1.094,1.094,0,1,0-1.093,1.045A1.07,1.07,0,0,0,467.077,73.791Z" transform="translate(-405.893 -72.747)" fill="#fff"/>
          <ellipse id="Elipse_3963" data-name="Elipse 3963" cx="1.093" cy="1.045" rx="1.093" ry="1.045" transform="translate(68.831 0)" fill="#fff"/>
          <ellipse id="Elipse_3964" data-name="Elipse 3964" cx="1.093" cy="1.045" rx="1.093" ry="1.045" transform="translate(78.664 0)" fill="#fff"/>
          <path id="Trazado_99232" data-name="Trazado 99232" d="M492.416,73.791a1.094,1.094,0,1,0-1.093,1.045A1.07,1.07,0,0,0,492.416,73.791Z" transform="translate(-401.733 -72.747)" fill="#fff"/>
          <path id="Trazado_99233" data-name="Trazado 99233" d="M500.862,73.791a1.094,1.094,0,1,0-1.093,1.045A1.069,1.069,0,0,0,500.862,73.791Z" transform="translate(-400.347 -72.747)" fill="#fff"/>
        </g>
        <g id="Grupo_53310" data-name="Grupo 53310" transform="translate(0 58.512)">
          <path id="Trazado_99234" data-name="Trazado 99234" d="M416.4,81.3a1.094,1.094,0,1,0-1.093,1.045A1.069,1.069,0,0,0,416.4,81.3Z" transform="translate(-414.214 -80.255)" fill="#fff"/>
          <path id="Trazado_99235" data-name="Trazado 99235" d="M424.845,81.3a1.094,1.094,0,1,0-1.092,1.045A1.069,1.069,0,0,0,424.845,81.3Z" transform="translate(-412.827 -80.255)" fill="#fff"/>
          <path id="Trazado_99236" data-name="Trazado 99236" d="M433.291,81.3a1.094,1.094,0,1,0-1.092,1.045A1.069,1.069,0,0,0,433.291,81.3Z" transform="translate(-411.441 -80.255)" fill="#fff"/>
          <path id="Trazado_99237" data-name="Trazado 99237" d="M441.738,81.3a1.094,1.094,0,1,0-1.093,1.045A1.069,1.069,0,0,0,441.738,81.3Z" transform="translate(-410.054 -80.255)" fill="#fff"/>
          <path id="Trazado_99238" data-name="Trazado 99238" d="M450.184,81.3a1.094,1.094,0,1,0-1.092,1.045A1.069,1.069,0,0,0,450.184,81.3Z" transform="translate(-408.667 -80.255)" fill="#fff"/>
          <path id="Trazado_99239" data-name="Trazado 99239" d="M458.63,81.3a1.094,1.094,0,1,0-1.092,1.045A1.069,1.069,0,0,0,458.63,81.3Z" transform="translate(-407.28 -80.255)" fill="#fff"/>
          <path id="Trazado_99240" data-name="Trazado 99240" d="M467.077,81.3a1.094,1.094,0,1,0-1.093,1.045A1.07,1.07,0,0,0,467.077,81.3Z" transform="translate(-405.893 -80.255)" fill="#fff"/>
          <path id="Trazado_99241" data-name="Trazado 99241" d="M475.523,81.3a1.094,1.094,0,1,0-1.092,1.045A1.069,1.069,0,0,0,475.523,81.3Z" transform="translate(-404.507 -80.255)" fill="#fff"/>
          <path id="Trazado_99242" data-name="Trazado 99242" d="M483.969,81.3a1.094,1.094,0,1,0-1.092,1.045A1.069,1.069,0,0,0,483.969,81.3Z" transform="translate(-403.12 -80.255)" fill="#fff"/>
          <path id="Trazado_99243" data-name="Trazado 99243" d="M492.416,81.3a1.094,1.094,0,1,0-1.093,1.045A1.07,1.07,0,0,0,492.416,81.3Z" transform="translate(-401.733 -80.255)" fill="#fff"/>
          <path id="Trazado_99244" data-name="Trazado 99244" d="M500.862,81.3a1.094,1.094,0,1,0-1.093,1.045A1.069,1.069,0,0,0,500.862,81.3Z" transform="translate(-400.347 -80.255)" fill="#fff"/>
        </g>
        <g id="Grupo_53311" data-name="Grupo 53311" transform="translate(0 50.153)">
          <ellipse id="Elipse_3965" data-name="Elipse 3965" cx="1.093" cy="1.045" rx="1.093" ry="1.045" transform="translate(0 0)" fill="#fff"/>
          <path id="Trazado_99245" data-name="Trazado 99245" d="M424.845,88.807a1.094,1.094,0,1,0-1.092,1.045A1.069,1.069,0,0,0,424.845,88.807Z" transform="translate(-412.827 -87.763)" fill="#fff"/>
          <ellipse id="Elipse_3966" data-name="Elipse 3966" cx="1.093" cy="1.045" rx="1.093" ry="1.045" transform="translate(19.666 0)" fill="#fff"/>
          <path id="Trazado_99246" data-name="Trazado 99246" d="M441.738,88.807a1.094,1.094,0,1,0-1.093,1.045A1.069,1.069,0,0,0,441.738,88.807Z" transform="translate(-410.054 -87.763)" fill="#fff"/>
          <path id="Trazado_99247" data-name="Trazado 99247" d="M450.184,88.807a1.094,1.094,0,1,0-1.092,1.045A1.069,1.069,0,0,0,450.184,88.807Z" transform="translate(-408.667 -87.763)" fill="#fff"/>
          <ellipse id="Elipse_3967" data-name="Elipse 3967" cx="1.093" cy="1.045" rx="1.093" ry="1.045" transform="translate(49.165 0)" fill="#fff"/>
          <path id="Trazado_99248" data-name="Trazado 99248" d="M467.077,88.807a1.094,1.094,0,1,0-1.093,1.045A1.07,1.07,0,0,0,467.077,88.807Z" transform="translate(-405.893 -87.763)" fill="#fff"/>
          <ellipse id="Elipse_3968" data-name="Elipse 3968" cx="1.093" cy="1.045" rx="1.093" ry="1.045" transform="translate(68.831 0)" fill="#fff"/>
          <ellipse id="Elipse_3969" data-name="Elipse 3969" cx="1.093" cy="1.045" rx="1.093" ry="1.045" transform="translate(78.664 0)" fill="#fff"/>
          <path id="Trazado_99249" data-name="Trazado 99249" d="M492.416,88.807a1.094,1.094,0,1,0-1.093,1.045A1.07,1.07,0,0,0,492.416,88.807Z" transform="translate(-401.733 -87.763)" fill="#fff"/>
          <path id="Trazado_99250" data-name="Trazado 99250" d="M500.862,88.807a1.094,1.094,0,1,0-1.093,1.045A1.069,1.069,0,0,0,500.862,88.807Z" transform="translate(-400.347 -87.763)" fill="#fff"/>
        </g>
        <g id="Grupo_53312" data-name="Grupo 53312" transform="translate(0 41.794)">
          <ellipse id="Elipse_3970" data-name="Elipse 3970" cx="1.093" cy="1.045" rx="1.093" ry="1.045" transform="translate(0 0)" fill="#fff"/>
          <path id="Trazado_99251" data-name="Trazado 99251" d="M424.845,96.316a1.094,1.094,0,1,0-1.092,1.044A1.069,1.069,0,0,0,424.845,96.316Z" transform="translate(-412.827 -95.271)" fill="#fff"/>
          <ellipse id="Elipse_3971" data-name="Elipse 3971" cx="1.093" cy="1.045" rx="1.093" ry="1.045" transform="translate(19.666 0)" fill="#fff"/>
          <path id="Trazado_99252" data-name="Trazado 99252" d="M441.738,96.316a1.094,1.094,0,1,0-1.093,1.044A1.07,1.07,0,0,0,441.738,96.316Z" transform="translate(-410.054 -95.271)" fill="#fff"/>
          <path id="Trazado_99253" data-name="Trazado 99253" d="M450.184,96.316a1.094,1.094,0,1,0-1.092,1.044A1.069,1.069,0,0,0,450.184,96.316Z" transform="translate(-408.667 -95.271)" fill="#fff"/>
          <ellipse id="Elipse_3972" data-name="Elipse 3972" cx="1.093" cy="1.045" rx="1.093" ry="1.045" transform="translate(49.165 0)" fill="#fff"/>
          <path id="Trazado_99254" data-name="Trazado 99254" d="M467.077,96.316a1.094,1.094,0,1,0-1.093,1.044A1.07,1.07,0,0,0,467.077,96.316Z" transform="translate(-405.893 -95.271)" fill="#fff"/>
          <ellipse id="Elipse_3973" data-name="Elipse 3973" cx="1.093" cy="1.045" rx="1.093" ry="1.045" transform="translate(68.831 0)" fill="#fff"/>
          <ellipse id="Elipse_3974" data-name="Elipse 3974" cx="1.093" cy="1.045" rx="1.093" ry="1.045" transform="translate(78.664 0)" fill="#fff"/>
          <path id="Trazado_99255" data-name="Trazado 99255" d="M492.416,96.316a1.094,1.094,0,1,0-1.093,1.044A1.07,1.07,0,0,0,492.416,96.316Z" transform="translate(-401.733 -95.271)" fill="#fff"/>
          <path id="Trazado_99256" data-name="Trazado 99256" d="M500.862,96.316a1.094,1.094,0,1,0-1.093,1.044A1.069,1.069,0,0,0,500.862,96.316Z" transform="translate(-400.347 -95.271)" fill="#fff"/>
        </g>
        <g id="Grupo_53313" data-name="Grupo 53313" transform="translate(0 33.436)">
          <path id="Trazado_99257" data-name="Trazado 99257" d="M416.4,103.825a1.094,1.094,0,1,0-1.093,1.044A1.07,1.07,0,0,0,416.4,103.825Z" transform="translate(-414.214 -102.779)" fill="#fff"/>
          <path id="Trazado_99258" data-name="Trazado 99258" d="M424.845,103.825a1.094,1.094,0,1,0-1.092,1.044A1.069,1.069,0,0,0,424.845,103.825Z" transform="translate(-412.827 -102.779)" fill="#fff"/>
          <path id="Trazado_99259" data-name="Trazado 99259" d="M433.291,103.825a1.094,1.094,0,1,0-1.092,1.044A1.069,1.069,0,0,0,433.291,103.825Z" transform="translate(-411.441 -102.779)" fill="#fff"/>
          <path id="Trazado_99260" data-name="Trazado 99260" d="M441.738,103.825a1.094,1.094,0,1,0-1.093,1.044A1.07,1.07,0,0,0,441.738,103.825Z" transform="translate(-410.054 -102.779)" fill="#fff"/>
          <path id="Trazado_99261" data-name="Trazado 99261" d="M450.184,103.825a1.094,1.094,0,1,0-1.092,1.044A1.069,1.069,0,0,0,450.184,103.825Z" transform="translate(-408.667 -102.779)" fill="#fff"/>
          <path id="Trazado_99262" data-name="Trazado 99262" d="M458.63,103.825a1.094,1.094,0,1,0-1.092,1.044A1.069,1.069,0,0,0,458.63,103.825Z" transform="translate(-407.28 -102.779)" fill="#fff"/>
          <path id="Trazado_99263" data-name="Trazado 99263" d="M467.077,103.825a1.094,1.094,0,1,0-1.093,1.044A1.07,1.07,0,0,0,467.077,103.825Z" transform="translate(-405.893 -102.779)" fill="#fff"/>
          <path id="Trazado_99264" data-name="Trazado 99264" d="M475.523,103.825a1.094,1.094,0,1,0-1.092,1.044A1.069,1.069,0,0,0,475.523,103.825Z" transform="translate(-404.507 -102.779)" fill="#fff"/>
          <path id="Trazado_99265" data-name="Trazado 99265" d="M483.969,103.825a1.094,1.094,0,1,0-1.092,1.044A1.069,1.069,0,0,0,483.969,103.825Z" transform="translate(-403.12 -102.779)" fill="#fff"/>
          <path id="Trazado_99266" data-name="Trazado 99266" d="M492.416,103.825a1.094,1.094,0,1,0-1.093,1.044A1.07,1.07,0,0,0,492.416,103.825Z" transform="translate(-401.733 -102.779)" fill="#fff"/>
          <path id="Trazado_99267" data-name="Trazado 99267" d="M500.862,103.825a1.094,1.094,0,1,0-1.093,1.044A1.069,1.069,0,0,0,500.862,103.825Z" transform="translate(-400.347 -102.779)" fill="#fff"/>
        </g>
        <g id="Grupo_53314" data-name="Grupo 53314" transform="translate(0 25.076)">
          <ellipse id="Elipse_3975" data-name="Elipse 3975" cx="1.093" cy="1.045" rx="1.093" ry="1.045" transform="translate(0 0)" fill="#fff"/>
          <path id="Trazado_99268" data-name="Trazado 99268" d="M424.845,111.332a1.094,1.094,0,1,0-1.092,1.044A1.07,1.07,0,0,0,424.845,111.332Z" transform="translate(-412.827 -110.287)" fill="#fff"/>
          <ellipse id="Elipse_3976" data-name="Elipse 3976" cx="1.093" cy="1.045" rx="1.093" ry="1.045" transform="translate(19.666 0)" fill="#fff"/>
          <path id="Trazado_99269" data-name="Trazado 99269" d="M441.738,111.332a1.094,1.094,0,1,0-1.093,1.044A1.07,1.07,0,0,0,441.738,111.332Z" transform="translate(-410.054 -110.287)" fill="#fff"/>
          <path id="Trazado_99270" data-name="Trazado 99270" d="M450.184,111.332a1.094,1.094,0,1,0-1.092,1.044A1.07,1.07,0,0,0,450.184,111.332Z" transform="translate(-408.667 -110.287)" fill="#fff"/>
          <ellipse id="Elipse_3977" data-name="Elipse 3977" cx="1.093" cy="1.045" rx="1.093" ry="1.045" transform="translate(49.165 0)" fill="#fff"/>
          <path id="Trazado_99271" data-name="Trazado 99271" d="M467.077,111.332a1.094,1.094,0,1,0-1.093,1.044A1.071,1.071,0,0,0,467.077,111.332Z" transform="translate(-405.893 -110.287)" fill="#fff"/>
          <ellipse id="Elipse_3978" data-name="Elipse 3978" cx="1.093" cy="1.045" rx="1.093" ry="1.045" transform="translate(68.831 0)" fill="#fff"/>
          <ellipse id="Elipse_3979" data-name="Elipse 3979" cx="1.093" cy="1.045" rx="1.093" ry="1.045" transform="translate(78.664 0)" fill="#fff"/>
          <path id="Trazado_99272" data-name="Trazado 99272" d="M492.416,111.332a1.094,1.094,0,1,0-1.093,1.044A1.071,1.071,0,0,0,492.416,111.332Z" transform="translate(-401.733 -110.287)" fill="#fff"/>
          <path id="Trazado_99273" data-name="Trazado 99273" d="M500.862,111.332a1.094,1.094,0,1,0-1.093,1.044A1.07,1.07,0,0,0,500.862,111.332Z" transform="translate(-400.347 -110.287)" fill="#fff"/>
        </g>
        <g id="Grupo_53315" data-name="Grupo 53315" transform="translate(0 16.718)">
          <path id="Trazado_99274" data-name="Trazado 99274" d="M416.4,118.839a1.094,1.094,0,1,0-1.093,1.045A1.07,1.07,0,0,0,416.4,118.839Z" transform="translate(-414.214 -117.794)" fill="#fff"/>
          <path id="Trazado_99275" data-name="Trazado 99275" d="M424.845,118.839a1.094,1.094,0,1,0-1.092,1.045A1.07,1.07,0,0,0,424.845,118.839Z" transform="translate(-412.827 -117.794)" fill="#fff"/>
          <path id="Trazado_99276" data-name="Trazado 99276" d="M433.291,118.839a1.094,1.094,0,1,0-1.092,1.045A1.07,1.07,0,0,0,433.291,118.839Z" transform="translate(-411.441 -117.794)" fill="#fff"/>
          <path id="Trazado_99277" data-name="Trazado 99277" d="M441.738,118.839a1.094,1.094,0,1,0-1.093,1.045A1.07,1.07,0,0,0,441.738,118.839Z" transform="translate(-410.054 -117.794)" fill="#fff"/>
          <path id="Trazado_99278" data-name="Trazado 99278" d="M450.184,118.839a1.094,1.094,0,1,0-1.092,1.045A1.07,1.07,0,0,0,450.184,118.839Z" transform="translate(-408.667 -117.794)" fill="#fff"/>
          <path id="Trazado_99279" data-name="Trazado 99279" d="M458.63,118.839a1.094,1.094,0,1,0-1.092,1.045A1.07,1.07,0,0,0,458.63,118.839Z" transform="translate(-407.28 -117.794)" fill="#fff"/>
          <path id="Trazado_99280" data-name="Trazado 99280" d="M467.077,118.839a1.094,1.094,0,1,0-1.093,1.045A1.071,1.071,0,0,0,467.077,118.839Z" transform="translate(-405.893 -117.794)" fill="#fff"/>
          <path id="Trazado_99281" data-name="Trazado 99281" d="M475.523,118.839a1.094,1.094,0,1,0-1.092,1.045A1.07,1.07,0,0,0,475.523,118.839Z" transform="translate(-404.507 -117.794)" fill="#fff"/>
          <path id="Trazado_99282" data-name="Trazado 99282" d="M483.969,118.839a1.094,1.094,0,1,0-1.092,1.045A1.07,1.07,0,0,0,483.969,118.839Z" transform="translate(-403.12 -117.794)" fill="#fff"/>
          <path id="Trazado_99283" data-name="Trazado 99283" d="M492.416,118.839a1.094,1.094,0,1,0-1.093,1.045A1.071,1.071,0,0,0,492.416,118.839Z" transform="translate(-401.733 -117.794)" fill="#fff"/>
          <path id="Trazado_99284" data-name="Trazado 99284" d="M500.862,118.839a1.094,1.094,0,1,0-1.093,1.045A1.07,1.07,0,0,0,500.862,118.839Z" transform="translate(-400.347 -117.794)" fill="#fff"/>
        </g>
        <g id="Grupo_53316" data-name="Grupo 53316" transform="translate(0 8.36)">
          <ellipse id="Elipse_3980" data-name="Elipse 3980" cx="1.093" cy="1.045" rx="1.093" ry="1.045" transform="translate(0 0)" fill="#fff"/>
          <path id="Trazado_99285" data-name="Trazado 99285" d="M424.845,126.346a1.094,1.094,0,1,0-1.092,1.045A1.069,1.069,0,0,0,424.845,126.346Z" transform="translate(-412.827 -125.302)" fill="#fff"/>
          <ellipse id="Elipse_3981" data-name="Elipse 3981" cx="1.093" cy="1.045" rx="1.093" ry="1.045" transform="translate(19.666 0)" fill="#fff"/>
          <path id="Trazado_99286" data-name="Trazado 99286" d="M441.738,126.346a1.094,1.094,0,1,0-1.093,1.045A1.069,1.069,0,0,0,441.738,126.346Z" transform="translate(-410.054 -125.302)" fill="#fff"/>
          <path id="Trazado_99287" data-name="Trazado 99287" d="M450.184,126.346a1.094,1.094,0,1,0-1.092,1.045A1.069,1.069,0,0,0,450.184,126.346Z" transform="translate(-408.667 -125.302)" fill="#fff"/>
          <ellipse id="Elipse_3982" data-name="Elipse 3982" cx="1.093" cy="1.045" rx="1.093" ry="1.045" transform="translate(49.165 0)" fill="#fff"/>
          <path id="Trazado_99288" data-name="Trazado 99288" d="M467.077,126.346a1.094,1.094,0,1,0-1.093,1.045A1.07,1.07,0,0,0,467.077,126.346Z" transform="translate(-405.893 -125.302)" fill="#fff"/>
          <ellipse id="Elipse_3983" data-name="Elipse 3983" cx="1.093" cy="1.045" rx="1.093" ry="1.045" transform="translate(68.831 0)" fill="#fff"/>
          <ellipse id="Elipse_3984" data-name="Elipse 3984" cx="1.093" cy="1.045" rx="1.093" ry="1.045" transform="translate(78.664 0)" fill="#fff"/>
          <path id="Trazado_99289" data-name="Trazado 99289" d="M492.416,126.346a1.094,1.094,0,1,0-1.093,1.045A1.07,1.07,0,0,0,492.416,126.346Z" transform="translate(-401.733 -125.302)" fill="#fff"/>
          <path id="Trazado_99290" data-name="Trazado 99290" d="M500.862,126.346a1.094,1.094,0,1,0-1.093,1.045A1.069,1.069,0,0,0,500.862,126.346Z" transform="translate(-400.347 -125.302)" fill="#fff"/>
        </g>
        <g id="Grupo_53317" data-name="Grupo 53317" transform="translate(0 0)">
          <ellipse id="Elipse_3985" data-name="Elipse 3985" cx="1.093" cy="1.045" rx="1.093" ry="1.045" fill="#fff"/>
          <path id="Trazado_99291" data-name="Trazado 99291" d="M424.845,133.854a1.094,1.094,0,1,0-1.092,1.045A1.069,1.069,0,0,0,424.845,133.854Z" transform="translate(-412.827 -132.81)" fill="#fff"/>
          <ellipse id="Elipse_3986" data-name="Elipse 3986" cx="1.093" cy="1.045" rx="1.093" ry="1.045" transform="translate(19.666)" fill="#fff"/>
          <path id="Trazado_99292" data-name="Trazado 99292" d="M441.738,133.854a1.094,1.094,0,1,0-1.093,1.045A1.069,1.069,0,0,0,441.738,133.854Z" transform="translate(-410.054 -132.81)" fill="#fff"/>
          <path id="Trazado_99293" data-name="Trazado 99293" d="M450.184,133.854a1.094,1.094,0,1,0-1.092,1.045A1.069,1.069,0,0,0,450.184,133.854Z" transform="translate(-408.667 -132.81)" fill="#fff"/>
          <ellipse id="Elipse_3987" data-name="Elipse 3987" cx="1.093" cy="1.045" rx="1.093" ry="1.045" transform="translate(49.165)" fill="#fff"/>
          <path id="Trazado_99294" data-name="Trazado 99294" d="M467.077,133.854a1.094,1.094,0,1,0-1.093,1.045A1.07,1.07,0,0,0,467.077,133.854Z" transform="translate(-405.893 -132.81)" fill="#fff"/>
          <ellipse id="Elipse_3988" data-name="Elipse 3988" cx="1.093" cy="1.045" rx="1.093" ry="1.045" transform="translate(68.831)" fill="#fff"/>
          <ellipse id="Elipse_3989" data-name="Elipse 3989" cx="1.093" cy="1.045" rx="1.093" ry="1.045" transform="translate(78.664)" fill="#fff"/>
          <path id="Trazado_99295" data-name="Trazado 99295" d="M492.416,133.854a1.094,1.094,0,1,0-1.093,1.045A1.07,1.07,0,0,0,492.416,133.854Z" transform="translate(-401.733 -132.81)" fill="#fff"/>
          <path id="Trazado_99296" data-name="Trazado 99296" d="M500.862,133.854a1.094,1.094,0,1,0-1.093,1.045A1.069,1.069,0,0,0,500.862,133.854Z" transform="translate(-400.347 -132.81)" fill="#fff"/>
        </g>
      </g>
    </g>
    <g id="Grupo_158116" data-name="Grupo 158116" transform="translate(1047 6328)">
      <g id="Grupo_158110" data-name="Grupo 158110" transform="translate(22.253 15.397)">
        <g id="Grupo_158109" data-name="Grupo 158109" clip-path="url(#clip-path-2)">
          <path id="Trazado_152936" data-name="Trazado 152936" d="M199.939,50.032l38.547,69.306c6.328,11.377-.856,26.224-12.688,26.224H121.737a14.687,14.687,0,0,1-12.688-7.948L65.3,58.949c-6.328-11.377.857-26.225,12.688-26.225h104.06a14.688,14.688,0,0,1,12.688,7.949Z" transform="translate(-3.948 2.179)" fill="#f5e8df"/>
          <path id="Trazado_152937" data-name="Trazado 152937" d="M118.527,118.947l15.82,28.445c2.6,4.67-.351,10.763-5.208,10.763H86.431a6.026,6.026,0,0,1-5.208-3.263L63.267,122.606c-2.6-4.668.351-10.763,5.208-10.763h42.708a6.029,6.029,0,0,1,5.208,3.263Z" transform="translate(-3.907 7.448)" fill="#785549"/>
          <path id="Trazado_152938" data-name="Trazado 152938" d="M96.846,120.258s1.656-3.135,4.826-.478l17.793,18.242s1.679,2.709-1.762,3.057H94.161s-5.083.289-3.861-3.963Z" transform="translate(-5.651 7.906)" fill="#fff"/>
          <path id="Trazado_152939" data-name="Trazado 152939" d="M173.618,87.9l-6.934-12.466-.936-1.685a2.956,2.956,0,0,0-2.565-1.606H144.463a2.963,2.963,0,0,0-2.659,1.789,3.816,3.816,0,0,0,.095,3.513L149.769,91.6a2.954,2.954,0,0,0,2.565,1.607h18.718a2.964,2.964,0,0,0,2.66-1.789,3.813,3.813,0,0,0-.094-3.513" transform="translate(-8.869 4.805)" fill="#785549"/>
          <path id="Trazado_152940" data-name="Trazado 152940" d="M103.951,12.983,122.392,46.14c3.027,5.443-.41,12.546-6.07,12.546H66.538a7.028,7.028,0,0,1-6.07-3.8L39.537,17.249C36.509,11.807,39.945,4.7,45.607,4.7H95.391a7.025,7.025,0,0,1,6.07,3.8Z" transform="translate(3.495 -4.679)" fill="#fd9827"/>
          <path id="Trazado_152941" data-name="Trazado 152941" d="M45.381,10.452H111.7l-4.358-7.518a7.708,7.708,0,0,0-4.111-2.5c-3.058-.936-51.525.034-51.525.034s-7.583.822-6.325,9.989" transform="translate(-2.837 0.001)" fill="#1a1a1a"/>
          <path id="Trazado_152942" data-name="Trazado 152942" d="M99.511,6.7c-.807.763-2.231.327-3.179-.973S95.269,2.759,96.077,2s2.231-.327,3.179.973,1.062,2.973.255,3.735" transform="translate(-5.992 0.108)" fill="#fff"/>
          <path id="Trazado_152943" data-name="Trazado 152943" d="M91.7,6.7c-.807.763-2.231.327-3.179-.973S87.454,2.759,88.262,2s2.231-.327,3.179.973S92.5,5.942,91.7,6.7" transform="translate(-5.501 0.108)" fill="#fff"/>
          <path id="Trazado_152944" data-name="Trazado 152944" d="M10.459,77.335c-2.043,1.931-5.646.828-8.048-2.464s-2.69-7.524-.646-9.454,5.646-.828,8.047,2.464,2.69,7.524.647,9.454" transform="translate(-0.025 4.293)" fill="#c0c942"/>
          <path id="Trazado_152953" data-name="Trazado 152953" d="M189.069,64.575h-28.31a5.064,5.064,0,0,1-4.4-2.757l-3.633-7.17a6.532,6.532,0,0,1-.155-6.011,5.084,5.084,0,0,1,4.563-3.069H190.6a5.067,5.067,0,0,1,4.4,2.757l3.633,7.17a6.506,6.506,0,0,1,.335,5.6.362.362,0,0,1-.5.213.455.455,0,0,1-.187-.57,5.576,5.576,0,0,0-.293-4.8l-3.633-7.169A4.325,4.325,0,0,0,190.6,46.43H157.135a4.343,4.343,0,0,0-3.9,2.622,5.6,5.6,0,0,0,.138,5.152l3.633,7.169a4.321,4.321,0,0,0,3.753,2.341h28.31a.435.435,0,0,1,0,.862" transform="translate(-9.527 3.035)"/>
          <path id="Trazado_152954" data-name="Trazado 152954" d="M189.88,50.894H161.849a.435.435,0,0,1,0-.862H189.88a.435.435,0,0,1,0,.862" transform="translate(-10.126 3.332)"/>
          <path id="Trazado_152955" data-name="Trazado 152955" d="M192.89,56.355H164.86a.435.435,0,0,1,0-.862H192.89a.435.435,0,0,1,0,.862" transform="translate(-10.315 3.696)"/>
          <path id="Trazado_152956" data-name="Trazado 152956" d="M120.5,83.773H92.468a.434.434,0,0,1,0-.861H120.5a.434.434,0,0,1,0,.861" transform="translate(-5.775 5.522)"/>
          <path id="Trazado_152957" data-name="Trazado 152957" d="M123.509,89.234H95.477a.434.434,0,0,1,0-.861h28.032a.434.434,0,0,1,0,.861" transform="translate(-5.964 5.885)"/>
          <path id="Trazado_152958" data-name="Trazado 152958" d="M134.919,107.784H106.888a.434.434,0,0,1,0-.861h28.031a.434.434,0,0,1,0,.861" transform="translate(-6.68 7.121)"/>
          <path id="Trazado_152959" data-name="Trazado 152959" d="M137.928,113.245H109.9a.434.434,0,0,1,0-.861h28.031a.434.434,0,0,1,0,.861" transform="translate(-6.868 7.484)"/>
          <path id="Trazado_152960" data-name="Trazado 152960" d="M107.749,10.259H52.112a.435.435,0,0,1,0-.862h55.637a.435.435,0,0,1,0,.862" transform="translate(-3.244 0.626)"/>
          <path id="Trazado_152961" data-name="Trazado 152961" d="M116.366,20.694H92.409a.435.435,0,0,1,0-.862h23.957a.435.435,0,0,1,0,.862" transform="translate(-5.772 1.321)"/>
          <path id="Trazado_152962" data-name="Trazado 152962" d="M121.787,29.032H97.831a.435.435,0,0,1,0-.862h23.956a.435.435,0,0,1,0,.862" transform="translate(-6.112 1.876)"/>
          <path id="Trazado_152963" data-name="Trazado 152963" d="M126.912,37.369H102.956a.435.435,0,0,1,0-.862h23.956a.435.435,0,0,1,0,.862" transform="translate(-6.433 2.431)"/>
          <path id="Trazado_152964" data-name="Trazado 152964" d="M107.517,6.7c-.807.763-2.231.327-3.179-.973S103.275,2.759,104.083,2s2.231-.327,3.179.973,1.062,2.973.255,3.735" transform="translate(-6.494 0.108)" fill="#ff4343"/>
          <path id="Trazado_152965" data-name="Trazado 152965" d="M98.517,7.539a2.292,2.292,0,0,1-.665-.1,3.7,3.7,0,0,1-1.835-1.4c-1.081-1.48-1.173-3.428-.206-4.341a1.841,1.841,0,0,1,1.876-.371,3.694,3.694,0,0,1,1.835,1.4c1.08,1.482,1.173,3.428.206,4.341a1.722,1.722,0,0,1-1.211.477M97.026,2.078a1.036,1.036,0,0,0-.732.276c-.635.6-.5,2.033.3,3.129A2.938,2.938,0,0,0,98.048,6.6a1.171,1.171,0,0,0,1.2-.2c.635-.6.495-2.032-.3-3.128a2.945,2.945,0,0,0-1.45-1.12,1.607,1.607,0,0,0-.464-.074" transform="translate(-5.967 0.081)"/>
          <path id="Trazado_152966" data-name="Trazado 152966" d="M149.478,60.962a2.261,2.261,0,0,1-.665-.1,3.7,3.7,0,0,1-1.835-1.4c-1.081-1.48-1.173-3.427-.206-4.341a1.84,1.84,0,0,1,1.876-.371,3.7,3.7,0,0,1,1.835,1.4c1.08,1.48,1.173,3.427.206,4.341a1.726,1.726,0,0,1-1.211.476M147.986,55.5a1.04,1.04,0,0,0-.731.276c-.635.6-.5,2.033.3,3.129a2.932,2.932,0,0,0,1.45,1.119,1.177,1.177,0,0,0,1.2-.2c.635-.6.495-2.033-.3-3.129a2.936,2.936,0,0,0-1.45-1.119,1.575,1.575,0,0,0-.465-.075" transform="translate(-9.163 3.639)"/>
          <path id="Trazado_152967" data-name="Trazado 152967" d="M75.038,71.568c-.807.763-2.231.327-3.179-.973S70.8,67.623,71.6,66.86s2.231-.327,3.179.973,1.062,2.973.255,3.735" transform="translate(-4.457 4.428)" fill="#fff"/>
          <path id="Trazado_152968" data-name="Trazado 152968" d="M74.047,72.4a3.291,3.291,0,0,1-2.5-1.5,4.521,4.521,0,0,1-.874-2.311,2.491,2.491,0,0,1,.667-2.03,1.84,1.84,0,0,1,1.876-.372,3.691,3.691,0,0,1,1.835,1.4,4.516,4.516,0,0,1,.873,2.31,2.494,2.494,0,0,1-.666,2.031,1.72,1.72,0,0,1-1.207.468m-1.495-5.454a1.037,1.037,0,0,0-.732.277,1.6,1.6,0,0,0-.4,1.3,3.578,3.578,0,0,0,.7,1.828c.8,1.1,2.011,1.515,2.646.917a1.6,1.6,0,0,0,.4-1.3,3.59,3.59,0,0,0-.7-1.828,2.955,2.955,0,0,0-1.45-1.12,1.607,1.607,0,0,0-.464-.074" transform="translate(-4.431 4.401)"/>
          <path id="Trazado_152969" data-name="Trazado 152969" d="M7.981,78.734c-1.967,0-4.213-1.27-5.884-3.561A10.705,10.705,0,0,1,.021,69.694,5.619,5.619,0,0,1,1.5,65.113,4.15,4.15,0,0,1,5.73,64.3a8.8,8.8,0,0,1,4.35,3.331c2.53,3.468,2.8,7.98.6,10.061a3.837,3.837,0,0,1-2.7,1.041M4.2,64.922a3.151,3.151,0,0,0-2.22.853A4.737,4.737,0,0,0,.774,69.627a9.78,9.78,0,0,0,1.9,5c2.264,3.1,5.635,4.181,7.514,2.406s1.568-5.745-.7-8.847a8.033,8.033,0,0,0-3.965-3.049,4.529,4.529,0,0,0-1.33-.211" transform="translate(0 4.266)"/>
          <path id="Trazado_152970" data-name="Trazado 152970" d="M64.687,138.366a3.29,3.29,0,0,1-2.5-1.5,4.52,4.52,0,0,1-.873-2.31,2.492,2.492,0,0,1,.666-2.031c.967-.916,2.633-.451,3.713,1.029a4.516,4.516,0,0,1,.873,2.31A2.493,2.493,0,0,1,65.9,137.9a1.722,1.722,0,0,1-1.208.468m-1.5-5.45a1.033,1.033,0,0,0-.727.274,1.6,1.6,0,0,0-.4,1.3,3.582,3.582,0,0,0,.7,1.827c.8,1.1,2.013,1.512,2.647.917a1.6,1.6,0,0,0,.4-1.3,3.6,3.6,0,0,0-.7-1.828,2.605,2.605,0,0,0-1.92-1.19" transform="translate(-3.844 8.795)"/>
          <path id="Trazado_152971" data-name="Trazado 152971" d="M134.59,91.181a3.291,3.291,0,0,1-2.5-1.5,4.376,4.376,0,0,1-.871-2.823,2.292,2.292,0,0,1,.665-1.518c.967-.915,2.633-.45,3.712,1.029a4.516,4.516,0,0,1,.873,2.31,2.494,2.494,0,0,1-.666,2.031,1.72,1.72,0,0,1-1.207.468m-1.5-5.45a1.033,1.033,0,0,0-.727.274,1.439,1.439,0,0,0-.395.935,3.415,3.415,0,0,0,.7,2.193c.8,1.1,2.011,1.515,2.646.917a1.6,1.6,0,0,0,.4-1.3,3.6,3.6,0,0,0-.7-1.828,2.6,2.6,0,0,0-1.919-1.19" transform="translate(-8.228 5.652)"/>
          <path id="Trazado_152972" data-name="Trazado 152972" d="M90.7,7.531a3.291,3.291,0,0,1-2.5-1.5C87.12,4.552,87.028,2.6,87.994,1.692s2.632-.453,3.713,1.028,1.173,3.429.206,4.342a1.721,1.721,0,0,1-1.208.468m-1.5-5.45a1.028,1.028,0,0,0-.727.274c-.635.6-.5,2.032.3,3.128S90.8,7,91.429,6.4s.495-2.032-.3-3.129a2.607,2.607,0,0,0-1.92-1.19" transform="translate(-5.476 0.081)"/>
          <path id="Trazado_152973" data-name="Trazado 152973" d="M130.883,86.511a.365.365,0,0,1-.313-.189,30.472,30.472,0,0,1-2.146-4.4.454.454,0,0,1,.19-.568.361.361,0,0,1,.5.217,29.629,29.629,0,0,0,2.082,4.264.47.47,0,0,1-.1.6.348.348,0,0,1-.213.074m-3.561-9a.392.392,0,0,1-.366-.323,32.544,32.544,0,0,1-.738-4.955.415.415,0,0,1,.347-.463.4.4,0,0,1,.407.395,31.555,31.555,0,0,0,.716,4.807.438.438,0,0,1-.271.525.33.33,0,0,1-.1.015m-.631-9.821a.274.274,0,0,1-.078-.01.432.432,0,0,1-.292-.51,8.643,8.643,0,0,1,2.269-4.421.347.347,0,0,1,.534.022.472.472,0,0,1-.02.608,7.774,7.774,0,0,0-2.044,3.968.393.393,0,0,1-.369.342m5.845-6.784a.381.381,0,0,1-.349-.263.453.453,0,0,1,.2-.564,22.438,22.438,0,0,1,4.226-1.485.377.377,0,0,1,.452.327.434.434,0,0,1-.289.513,21.834,21.834,0,0,0-4.1,1.438.342.342,0,0,1-.146.034m8.47-2.233a.4.4,0,0,1-.376-.387.42.42,0,0,1,.337-.473,37.789,37.789,0,0,1,4.174-.258l.236,0a.41.41,0,0,1,.369.441.406.406,0,0,1-.379.42l-.227,0a36.707,36.707,0,0,0-4.1.255l-.038,0" transform="translate(-7.915 3.833)"/>
          <path id="Trazado_152974" data-name="Trazado 152974" d="M65.868,70.362H61.514a.434.434,0,0,1,0-.861h4.355a.434.434,0,0,1,0,.861m-8.71,0H52.8a.434.434,0,0,1,0-.861h4.355a.434.434,0,0,1,0,.861m-8.71,0H44.092a.434.434,0,0,1,0-.861h4.356a.434.434,0,0,1,0,.861m-8.71,0H35.382a.434.434,0,0,1,0-.861h4.356a.434.434,0,0,1,0,.861m-8.711,0H26.671a.434.434,0,0,1,0-.861h4.356a.434.434,0,0,1,0,.861m-8.71,0H17.961a.434.434,0,0,1,0-.861h4.356a.434.434,0,0,1,0,.861" transform="translate(-1.103 4.629)"/>
          <path id="Trazado_152975" data-name="Trazado 152975" d="M58.574,135.473H54.219a.434.434,0,0,1,0-.861h4.355a.434.434,0,0,1,0,.861m-8.71,0H46.483a.434.434,0,0,1,0-.861h3.381a.434.434,0,0,1,0,.861" transform="translate(-2.891 8.965)"/>
          <path id="Trazado_152976" data-name="Trazado 152976" d="M44.252,139.218a.371.371,0,0,1-.321-.2l-.75-1.348a.465.465,0,0,1,.118-.593.351.351,0,0,1,.522.133l.75,1.347a.466.466,0,0,1-.118.594.338.338,0,0,1-.2.067m-3.079-5.537a.37.37,0,0,1-.32-.2l-2.33-4.187a.466.466,0,0,1,.118-.594.352.352,0,0,1,.522.133l2.329,4.187a.468.468,0,0,1-.117.594.34.34,0,0,1-.2.066m-4.658-8.375a.371.371,0,0,1-.321-.2l-2.329-4.187a.465.465,0,0,1,.118-.593.351.351,0,0,1,.522.133l2.329,4.186a.466.466,0,0,1-.118.594.336.336,0,0,1-.2.067m-4.658-8.376a.37.37,0,0,1-.32-.2l-2.33-4.187a.466.466,0,0,1,.118-.594.352.352,0,0,1,.522.133l2.329,4.187a.468.468,0,0,1-.117.594.34.34,0,0,1-.2.066M27.2,108.555a.372.372,0,0,1-.321-.2l-2.328-4.189a.465.465,0,0,1,.117-.593.351.351,0,0,1,.522.133l2.329,4.187a.467.467,0,0,1-.118.594.336.336,0,0,1-.2.067m-4.658-8.376a.37.37,0,0,1-.321-.2L19.89,95.791a.467.467,0,0,1,.118-.594.352.352,0,0,1,.522.133l2.329,4.189a.467.467,0,0,1-.118.594.337.337,0,0,1-.2.066M17.881,91.8a.371.371,0,0,1-.321-.2l-2.328-4.189a.465.465,0,0,1,.117-.593.351.351,0,0,1,.522.133L18.2,91.143a.467.467,0,0,1-.117.594.34.34,0,0,1-.2.066m-4.658-8.375a.37.37,0,0,1-.321-.2L10.573,79.04a.466.466,0,0,1,.118-.594.352.352,0,0,1,.522.133l2.329,4.189a.467.467,0,0,1-.118.594.344.344,0,0,1-.2.066" transform="translate(-0.659 5.22)"/>
          <path id="Trazado_152978" data-name="Trazado 152978" d="M84.594,43.385a.367.367,0,0,1-.32-.2L68.335,14.525a.467.467,0,0,1,.117-.594.354.354,0,0,1,.522.133L84.914,42.724a.469.469,0,0,1-.117.6.357.357,0,0,1-.2.066" transform="translate(-4.282 0.923)"/>
        </g>
      </g>
      <g id="Grupo_158034" data-name="Grupo 158034" transform="translate(108.424 0.001)">
        <g id="Grupo_158108" data-name="Grupo 158108" transform="translate(0 4.88)">
          <path id="Trazado_152232" data-name="Trazado 152232" d="M487.969,138.166a39.392,39.392,0,1,1,25.576,15.868,38.959,38.959,0,0,1-25.576-15.868m5.415-27.254a26.92,26.92,0,1,0,30.942-22.141,26.907,26.907,0,0,0-30.942,22.141" transform="translate(-363.849 -57.574)" fill="#f2e6dc"/>
          <path id="Trazado_152233" data-name="Trazado 152233" d="M494.073,142.107a37.837,37.837,0,1,1,24.566,15.241,37.422,37.422,0,0,1-24.566-15.241m2.62-26.6a28.473,28.473,0,1,0,32.727-23.419A28.459,28.459,0,0,0,496.694,115.5" transform="translate(-368.691 -62.419)" fill="#fff"/>
          <path id="Trazado_152234" data-name="Trazado 152234" d="M525.036,92.158a28.523,28.523,0,0,0-24.94,21.467l-9.214-1.517a37.809,37.809,0,0,1,34.006-29.283Z" transform="translate(-371.64 -62.744)" fill="#c0c942"/>
          <path id="Trazado_152235" data-name="Trazado 152235" d="M496.422,223.409A28.465,28.465,0,0,0,541.366,248.9l6.029,7.135c-.192.143-.385.286-.581.427a37.776,37.776,0,0,1-59.607-34.567Z" transform="translate(-369.576 -168.091)" fill="#31313c"/>
          <path id="Trazado_152236" data-name="Trazado 152236" d="M666.23,98.639a28.324,28.324,0,0,0-13.841-6.424q-1.421-.234-2.831-.322l-.148-9.325a38.524,38.524,0,0,1,4.495.47,37.569,37.569,0,0,1,18.943,8.994Z" transform="translate(-491.66 -62.548)" fill="#785549"/>
          <path id="Trazado_152237" data-name="Trazado 152237" d="M735.695,137.926a40.158,40.158,0,0,1,6.574,29.251,39.44,39.44,0,0,1-11.242,22.057l-6.032-7.427a29.8,29.8,0,0,0,8.081-16.2,30.316,30.316,0,0,0-6.442-23.991l6.616-6.871a39.739,39.739,0,0,1,2.446,3.185" transform="translate(-548.883 -102.405)" fill="#fd9827"/>
          <path id="Trazado_152238" data-name="Trazado 152238" d="M265.637,390.68a80.067,80.067,0,0,1,12.173,17.983c7.534,15.271,8.43,40.051,8.278,48.213h-42.6c-.157-3.483-.314-17.513-.471-21-3.209,1.691-15.51,19.107-17.288,20.974H175.07c10.052-13.56,27.584-33.457,39.927-43.42-.893-4.86-1.785-8.415-2.678-13.275l53.317-9.477" transform="translate(-132.543 -280.756)" fill="#363e44"/>
          <path id="Trazado_152239" data-name="Trazado 152239" d="M50.028,249.554C36.727,252.021-2.1,256.8.089,273.045c1.81,13.44,39.416,7.124,52.784,5.529q-1.422-14.51-2.845-29.019" transform="translate(0 -181.919)" fill="#f8b8a4"/>
          <path id="Trazado_152240" data-name="Trazado 152240" d="M205.488,233.063l-4.382,32.563,78.88-18.954L265.379,224.8l15.094-.972q-.243-15.8-.487-31.591l-96.9,13.608,1.461,33.535Z" transform="translate(-138.615 -137.534)" fill="#fd9827"/>
          <path id="Trazado_152241" data-name="Trazado 152241" d="M511.825,212.81c4.466.159,34.86-1.1,38.755,6.676,4.091,8.167-18.2,42.969-25.806,52.611a12.312,12.312,0,0,1-4.017,5.711c-2.611,1.975-4.223,1.26-7.3,2.916-5.2,2.8-5.661,7.732-7.638,7.05-1.357-.468-1.213-3.356-.4-5.957.84-2.669,2.509-4.043,2.191-4.374-.348-.363-1.863,1.251-3.931,3.086-.961.853-2.155,4.814-4.1,4.448-1.554-.292-1.345-4.721.848-7.91,1.552-2.256,4.122-2.942,3.9-3.389-.167-.336-1.689.111-2.885.886-1.975,1.279-3.24,5.319-5.027,4.946-1.751-.365-1.5-4.23.33-7.29,1.544-2.58,4.447-3.208,4.173-3.766-.192-.392-1.551-.381-4.26.486-2.261.723-6.192,3.586-7.3,1.336-.935-1.892,3.122-4.995,7.391-7.166,2.829-1.438,5.86-2.563,7.582-3.284a22.132,22.132,0,0,0-3.9-1.944c-3.086-1.176-4.348-1.2-4.581-2.67-.24-1.518,2.328-2.125,5.324-2.038,3.574.1,6.084,1.6,7.656,2.156l9.373-17.01c-1.7.121-4.277.216-5.982.338-.08-8.1-.4-16.455-.394-25.847" transform="translate(-370.378 -152.081)" fill="#f8b8a4"/>
          <path id="Trazado_152242" data-name="Trazado 152242" d="M607.946,278.363a.243.243,0,0,1-.215-.355l6.485-12.306a.243.243,0,0,1,.43.226l-6.484,12.306a.243.243,0,0,1-.215.129" transform="translate(-460.083 -194.573)" fill="#363e44"/>
          <path id="Trazado_152243" data-name="Trazado 152243" d="M281.317,320.476a.233.233,0,0,1-.043,0,.242.242,0,0,1-.2-.281l1.388-7.778a.243.243,0,0,1,.478.085l-1.388,7.777a.242.242,0,0,1-.239.2" transform="translate(-212.797 -228.976)" fill="#fff"/>
          <path id="Trazado_152244" data-name="Trazado 152244" d="M270.19,318.452a.235.235,0,0,1-.043,0,.242.242,0,0,1-.2-.281l1.388-7.778a.243.243,0,0,1,.478.085l-1.388,7.778a.243.243,0,0,1-.239.2" transform="translate(-204.373 -227.491)" fill="#fff"/>
          <path id="Trazado_152245" data-name="Trazado 152245" d="M251.061,330.937a4.216,4.216,0,0,1-3.476-1.833,4.165,4.165,0,0,1-.658-3.145l4.344-22.93a1.96,1.96,0,0,1,2.29-1.559l4.412.833a1.957,1.957,0,0,1,1.562,2.286l-4.344,22.931a4.211,4.211,0,0,1-4.131,3.419m2.133-29.018a1.475,1.475,0,0,0-1.446,1.2l-4.344,22.93a3.714,3.714,0,0,0,2.964,4.338,3.724,3.724,0,0,0,4.346-2.959l4.344-22.93a1.472,1.472,0,0,0-1.175-1.72l-4.412-.833a1.512,1.512,0,0,0-.277-.026" transform="translate(-186.889 -219.895)" fill="#fff"/>
          <path id="Trazado_152246" data-name="Trazado 152246" d="M277.983,221.323l-4.9-.924,5.034-26.575,4.9.924Zm-4.329-1.31,3.942.744,4.853-25.622-3.942-.744Z" transform="translate(-206.749 -141.475)" fill="#fff"/>
          <path id="Trazado_152247" data-name="Trazado 152247" d="M21.538,300.118c11.133,2.334,37.624,6.536,40.193,7.049,4.8.959,15.1,2.718,15.13,6.073a3.452,3.452,0,0,1-1.9,2.871,3.486,3.486,0,0,1,.7,3.8,3.659,3.659,0,0,1-2.641,1.976,2.926,2.926,0,0,1,1.125,2.752,3.073,3.073,0,0,1-3.379,2.285A3.422,3.422,0,0,1,70.8,329.4a3.606,3.606,0,0,1-3.34,2.13c-4.269-.849-11.138-1.085-19.338-1.869-19.258-1.84-27.768-3.467-36.91-6.038A15.326,15.326,0,0,1,.246,311.1c7.147-3.705,14.145-7.277,21.292-10.982" transform="translate(-0.186 -218.81)" fill="#f8b8a4"/>
          <path id="Trazado_152248" data-name="Trazado 152248" d="M109.064,301.856a.243.243,0,0,1-.049-.005c-2.273-.466-7.307-1.454-12.175-2.409s-9.9-1.944-12.179-2.41a.242.242,0,1,1,.1-.475c2.273.466,7.307,1.454,12.175,2.409s9.9,1.944,12.179,2.41a.242.242,0,0,1-.049.48" transform="translate(-63.948 -217.626)" fill="#363e44"/>
          <path id="Trazado_152249" data-name="Trazado 152249" d="M285.743,347.889a.248.248,0,0,1-.063-.008.242.242,0,0,1-.171-.3l.56-2.077a.243.243,0,0,1,.469.126l-.56,2.078a.243.243,0,0,1-.234.179" transform="translate(-216.148 -253.561)" fill="#363e44"/>
          <path id="Trazado_152250" data-name="Trazado 152250" d="M279.921,369.64a.243.243,0,0,1-.235-.306l.56-2.077a.243.243,0,0,1,.469.126l-.56,2.078a.243.243,0,0,1-.234.179" transform="translate(-211.74 -269.532)" fill="#363e44"/>
          <path id="Trazado_152251" data-name="Trazado 152251" d="M274.236,391.853a.247.247,0,0,1-.063-.008.242.242,0,0,1-.171-.3l.56-2.078a.243.243,0,0,1,.469.126l-.56,2.078a.243.243,0,0,1-.234.179" transform="translate(-207.436 -285.843)" fill="#363e44"/>
          <path id="Trazado_152252" data-name="Trazado 152252" d="M268.666,411.894a.245.245,0,0,1-.063-.008.242.242,0,0,1-.172-.3l.56-2.077a.243.243,0,0,1,.469.126l-.56,2.078a.243.243,0,0,1-.234.179" transform="translate(-203.219 -300.558)" fill="#363e44"/>
          <path id="Trazado_152253" data-name="Trazado 152253" d="M365.748,11.187A11.208,11.208,0,1,1,354.54,0a11.2,11.2,0,0,1,11.208,11.187" transform="translate(-259.932)" fill="#363e44"/>
          <path id="Trazado_152254" data-name="Trazado 152254" d="M393.058,80.006c9.156.778,12.738,4.236,14.242,6.926,2.921,5.225,1.237,8.819,4.017,15.674a25.266,25.266,0,0,0,9.495,11.178,27.73,27.73,0,0,1-22.155,7.655,73.95,73.95,0,0,0-5.6-41.433" transform="translate(-297.579 -60.607)" fill="#363e44"/>
          <path id="Trazado_152255" data-name="Trazado 152255" d="M352.164,89.545c.615-.059,6.511-.541,10.063,3.483,2.643,2.994,2.96,6.838,2.516,13.365-.523,7.687-1.912,12.208-4.129,13.726-3.5,2.4-14-2.964-17.945-9.676a15.452,15.452,0,0,1,.487-15.876c3-4.779,8.615-4.984,9.008-5.022" transform="translate(-257.943 -67.797)" fill="#f8b8a4"/>
          <path id="Trazado_152256" data-name="Trazado 152256" d="M367.057,203.988h0a5.653,5.653,0,0,1-5.658-5.648v-5.325a5.658,5.658,0,0,1,11.317,0v5.325a5.653,5.653,0,0,1-5.658,5.648" transform="translate(-273.61 -137.152)" fill="#f8b8a4"/>
          <path id="Trazado_152257" data-name="Trazado 152257" d="M363.983,186.666a9.658,9.658,0,0,1-2.088-.256c-4.574-1.022-11.056-5.059-13.986-10.043a.243.243,0,1,1,.419-.245c2.864,4.87,9.2,8.815,13.674,9.815,1.785.4,3.167.312,4-.253a.243.243,0,1,1,.274.4,4.03,4.03,0,0,1-2.288.582" transform="translate(-263.371 -129.012)" fill="#363e44"/>
          <path id="Trazado_152258" data-name="Trazado 152258" d="M363.827,85.73c2.362,5.314-5.964,10.828-13.289,8.75-4.284-1.215-8.284-5.653-7.405-8.35,1.513-4.641,18.27-5.856,20.695-.4" transform="translate(-259.688 -62.208)" fill="#363e44"/>
          <path id="Trazado_152259" data-name="Trazado 152259" d="M444.74,129.823a10.178,10.178,0,0,1-2.324,3.814c-.356.354-2.534-3.171-2.033-3.347a10.242,10.242,0,0,1,4.357-.466" transform="translate(-333.351 -95.254)" fill="#fff"/>
          <path id="Trazado_152260" data-name="Trazado 152260" d="M419.949,137.444a9.608,9.608,0,0,0,5.842-1.182,7.179,7.179,0,0,0,1.21-.978,4,4,0,0,0-2.032-3.346,7.232,7.232,0,0,0-1.485.716,9.574,9.574,0,0,0-3.535,4.79" transform="translate(-317.937 -96.818)" fill="#363e44"/>
          <path id="Trazado_152261" data-name="Trazado 152261" d="M258.078,69.555A25.472,25.472,0,1,1,232.607,44.13a25.448,25.448,0,0,1,25.472,25.425" transform="translate(-156.819 -33.43)" fill="#e2a18d"/>
          <path id="Trazado_152262" data-name="Trazado 152262" d="M231.85,94.464A25.667,25.667,0,1,1,257.564,68.8,25.636,25.636,0,0,1,231.85,94.464m0-50.849A25.234,25.234,0,0,0,206.621,68.8,25.206,25.206,0,0,0,231.85,93.979a25.182,25.182,0,1,0,0-50.364" transform="translate(-156.062 -32.672)" fill="#fff"/>
          <path id="Trazado_152263" data-name="Trazado 152263" d="M269.744,222a21.419,21.419,0,0,1-13.465-4.693.243.243,0,1,1,.3-.38,21.191,21.191,0,0,0,22.5,2.422.243.243,0,1,1,.215.435A21.439,21.439,0,0,1,269.744,222" transform="translate(-193.956 -159.16)" fill="#fff"/>
          <path id="Trazado_152264" data-name="Trazado 152264" d="M377.35,94.113a.243.243,0,0,1-.234-.179,21.07,21.07,0,0,0-5.97-9.861.243.243,0,1,1,.332-.354,21.552,21.552,0,0,1,6.107,10.088.243.243,0,0,1-.234.306" transform="translate(-280.931 -63.37)" fill="#fff"/>
          <path id="Trazado_152265" data-name="Trazado 152265" d="M294.563,63.773a.244.244,0,0,1-.13-.038,21.208,21.208,0,0,0-20.257-1.318.242.242,0,1,1-.205-.439,21.694,21.694,0,0,1,20.723,1.348.242.242,0,0,1-.131.447" transform="translate(-207.313 -45.426)" fill="#fff"/>
          <path id="Trazado_152266" data-name="Trazado 152266" d="M233.1,185.674a.243.243,0,0,1-.174-.073,21.728,21.728,0,0,1-4.889-7.833.243.243,0,0,1,.458-.162,21.241,21.241,0,0,0,4.779,7.657.242.242,0,0,1-.174.411" transform="translate(-172.631 -130.137)" fill="#fff"/>
          <path id="Trazado_152267" data-name="Trazado 152267" d="M345.566,135.29a39.764,39.764,0,0,1-16.888,4.11c-1.964,0,1.741-15.686,3.605-14.8a39.777,39.777,0,0,1,13.283,10.688" transform="translate(-248.415 -91.221)" fill="#fff"/>
          <path id="Trazado_152268" data-name="Trazado 152268" d="M254.931,116.155a28.207,28.207,0,0,0-6.068-2.112c-11.673-2.574-22.935,3.472-22.935,3.472s7.662,10.219,19.335,12.793a28.06,28.06,0,0,0,6.041.637,15.575,15.575,0,0,0,3.626-14.79" transform="translate(-171.048 -82.994)" fill="#363e44"/>
        </g>
      </g>
      <g id="Grupo_158114" data-name="Grupo 158114" transform="translate(0 60.376)">
        <g id="Grupo_158115" data-name="Grupo 158115" transform="translate(0 0)">
          <path id="Trazado_152982" data-name="Trazado 152982" d="M235.456,94.643H214.223a5.044,5.044,0,0,1-5.044-5.044V67.869H240.5V89.6a5.044,5.044,0,0,1-5.044,5.044" transform="translate(-150.846 -49.318)" fill="#ebc9b1"/>
          <path id="Trazado_152983" data-name="Trazado 152983" d="M141.252,218.623H10.26c-4.4,0-8.127-4.775-8.737-11.192-.743-7.816,3.378-14.8,8.737-14.8H141.252c5.359,0,9.48,6.979,8.737,14.8-.61,6.417-4.337,11.192-8.737,11.192" transform="translate(-1.436 -139.051)" fill="#31313c"/>
          <path id="Trazado_152985" data-name="Trazado 152985" d="M64.636,229.64a3.06,3.06,0,1,1-3.06-3.06,3.06,3.06,0,0,1,3.06,3.06" transform="translate(-42.489 -163.464)" fill="#fff"/>
          <path id="Trazado_152986" data-name="Trazado 152986" d="M106.8,229.64a3.06,3.06,0,1,1-3.06-3.06,3.06,3.06,0,0,1,3.06,3.06" transform="translate(-72.816 -163.464)" fill="#fff"/>
          <path id="Trazado_152987" data-name="Trazado 152987" d="M148.972,229.64a3.06,3.06,0,1,1-3.06-3.06,3.06,3.06,0,0,1,3.06,3.06" transform="translate(-103.144 -163.464)" fill="#fff"/>
          <path id="Trazado_152988" data-name="Trazado 152988" d="M191.14,229.64a3.06,3.06,0,1,1-3.06-3.06,3.06,3.06,0,0,1,3.06,3.06" transform="translate(-133.471 -163.464)" fill="#fff"/>
          <path id="Trazado_152989" data-name="Trazado 152989" d="M233.308,229.64a3.06,3.06,0,1,1-3.059-3.06,3.06,3.06,0,0,1,3.059,3.06" transform="translate(-163.799 -163.464)" fill="#fff"/>
          <path id="Trazado_152990" data-name="Trazado 152990" d="M275.476,229.64a3.06,3.06,0,1,1-3.06-3.06,3.06,3.06,0,0,1,3.06,3.06" transform="translate(-194.127 -163.464)" fill="#fff"/>
          <path id="Trazado_152991" data-name="Trazado 152991" d="M317.644,229.64a3.06,3.06,0,1,1-3.059-3.06,3.06,3.06,0,0,1,3.059,3.06" transform="translate(-224.454 -163.464)" fill="#fff"/>
          <path id="Trazado_152992" data-name="Trazado 152992" d="M359.812,229.64a3.06,3.06,0,1,1-3.06-3.06,3.06,3.06,0,0,1,3.06,3.06" transform="translate(-254.782 -163.464)" fill="#fff"/>
          <path id="Trazado_152993" data-name="Trazado 152993" d="M401.98,229.64a3.06,3.06,0,1,1-3.06-3.06,3.06,3.06,0,0,1,3.06,3.06" transform="translate(-285.109 -163.464)" fill="#fff"/>
          <path id="Trazado_152994" data-name="Trazado 152994" d="M444.148,229.64a3.06,3.06,0,1,1-3.059-3.06,3.06,3.06,0,0,1,3.059,3.06" transform="translate(-315.437 -163.464)" fill="#fff"/>
          <path id="Trazado_152995" data-name="Trazado 152995" d="M234.313,94.643H215.366a6.187,6.187,0,0,1-6.187-6.187V67.869H240.5V88.456A6.187,6.187,0,0,1,234.313,94.643Z" transform="translate(-150.846 -49.318)" fill="none" stroke="#231f20" stroke-linecap="round" stroke-linejoin="round" stroke-width="1"/>
          <path id="Trazado_152996" data-name="Trazado 152996" d="M240.5,10.348A8.545,8.545,0,0,0,231.955,1.8H217.724a8.545,8.545,0,0,0-8.545,8.545V20.354" transform="translate(-150.846 -1.803)" fill="none" stroke="#231f20" stroke-linecap="round" stroke-linejoin="round" stroke-width="1"/>
          <path id="Trazado_152997" data-name="Trazado 152997" d="M259.839,97.1a3.274,3.274,0,1,0-5.473,2.426v6.5h4.4v-6.5a3.266,3.266,0,0,0,1.076-2.426" transform="translate(-182.571 -67.983)" fill="#31313c"/>
        </g>
      </g>
    </g>
  </g>
</svg>
