<svg xmlns="http://www.w3.org/2000/svg" xmlns:xlink="http://www.w3.org/1999/xlink" width="49.552" height="56.691" viewBox="0 0 49.552 56.691">
  <defs>
    <clipPath id="clip-path">
      <rect id="Rectángulo_35051" data-name="Rectángulo 35051" width="49.552" height="56.691" fill="#b5a29b"/>
    </clipPath>
  </defs>
  <g id="Grupo_158016" data-name="Grupo 158016" clip-path="url(#clip-path)">
    <path id="Trazado_151886" data-name="Trazado 151886" d="M1.859,56.691A2.621,2.621,0,0,1,0,53.85Q.036,37.079.015,20.308A5.688,5.688,0,0,1,3.892,14.6c.327-.113.669-.186,1.068-.295v-.577c0-1.974-.005-3.948,0-5.923A2.662,2.662,0,0,1,7.774,4.993c.7,0,1.4,0,2.168,0,0-.728,0-1.422,0-2.116A2.668,2.668,0,0,1,12.807.007Q24.653,0,36.5,0a1.464,1.464,0,0,1,1.125.467c2.17,2.187,4.362,4.352,6.517,6.555a1.707,1.707,0,0,1,.435,1.061c.043,1.881.02,3.763.02,5.645v.614a5.946,5.946,0,0,1,2.87,1.3,5.763,5.763,0,0,1,2.074,4.581q.008,7.5,0,15a2.188,2.188,0,0,1-.008.276.83.83,0,0,1-.877.807.79.79,0,0,1-.768-.852c-.009-1.217-.006-2.435-.006-3.653q0-4.732,0-9.465v-.691H1.675v.6q0,15.857,0,31.715c0,.911.154,1.065,1.054,1.065H46.842c.871,0,1.035-.161,1.035-1.03q0-7.057,0-14.114a5.505,5.505,0,0,1,.015-.608.81.81,0,0,1,1.6-.09,3.143,3.143,0,0,1,.043.659c0,4.668-.021,9.336.015,14a2.617,2.617,0,0,1-1.859,2.841ZM37.914,19.924V13.61c-1.417,0-2.8.01-4.18,0a2.673,2.673,0,0,1-2.742-2.725c-.012-.609,0-1.217,0-1.826v-2.4H7.962c-1.027,0-1.341.32-1.341,1.366q0,5.673,0,11.346c0,.179.015.358.025.559Zm4.982.024V8.628c-1.38,0-2.724.007-4.068,0a2.694,2.694,0,0,1-2.856-2.839c0-.314,0-.627,0-.941V1.667H12.9a2.626,2.626,0,0,0-.386.009.937.937,0,0,0-.893.9c-.042.785-.011,1.575-.011,2.414h.7q9.6,0,19.2-.007a1.463,1.463,0,0,1,1.126.462q3.253,3.28,6.534,6.534a1.454,1.454,0,0,1,.451,1.131c-.016,2.066-.007,4.131-.007,6.2v.616c.185.009.311.022.436.022.938,0,1.876,0,2.848,0M4.945,16.075a3.752,3.752,0,0,0-3.181,3.83H4.945Zm42.873,3.842a3.891,3.891,0,0,0-3.2-3.819v3.819ZM37.644,3.041c0,.974-.028,2,.012,3.015a.869.869,0,0,0,.847.875c1.035.046,2.072.014,3.047.014L37.644,3.041m-1.127,8.9L32.651,8.068v.4c0,.827-.018,1.655.012,2.481a.949.949,0,0,0,.933.978c1,.033,2.011.009,2.922.009" transform="translate(-0.001 0.001)" fill="#b5a29b"/>
    <path id="Trazado_151887" data-name="Trazado 151887" d="M57.3,82.085v.652c0,4.261.009,8.522-.012,12.783,0,.534.149.674.678.672,5.515-.019,11.03-.012,16.545-.012h.6c.014-.24.036-.436.036-.631,0-4.279-.009-8.558.014-12.837,0-.532-.173-.642-.661-.636-1.973.024-3.947.012-5.921.008-.22,0-.5.047-.646-.066a1.527,1.527,0,0,1-.579-.768.688.688,0,0,1,.616-.785,2.544,2.544,0,0,1,.55-.037q3.1,0,6.2,0a1.835,1.835,0,0,1,2.09,2.112q0,6.585,0,13.17a1.855,1.855,0,0,1-2.132,2.133H57.747a1.834,1.834,0,0,1-2.107-2.095q-.005-6.612,0-13.225a1.829,1.829,0,0,1,2.1-2.095q3.071-.005,6.142,0a3.133,3.133,0,0,1,.551.03.809.809,0,0,1,.012,1.59,3.016,3.016,0,0,1-.605.037q-2.906,0-5.81,0H57.3" transform="translate(-31.694 -45.813)" fill="#b5a29b"/>
    <path id="Trazado_151888" data-name="Trazado 151888" d="M71.394,89.7H65.92a3.669,3.669,0,0,1-.5-.015.815.815,0,0,1-.114-1.595,2.234,2.234,0,0,1,.6-.049q5.473,0,10.947,0a3.515,3.515,0,0,1,.442.009.83.83,0,0,1,.778.85.791.791,0,0,1-.823.792c-.663.022-1.327.009-1.99.009h-3.87" transform="translate(-36.862 -50.152)" fill="#b5a29b"/>
    <path id="Trazado_151889" data-name="Trazado 151889" d="M71.445,96.824c-1.861,0-3.723.007-5.584-.008a1.186,1.186,0,0,1-.767-.2,1.03,1.03,0,0,1-.282-.809c.056-.242.371-.445.606-.617.1-.072.286-.027.434-.027H77.021c.074,0,.148,0,.221,0a.828.828,0,1,1,.009,1.653c-1.087.017-2.175.006-3.262.006H71.445" transform="translate(-36.913 -54.202)" fill="#b5a29b"/>
    <path id="Trazado_151890" data-name="Trazado 151890" d="M71.341,103.92H65.979c-.166,0-.332.005-.5-.01a.765.765,0,0,1-.773-.778.783.783,0,0,1,.757-.851,3.665,3.665,0,0,1,.5-.02q5.417,0,10.834,0c.887,0,1.293.274,1.279.855-.013.559-.4.8-1.263.8H71.341" transform="translate(-36.86 -58.251)" fill="#b5a29b"/>
    <path id="Trazado_151891" data-name="Trazado 151891" d="M71.373,111.028c-1.9,0-3.8,0-5.695,0-.62,0-.966-.3-.974-.809s.345-.841.945-.846c1.272-.01,2.543,0,3.815,0,2.506,0,5.013-.011,7.52.014a1.3,1.3,0,0,1,.876.322.906.906,0,0,1,.1.842,1.089,1.089,0,0,1-.784.46c-1.122.052-2.248.022-3.372.022H71.373" transform="translate(-36.858 -62.299)" fill="#b5a29b"/>
    <path id="Trazado_151892" data-name="Trazado 151892" d="M34.5,38.517h10.79c.166,0,.332,0,.5,0,.594.022.969.354.956.841-.012.469-.373.784-.938.815-.129.007-.258,0-.387,0q-10.928,0-21.857,0a2.975,2.975,0,0,1-.712-.056.81.81,0,0,1,.087-1.577,3.908,3.908,0,0,1,.607-.025q5.478,0,10.956,0" transform="translate(-12.684 -21.94)" fill="#b5a29b"/>
    <path id="Trazado_151893" data-name="Trazado 151893" d="M32.755,31.4h9.133a2.642,2.642,0,0,1,.552.019.823.823,0,0,1,.036,1.612,2.146,2.146,0,0,1-.55.028H23.436a2.239,2.239,0,0,1-.5-.02.824.824,0,0,1,.018-1.624,2.481,2.481,0,0,1,.5-.015h9.3" transform="translate(-12.684 -17.882)" fill="#b5a29b"/>
  </g>
</svg>
