<svg xmlns="http://www.w3.org/2000/svg" xmlns:xlink="http://www.w3.org/1999/xlink" width="105" height="110" viewBox="0 0 105 110">
  <defs>
    <clipPath id="clip-path">
      <rect id="Rect치ngulo_336931" data-name="Rect치ngulo 336931" width="110" height="67" transform="translate(0)" fill="#785549"/>
    </clipPath>
    <clipPath id="clip-path-2">
      <rect id="Rect치ngulo_35034" data-name="Rect치ngulo 35034" width="59.223" height="50.911" fill="#fd9827"/>
    </clipPath>
  </defs>
  <g id="Grupo_970445" data-name="Grupo 970445" transform="translate(-180.273 -1448.001)">
    <g id="Enmascarar_grupo_952123" data-name="Enmascarar grupo 952123" transform="translate(180.273 1558.001) rotate(-90)" clip-path="url(#clip-path)">
      <path id="Trazado_151731" data-name="Trazado 151731" d="M51.917,21.86A30.057,30.057,0,1,1,21.86,51.917,30.091,30.091,0,0,1,51.917,21.86m0-21.86a51.917,51.917,0,1,0,51.917,51.917A51.917,51.917,0,0,0,51.917,0Z" transform="translate(2.489 -43.589)" fill="#785549"/>
    </g>
    <g id="Grupo_959895" data-name="Grupo 959895" transform="translate(206.352 1464.117)">
      <circle id="Elipse_4723" data-name="Elipse 4723" cx="39.5" cy="39.5" r="39.5" transform="translate(-0.079 -0.118)" fill="#fd9827"/>
      <g id="Grupo_157985" data-name="Grupo 157985" transform="translate(10.553 13.641)">
        <g id="Grupo_157984" data-name="Grupo 157984" clip-path="url(#clip-path-2)">
          <path id="Trazado_151771" data-name="Trazado 151771" d="M60.333,49.843Q48.506,30.221,36.7,10.586C35.749,9,34.424,8.97,33.45,10.6,26.99,21.418,20.462,32.2,13.956,42.986q-2.161,3.584-4.318,7.168A1.5,1.5,0,0,0,9.977,52.3a2.093,2.093,0,0,0,1.223.263q11.944,0,23.888,0,11.886,0,23.772,0a3.849,3.849,0,0,0,.8-.054A1.431,1.431,0,0,0,60.7,50.5a5.345,5.345,0,0,0-.365-.654M33.975,21.523a3.018,3.018,0,0,1,3.284.743,2.432,2.432,0,0,1,.4,1.587c-.025,4.088-.349,8.164-.44,12.249-.011.52-.068,1.043-.036,1.561.082,1.3-.539,1.827-1.839,2.035a2.7,2.7,0,0,1-1.362-.171,1.442,1.442,0,0,1-1-1.461c-.064-2.428-.149-4.855-.2-6.637-.173-2.953-.252-5.264-.283-7.577a2.1,2.1,0,0,1,1.477-2.328m1.158,26.183a2.757,2.757,0,0,1,.011-5.514,2.757,2.757,0,0,1-.011,5.514" transform="translate(-5.464 -5.49)" fill="#ebc9b1"/>
          <path id="Trazado_151772" data-name="Trazado 151772" d="M38.932,10.447q-2.323-3.855-4.649-7.708A5.211,5.211,0,0,0,29.868.006a5.287,5.287,0,0,0-4.993,2.841c-5.359,8.9-10.768,17.764-16.066,26.7C5.835,34.557,2.48,39.35,0,44.651v1.735a12.5,12.5,0,0,0,.441,1.285,5.282,5.282,0,0,0,5.2,3.24q23.972-.007,47.943,0c.193,0,.386,0,.578-.011a5.109,5.109,0,0,0,3.12-1.2,5.3,5.3,0,0,0,1.046-7.08Q48.633,26.53,38.932,10.447M54.2,47.012a3.875,3.875,0,0,1-.8.053q-11.886,0-23.773,0-11.944,0-23.888,0a2.09,2.09,0,0,1-1.223-.264,1.5,1.5,0,0,1-.339-2.142Q6.324,41.074,8.492,37.5C15,26.705,21.526,15.928,27.986,5.109c.974-1.631,2.3-1.6,3.25-.015Q43,24.754,54.869,44.353a5.341,5.341,0,0,1,.365.653A1.432,1.432,0,0,1,54.2,47.012" transform="translate(0 0)" fill="#31313c"/>
          <path id="Trazado_151773" data-name="Trazado 151773" d="M65.626,54.909a1.442,1.442,0,0,0,1,1.461,2.712,2.712,0,0,0,1.362.171c1.3-.208,1.92-.735,1.839-2.035-.032-.517.024-1.04.036-1.56.09-4.085.415-8.162.44-12.249a2.434,2.434,0,0,0-.4-1.587,3.018,3.018,0,0,0-3.283-.743,2.1,2.1,0,0,0-1.477,2.328c.03,2.313.11,4.624.282,7.578.056,1.783.141,4.21.205,6.637" transform="translate(-38.104 -22.334)" fill="#31313c"/>
          <path id="Trazado_151774" data-name="Trazado 151774" d="M67.64,88.431a2.757,2.757,0,0,0-.011,5.514,2.757,2.757,0,0,0,.011-5.514" transform="translate(-37.96 -51.729)" fill="#31313c"/>
        </g>
      </g>
    </g>
  </g>
</svg>
