<svg xmlns="http://www.w3.org/2000/svg" xmlns:xlink="http://www.w3.org/1999/xlink" width="137.137" height="103.878" viewBox="0 0 137.137 103.878">
  <defs>
    <clipPath id="clip-path">
      <rect id="Rectángulo_35800" data-name="Rectángulo 35800" width="137.137" height="103.878" fill="none"/>
    </clipPath>
    <clipPath id="clip-path-2">
      <rect id="Rectángulo_35797" data-name="Rectángulo 35797" width="93.599" height="7.309" fill="none"/>
    </clipPath>
    <clipPath id="clip-path-3">
      <rect id="Rectángulo_35798" data-name="Rectángulo 35798" width="93.596" height="7.295" fill="none"/>
    </clipPath>
    <clipPath id="clip-path-4">
      <rect id="Rectángulo_35799" data-name="Rectángulo 35799" width="93.889" height="10.305" fill="none"/>
    </clipPath>
  </defs>
  <g id="Grupo_159155" data-name="Grupo 159155" transform="translate(0 0)">
    <g id="Grupo_159156" data-name="Grupo 159156" transform="translate(0 0)">
      <g id="Grupo_159153" data-name="Grupo 159153">
        <g id="Grupo_159152" data-name="Grupo 159152" clip-path="url(#clip-path)">
          <path id="Trazado_156162" data-name="Trazado 156162" d="M134.142,64.623c-1.411,5.2-18.186,22.605-21.776,26.287a13.482,13.482,0,0,1-10.2,5.161c-.066.006-.131.01-.2.01H19.446a1.915,1.915,0,1,1,0-3.83h82.309a9.658,9.658,0,1,0,0-19.316H19.446a1.916,1.916,0,1,1,0-3.832h.12l-.322-.651,34.543-18.43h69.358s14.494,1.716,11,14.6" transform="translate(1.01 2.882)" fill="#31313c"/>
          <g id="Grupo_159145" data-name="Grupo 159145" transform="translate(18.538 73.942)" opacity="0.2">
            <g id="Grupo_159144" data-name="Grupo 159144">
              <g id="Grupo_159143" data-name="Grupo 159143" clip-path="url(#clip-path-2)">
                <path id="Trazado_156163" data-name="Trazado 156163" d="M111.127,77.223c-.037-.078-.075-.155-.115-.232a9.653,9.653,0,0,0-8.286-5.2c-.318-.032-.64-.049-.967-.049H19.446a1.919,1.919,0,0,1-1.918-1.832h84.231a9.679,9.679,0,0,1,9.368,7.309" transform="translate(-17.529 -69.914)"/>
              </g>
            </g>
          </g>
          <path id="Trazado_156164" data-name="Trazado 156164" d="M102.34,91h-83V71.687h83a9.658,9.658,0,0,1,0,19.315" transform="translate(1.114 4.13)" fill="#f0eae0"/>
          <path id="Trazado_156165" data-name="Trazado 156165" d="M19.342,77.277H101.3a.644.644,0,1,0,0-1.288H19.342Z" transform="translate(1.114 4.378)" fill="#b2a495"/>
          <path id="Trazado_156166" data-name="Trazado 156166" d="M19.342,81.5H101.3a.644.644,0,1,0,0-1.288H19.342Z" transform="translate(1.114 4.621)" fill="#b2a495"/>
          <path id="Trazado_156167" data-name="Trazado 156167" d="M19.342,85.718H101.3a.644.644,0,1,0,0-1.288H19.342Z" transform="translate(1.114 4.864)" fill="#b2a495"/>
          <path id="Trazado_156168" data-name="Trazado 156168" d="M134.344,38.965c-1.482,5.451-19.852,24.327-22.2,26.724a13.477,13.477,0,0,1-9.973,4.883c-.066.006-.131.01-.2.01H19.447a1.915,1.915,0,1,1,0-3.831h82.309a9.658,9.658,0,0,0,0-19.315H19.447a1.916,1.916,0,1,1,0-3.832h.4l-.4-.81L53.99,24.364h69.357s14.494,1.716,11,14.6" transform="translate(1.01 1.404)" fill="#7a703b"/>
          <g id="Grupo_159148" data-name="Grupo 159148" transform="translate(18.538 46.972)" opacity="0.2">
            <g id="Grupo_159147" data-name="Grupo 159147">
              <g id="Grupo_159146" data-name="Grupo 159146" clip-path="url(#clip-path-3)">
                <path id="Trazado_156169" data-name="Trazado 156169" d="M111.124,51.708c-.035-.077-.074-.15-.112-.225a9.649,9.649,0,0,0-8.39-5.2c-.286-.025-.571-.038-.863-.038H19.446a1.919,1.919,0,0,1-1.918-1.832h84.231a9.681,9.681,0,0,1,9.365,7.294" transform="translate(-17.529 -44.413)"/>
              </g>
            </g>
          </g>
          <path id="Trazado_156170" data-name="Trazado 156170" d="M102.34,65.493h-83V46.178h83a9.658,9.658,0,0,1,0,19.315" transform="translate(1.114 2.66)" fill="#f0eae0"/>
          <path id="Trazado_156171" data-name="Trazado 156171" d="M19.342,51.769H101.3a.644.644,0,1,0,0-1.288H19.342Z" transform="translate(1.114 2.908)" fill="#b2a495"/>
          <path id="Trazado_156172" data-name="Trazado 156172" d="M19.342,55.989H101.3a.644.644,0,1,0,0-1.288H19.342Z" transform="translate(1.114 3.151)" fill="#b2a495"/>
          <path id="Trazado_156173" data-name="Trazado 156173" d="M19.342,60.21H101.3a.644.644,0,1,0,0-1.288H19.342Z" transform="translate(1.114 3.394)" fill="#b2a495"/>
          <path id="Trazado_156174" data-name="Trazado 156174" d="M102.34,39.985h-83V20.67h83a9.658,9.658,0,0,1,0,19.315" transform="translate(1.114 1.191)" fill="#f0eae0"/>
          <path id="Trazado_156175" data-name="Trazado 156175" d="M133.179,14.6c-1,3.679-9.665,13.44-15.928,20.152-.055.056-.11.118-.173.182-.087.1-.173.182-.253.269-1.942,2.076-3.616,3.822-4.722,4.959a.5.5,0,0,1-.062.062c-.656.68-1.1,1.13-1.248,1.287l-.055.056-.008.007a13.367,13.367,0,0,1-8.559,3.419,1.557,1.557,0,0,1-.2.016H19.446a1.919,1.919,0,0,1,0-3.838h82.312a9.652,9.652,0,0,0,9.658-9.657,9.372,9.372,0,0,0-.4-2.724.029.029,0,0,0-.007-.023,9.675,9.675,0,0,0-9.255-6.909H19.446a1.92,1.92,0,0,1-1.918-1.832v-.079a1.936,1.936,0,0,1,.75-1.517l.008-.007a2.149,2.149,0,0,1,.568-.3l.024-.007L52.825,0h69.355s14.5,1.713,11,14.6" transform="translate(1.01 0)" fill="#ba4310"/>
          <path id="Trazado_156176" data-name="Trazado 156176" d="M39.631,14.169h47.13l3.877-3.878H45.844Z" transform="translate(2.283 0.593)" fill="#961102"/>
          <g id="Grupo_159151" data-name="Grupo 159151" transform="translate(18.538 20.026)" opacity="0.2">
            <g id="Grupo_159150" data-name="Grupo 159150">
              <g id="Grupo_159149" data-name="Grupo 159149" clip-path="url(#clip-path-4)">
                <path id="Trazado_156177" data-name="Trazado 156177" d="M111.417,28.592c0,.189-.007.379-.016.569a.551.551,0,0,0-.007.078,6.94,6.94,0,0,0-.371-1.54.027.027,0,0,0-.008-.023,9.673,9.673,0,0,0-9.254-6.909H19.446a1.92,1.92,0,0,1-1.918-1.832H101.76a9.672,9.672,0,0,1,9.657,9.657" transform="translate(-17.528 -18.935)"/>
              </g>
            </g>
          </g>
          <path id="Trazado_156178" data-name="Trazado 156178" d="M19.342,26.26H101.3a.644.644,0,1,0,0-1.288H19.342Z" transform="translate(1.114 1.439)" fill="#b2a495"/>
          <path id="Trazado_156179" data-name="Trazado 156179" d="M19.342,30.481H101.3a.644.644,0,1,0,0-1.288H19.342Z" transform="translate(1.114 1.682)" fill="#b2a495"/>
          <path id="Trazado_156180" data-name="Trazado 156180" d="M19.342,34.7H101.3a.644.644,0,1,0,0-1.288H19.342Z" transform="translate(1.114 1.925)" fill="#b2a495"/>
        </g>
      </g>
    </g>
  </g>
</svg>
