<svg xmlns="http://www.w3.org/2000/svg" xmlns:xlink="http://www.w3.org/1999/xlink" width="505" height="223.677" viewBox="0 0 505 223.677">
  <defs>
    <clipPath id="clip-path">
      <rect id="Rectángulo_34881" data-name="Rectángulo 34881" width="254.168" height="129.664" fill="#12263f"/>
    </clipPath>
    <clipPath id="clip-path-2">
      <rect id="Rectángulo_35398" data-name="Rectángulo 35398" width="467.176" height="214.898" fill="none"/>
    </clipPath>
  </defs>
  <g id="Grupo_158607" data-name="Grupo 158607" transform="translate(-915 -404)">
    <g id="Grupo_158066" data-name="Grupo 158066" transform="translate(0)">
      <g id="Grupo_157884" data-name="Grupo 157884" transform="translate(915 404)">
        <path id="Rectángulo_34948" data-name="Rectángulo 34948" d="M56,0H488.338a0,0,0,0,1,0,0V141.356a56,56,0,0,1-56,56H0a0,0,0,0,1,0,0V56A56,56,0,0,1,56,0Z" transform="translate(6.662 17.522)" fill="#fff0de"/>
        <g id="Enmascarar_grupo_63" data-name="Enmascarar grupo 63" transform="translate(250.831 0)" clip-path="url(#clip-path)">
          <path id="Trazado_151731" data-name="Trazado 151731" d="M121.018,191.081a70.063,70.063,0,1,1,70.063-70.063,70.142,70.142,0,0,1-70.063,70.063m0,50.955A121.018,121.018,0,1,0,0,121.018,121.018,121.018,0,0,0,121.018,242.036Z" transform="translate(5.25 8.647)" fill="#fd9827"/>
        </g>
        <g id="Grupo_78301" data-name="Grupo 78301" transform="translate(0 0)">
          <path id="Trazado_145969" data-name="Trazado 145969" d="M71.675,0A71.675,71.675,0,1,1,0,71.675,71.675,71.675,0,0,1,71.675,0Z" transform="translate(0 3.637)" fill="#785549" opacity="0.444" style="mix-blend-mode: multiply;isolation: isolate"/>
          <rect id="Rectángulo_34812" data-name="Rectángulo 34812" width="504.999" height="212.707" transform="translate(0 0)" fill="none"/>
          <path id="Trazado_145971" data-name="Trazado 145971" d="M8.18,0A8.18,8.18,0,1,1,0,8.18,8.18,8.18,0,0,1,8.18,0Z" transform="translate(32.317 180.136)" fill="#31313c" opacity="0.444" style="mix-blend-mode: multiply;isolation: isolate"/>
          <g id="Grupo_80270" data-name="Grupo 80270" transform="translate(344.078 62.755)">
            <path id="Trazado_145968" data-name="Trazado 145968" d="M80.461,0A80.461,80.461,0,1,1,0,80.461,80.461,80.461,0,0,1,80.461,0Z" transform="translate(0)" fill="#31313c" opacity="0.444" style="mix-blend-mode: multiply;isolation: isolate"/>
            <g id="Grupo_78276" data-name="Grupo 78276" transform="translate(31.415 33.263)">
              <g id="Grupo_53306" data-name="Grupo 53306">
                <path id="Trazado_99200" data-name="Trazado 99200" d="M416.4,51.268a1.094,1.094,0,1,1-1.093-1.044A1.07,1.07,0,0,1,416.4,51.268Z" transform="translate(-414.214 -50.224)" fill="#fff"/>
                <path id="Trazado_99201" data-name="Trazado 99201" d="M424.845,51.268a1.094,1.094,0,1,1-1.092-1.044A1.069,1.069,0,0,1,424.845,51.268Z" transform="translate(-412.827 -50.224)" fill="#fff"/>
                <path id="Trazado_99202" data-name="Trazado 99202" d="M433.291,51.268a1.094,1.094,0,1,1-1.092-1.044A1.069,1.069,0,0,1,433.291,51.268Z" transform="translate(-411.441 -50.224)" fill="#fff"/>
                <path id="Trazado_99203" data-name="Trazado 99203" d="M441.738,51.268a1.094,1.094,0,1,1-1.093-1.044A1.07,1.07,0,0,1,441.738,51.268Z" transform="translate(-410.054 -50.224)" fill="#fff"/>
                <path id="Trazado_99204" data-name="Trazado 99204" d="M450.184,51.268a1.094,1.094,0,1,1-1.092-1.044A1.069,1.069,0,0,1,450.184,51.268Z" transform="translate(-408.667 -50.224)" fill="#fff"/>
                <path id="Trazado_99205" data-name="Trazado 99205" d="M458.63,51.268a1.094,1.094,0,1,1-1.092-1.044A1.069,1.069,0,0,1,458.63,51.268Z" transform="translate(-407.28 -50.224)" fill="#fff"/>
                <path id="Trazado_99206" data-name="Trazado 99206" d="M467.077,51.268a1.094,1.094,0,1,1-1.093-1.044A1.07,1.07,0,0,1,467.077,51.268Z" transform="translate(-405.893 -50.224)" fill="#fff"/>
                <path id="Trazado_99207" data-name="Trazado 99207" d="M475.523,51.268a1.094,1.094,0,1,1-1.092-1.044A1.069,1.069,0,0,1,475.523,51.268Z" transform="translate(-404.507 -50.224)" fill="#fff"/>
                <path id="Trazado_99208" data-name="Trazado 99208" d="M483.969,51.268a1.094,1.094,0,1,1-1.092-1.044A1.069,1.069,0,0,1,483.969,51.268Z" transform="translate(-403.12 -50.224)" fill="#fff"/>
                <path id="Trazado_99209" data-name="Trazado 99209" d="M492.416,51.268a1.094,1.094,0,1,1-1.093-1.044A1.07,1.07,0,0,1,492.416,51.268Z" transform="translate(-401.733 -50.224)" fill="#fff"/>
                <path id="Trazado_99210" data-name="Trazado 99210" d="M500.862,51.268a1.094,1.094,0,1,1-1.093-1.044A1.069,1.069,0,0,1,500.862,51.268Z" transform="translate(-400.347 -50.224)" fill="#fff"/>
              </g>
              <g id="Grupo_53307" data-name="Grupo 53307" transform="translate(0 8.359)">
                <path id="Trazado_99211" data-name="Trazado 99211" d="M416.4,58.776a1.094,1.094,0,1,1-1.093-1.044A1.07,1.07,0,0,1,416.4,58.776Z" transform="translate(-414.214 -57.732)" fill="#fff"/>
                <path id="Trazado_99212" data-name="Trazado 99212" d="M424.845,58.776a1.094,1.094,0,1,1-1.092-1.044A1.069,1.069,0,0,1,424.845,58.776Z" transform="translate(-412.827 -57.732)" fill="#fff"/>
                <path id="Trazado_99213" data-name="Trazado 99213" d="M433.291,58.776a1.094,1.094,0,1,1-1.092-1.044A1.069,1.069,0,0,1,433.291,58.776Z" transform="translate(-411.441 -57.732)" fill="#fff"/>
                <path id="Trazado_99214" data-name="Trazado 99214" d="M441.738,58.776a1.094,1.094,0,1,1-1.093-1.044A1.07,1.07,0,0,1,441.738,58.776Z" transform="translate(-410.054 -57.732)" fill="#fff"/>
                <path id="Trazado_99215" data-name="Trazado 99215" d="M450.184,58.776a1.094,1.094,0,1,1-1.092-1.044A1.069,1.069,0,0,1,450.184,58.776Z" transform="translate(-408.667 -57.732)" fill="#fff"/>
                <path id="Trazado_99216" data-name="Trazado 99216" d="M458.63,58.776a1.094,1.094,0,1,1-1.092-1.044A1.069,1.069,0,0,1,458.63,58.776Z" transform="translate(-407.28 -57.732)" fill="#fff"/>
                <path id="Trazado_99217" data-name="Trazado 99217" d="M467.077,58.776a1.094,1.094,0,1,1-1.093-1.044A1.07,1.07,0,0,1,467.077,58.776Z" transform="translate(-405.893 -57.732)" fill="#fff"/>
                <path id="Trazado_99218" data-name="Trazado 99218" d="M475.523,58.776a1.094,1.094,0,1,1-1.092-1.044A1.069,1.069,0,0,1,475.523,58.776Z" transform="translate(-404.507 -57.732)" fill="#fff"/>
                <path id="Trazado_99219" data-name="Trazado 99219" d="M483.969,58.776a1.094,1.094,0,1,1-1.092-1.044A1.069,1.069,0,0,1,483.969,58.776Z" transform="translate(-403.12 -57.732)" fill="#fff"/>
                <path id="Trazado_99220" data-name="Trazado 99220" d="M492.416,58.776a1.094,1.094,0,1,1-1.093-1.044A1.07,1.07,0,0,1,492.416,58.776Z" transform="translate(-401.733 -57.732)" fill="#fff"/>
                <path id="Trazado_99221" data-name="Trazado 99221" d="M500.862,58.776a1.094,1.094,0,1,1-1.093-1.044A1.069,1.069,0,0,1,500.862,58.776Z" transform="translate(-400.347 -57.732)" fill="#fff"/>
              </g>
              <g id="Grupo_53308" data-name="Grupo 53308" transform="translate(0 16.718)">
                <ellipse id="Elipse_3955" data-name="Elipse 3955" cx="1.093" cy="1.045" rx="1.093" ry="1.045" fill="#fff"/>
                <path id="Trazado_99222" data-name="Trazado 99222" d="M424.845,66.284a1.094,1.094,0,1,1-1.092-1.044A1.07,1.07,0,0,1,424.845,66.284Z" transform="translate(-412.827 -65.24)" fill="#fff"/>
                <ellipse id="Elipse_3956" data-name="Elipse 3956" cx="1.093" cy="1.045" rx="1.093" ry="1.045" transform="translate(19.666)" fill="#fff"/>
                <path id="Trazado_99223" data-name="Trazado 99223" d="M441.738,66.284a1.094,1.094,0,1,1-1.093-1.044A1.07,1.07,0,0,1,441.738,66.284Z" transform="translate(-410.054 -65.24)" fill="#fff"/>
                <path id="Trazado_99224" data-name="Trazado 99224" d="M450.184,66.284a1.094,1.094,0,1,1-1.092-1.044A1.07,1.07,0,0,1,450.184,66.284Z" transform="translate(-408.667 -65.24)" fill="#fff"/>
                <ellipse id="Elipse_3957" data-name="Elipse 3957" cx="1.093" cy="1.045" rx="1.093" ry="1.045" transform="translate(49.165)" fill="#fff"/>
                <path id="Trazado_99225" data-name="Trazado 99225" d="M467.077,66.284a1.094,1.094,0,1,1-1.093-1.044A1.071,1.071,0,0,1,467.077,66.284Z" transform="translate(-405.893 -65.24)" fill="#fff"/>
                <ellipse id="Elipse_3958" data-name="Elipse 3958" cx="1.093" cy="1.045" rx="1.093" ry="1.045" transform="translate(68.831)" fill="#fff"/>
                <ellipse id="Elipse_3959" data-name="Elipse 3959" cx="1.093" cy="1.045" rx="1.093" ry="1.045" transform="translate(78.664)" fill="#fff"/>
                <path id="Trazado_99226" data-name="Trazado 99226" d="M492.416,66.284a1.094,1.094,0,1,1-1.093-1.044A1.071,1.071,0,0,1,492.416,66.284Z" transform="translate(-401.733 -65.24)" fill="#fff"/>
                <path id="Trazado_99227" data-name="Trazado 99227" d="M500.862,66.284a1.094,1.094,0,1,1-1.093-1.044A1.07,1.07,0,0,1,500.862,66.284Z" transform="translate(-400.347 -65.24)" fill="#fff"/>
              </g>
              <g id="Grupo_53309" data-name="Grupo 53309" transform="translate(0 25.076)">
                <ellipse id="Elipse_3960" data-name="Elipse 3960" cx="1.093" cy="1.045" rx="1.093" ry="1.045" transform="translate(0 0)" fill="#fff"/>
                <path id="Trazado_99228" data-name="Trazado 99228" d="M424.845,73.792a1.094,1.094,0,1,1-1.092-1.045A1.069,1.069,0,0,1,424.845,73.792Z" transform="translate(-412.827 -72.747)" fill="#fff"/>
                <ellipse id="Elipse_3961" data-name="Elipse 3961" cx="1.093" cy="1.045" rx="1.093" ry="1.045" transform="translate(19.666 0)" fill="#fff"/>
                <path id="Trazado_99229" data-name="Trazado 99229" d="M441.738,73.792a1.094,1.094,0,1,1-1.093-1.045A1.069,1.069,0,0,1,441.738,73.792Z" transform="translate(-410.054 -72.747)" fill="#fff"/>
                <path id="Trazado_99230" data-name="Trazado 99230" d="M450.184,73.792a1.094,1.094,0,1,1-1.092-1.045A1.069,1.069,0,0,1,450.184,73.792Z" transform="translate(-408.667 -72.747)" fill="#fff"/>
                <ellipse id="Elipse_3962" data-name="Elipse 3962" cx="1.093" cy="1.045" rx="1.093" ry="1.045" transform="translate(49.165 0)" fill="#fff"/>
                <path id="Trazado_99231" data-name="Trazado 99231" d="M467.077,73.792a1.094,1.094,0,1,1-1.093-1.045A1.07,1.07,0,0,1,467.077,73.792Z" transform="translate(-405.893 -72.747)" fill="#fff"/>
                <ellipse id="Elipse_3963" data-name="Elipse 3963" cx="1.093" cy="1.045" rx="1.093" ry="1.045" transform="translate(68.831 0)" fill="#fff"/>
                <ellipse id="Elipse_3964" data-name="Elipse 3964" cx="1.093" cy="1.045" rx="1.093" ry="1.045" transform="translate(78.664 0)" fill="#fff"/>
                <path id="Trazado_99232" data-name="Trazado 99232" d="M492.416,73.792a1.094,1.094,0,1,1-1.093-1.045A1.07,1.07,0,0,1,492.416,73.792Z" transform="translate(-401.733 -72.747)" fill="#fff"/>
                <path id="Trazado_99233" data-name="Trazado 99233" d="M500.862,73.792a1.094,1.094,0,1,1-1.093-1.045A1.069,1.069,0,0,1,500.862,73.792Z" transform="translate(-400.347 -72.747)" fill="#fff"/>
              </g>
              <g id="Grupo_53310" data-name="Grupo 53310" transform="translate(0 33.435)">
                <path id="Trazado_99234" data-name="Trazado 99234" d="M416.4,81.3a1.094,1.094,0,1,1-1.093-1.045A1.069,1.069,0,0,1,416.4,81.3Z" transform="translate(-414.214 -80.255)" fill="#fff"/>
                <path id="Trazado_99235" data-name="Trazado 99235" d="M424.845,81.3a1.094,1.094,0,1,1-1.092-1.045A1.069,1.069,0,0,1,424.845,81.3Z" transform="translate(-412.827 -80.255)" fill="#fff"/>
                <path id="Trazado_99236" data-name="Trazado 99236" d="M433.291,81.3a1.094,1.094,0,1,1-1.092-1.045A1.069,1.069,0,0,1,433.291,81.3Z" transform="translate(-411.441 -80.255)" fill="#fff"/>
                <path id="Trazado_99237" data-name="Trazado 99237" d="M441.738,81.3a1.094,1.094,0,1,1-1.093-1.045A1.069,1.069,0,0,1,441.738,81.3Z" transform="translate(-410.054 -80.255)" fill="#fff"/>
                <path id="Trazado_99238" data-name="Trazado 99238" d="M450.184,81.3a1.094,1.094,0,1,1-1.092-1.045A1.069,1.069,0,0,1,450.184,81.3Z" transform="translate(-408.667 -80.255)" fill="#fff"/>
                <path id="Trazado_99239" data-name="Trazado 99239" d="M458.63,81.3a1.094,1.094,0,1,1-1.092-1.045A1.069,1.069,0,0,1,458.63,81.3Z" transform="translate(-407.28 -80.255)" fill="#fff"/>
                <path id="Trazado_99240" data-name="Trazado 99240" d="M467.077,81.3a1.094,1.094,0,1,1-1.093-1.045A1.07,1.07,0,0,1,467.077,81.3Z" transform="translate(-405.893 -80.255)" fill="#fff"/>
                <path id="Trazado_99241" data-name="Trazado 99241" d="M475.523,81.3a1.094,1.094,0,1,1-1.092-1.045A1.069,1.069,0,0,1,475.523,81.3Z" transform="translate(-404.507 -80.255)" fill="#fff"/>
                <path id="Trazado_99242" data-name="Trazado 99242" d="M483.969,81.3a1.094,1.094,0,1,1-1.092-1.045A1.069,1.069,0,0,1,483.969,81.3Z" transform="translate(-403.12 -80.255)" fill="#fff"/>
                <path id="Trazado_99243" data-name="Trazado 99243" d="M492.416,81.3a1.094,1.094,0,1,1-1.093-1.045A1.07,1.07,0,0,1,492.416,81.3Z" transform="translate(-401.733 -80.255)" fill="#fff"/>
                <path id="Trazado_99244" data-name="Trazado 99244" d="M500.862,81.3a1.094,1.094,0,1,1-1.093-1.045A1.069,1.069,0,0,1,500.862,81.3Z" transform="translate(-400.347 -80.255)" fill="#fff"/>
              </g>
              <g id="Grupo_53311" data-name="Grupo 53311" transform="translate(0 41.793)">
                <ellipse id="Elipse_3965" data-name="Elipse 3965" cx="1.093" cy="1.045" rx="1.093" ry="1.045" transform="translate(0 0)" fill="#fff"/>
                <path id="Trazado_99245" data-name="Trazado 99245" d="M424.845,88.808a1.094,1.094,0,1,1-1.092-1.045A1.069,1.069,0,0,1,424.845,88.808Z" transform="translate(-412.827 -87.763)" fill="#fff"/>
                <ellipse id="Elipse_3966" data-name="Elipse 3966" cx="1.093" cy="1.045" rx="1.093" ry="1.045" transform="translate(19.666 0)" fill="#fff"/>
                <path id="Trazado_99246" data-name="Trazado 99246" d="M441.738,88.808a1.094,1.094,0,1,1-1.093-1.045A1.069,1.069,0,0,1,441.738,88.808Z" transform="translate(-410.054 -87.763)" fill="#fff"/>
                <path id="Trazado_99247" data-name="Trazado 99247" d="M450.184,88.808a1.094,1.094,0,1,1-1.092-1.045A1.069,1.069,0,0,1,450.184,88.808Z" transform="translate(-408.667 -87.763)" fill="#fff"/>
                <ellipse id="Elipse_3967" data-name="Elipse 3967" cx="1.093" cy="1.045" rx="1.093" ry="1.045" transform="translate(49.165 0)" fill="#fff"/>
                <path id="Trazado_99248" data-name="Trazado 99248" d="M467.077,88.808a1.094,1.094,0,1,1-1.093-1.045A1.07,1.07,0,0,1,467.077,88.808Z" transform="translate(-405.893 -87.763)" fill="#fff"/>
                <ellipse id="Elipse_3968" data-name="Elipse 3968" cx="1.093" cy="1.045" rx="1.093" ry="1.045" transform="translate(68.831 0)" fill="#fff"/>
                <ellipse id="Elipse_3969" data-name="Elipse 3969" cx="1.093" cy="1.045" rx="1.093" ry="1.045" transform="translate(78.664 0)" fill="#fff"/>
                <path id="Trazado_99249" data-name="Trazado 99249" d="M492.416,88.808a1.094,1.094,0,1,1-1.093-1.045A1.07,1.07,0,0,1,492.416,88.808Z" transform="translate(-401.733 -87.763)" fill="#fff"/>
                <path id="Trazado_99250" data-name="Trazado 99250" d="M500.862,88.808a1.094,1.094,0,1,1-1.093-1.045A1.069,1.069,0,0,1,500.862,88.808Z" transform="translate(-400.347 -87.763)" fill="#fff"/>
              </g>
              <g id="Grupo_53312" data-name="Grupo 53312" transform="translate(0 50.152)">
                <ellipse id="Elipse_3970" data-name="Elipse 3970" cx="1.093" cy="1.045" rx="1.093" ry="1.045" fill="#fff"/>
                <path id="Trazado_99251" data-name="Trazado 99251" d="M424.845,96.315a1.094,1.094,0,1,1-1.092-1.044A1.069,1.069,0,0,1,424.845,96.315Z" transform="translate(-412.827 -95.271)" fill="#fff"/>
                <ellipse id="Elipse_3971" data-name="Elipse 3971" cx="1.093" cy="1.045" rx="1.093" ry="1.045" transform="translate(19.666)" fill="#fff"/>
                <path id="Trazado_99252" data-name="Trazado 99252" d="M441.738,96.315a1.094,1.094,0,1,1-1.093-1.044A1.07,1.07,0,0,1,441.738,96.315Z" transform="translate(-410.054 -95.271)" fill="#fff"/>
                <path id="Trazado_99253" data-name="Trazado 99253" d="M450.184,96.315a1.094,1.094,0,1,1-1.092-1.044A1.069,1.069,0,0,1,450.184,96.315Z" transform="translate(-408.667 -95.271)" fill="#fff"/>
                <ellipse id="Elipse_3972" data-name="Elipse 3972" cx="1.093" cy="1.045" rx="1.093" ry="1.045" transform="translate(49.165)" fill="#fff"/>
                <path id="Trazado_99254" data-name="Trazado 99254" d="M467.077,96.315a1.094,1.094,0,1,1-1.093-1.044A1.07,1.07,0,0,1,467.077,96.315Z" transform="translate(-405.893 -95.271)" fill="#fff"/>
                <ellipse id="Elipse_3973" data-name="Elipse 3973" cx="1.093" cy="1.045" rx="1.093" ry="1.045" transform="translate(68.831)" fill="#fff"/>
                <ellipse id="Elipse_3974" data-name="Elipse 3974" cx="1.093" cy="1.045" rx="1.093" ry="1.045" transform="translate(78.664)" fill="#fff"/>
                <path id="Trazado_99255" data-name="Trazado 99255" d="M492.416,96.315a1.094,1.094,0,1,1-1.093-1.044A1.07,1.07,0,0,1,492.416,96.315Z" transform="translate(-401.733 -95.271)" fill="#fff"/>
                <path id="Trazado_99256" data-name="Trazado 99256" d="M500.862,96.315a1.094,1.094,0,1,1-1.093-1.044A1.069,1.069,0,0,1,500.862,96.315Z" transform="translate(-400.347 -95.271)" fill="#fff"/>
              </g>
              <g id="Grupo_53313" data-name="Grupo 53313" transform="translate(0 58.511)">
                <path id="Trazado_99257" data-name="Trazado 99257" d="M416.4,103.823a1.094,1.094,0,1,1-1.093-1.044A1.07,1.07,0,0,1,416.4,103.823Z" transform="translate(-414.214 -102.779)" fill="#fff"/>
                <path id="Trazado_99258" data-name="Trazado 99258" d="M424.845,103.823a1.094,1.094,0,1,1-1.092-1.044A1.069,1.069,0,0,1,424.845,103.823Z" transform="translate(-412.827 -102.779)" fill="#fff"/>
                <path id="Trazado_99259" data-name="Trazado 99259" d="M433.291,103.823a1.094,1.094,0,1,1-1.092-1.044A1.069,1.069,0,0,1,433.291,103.823Z" transform="translate(-411.441 -102.779)" fill="#fff"/>
                <path id="Trazado_99260" data-name="Trazado 99260" d="M441.738,103.823a1.094,1.094,0,1,1-1.093-1.044A1.07,1.07,0,0,1,441.738,103.823Z" transform="translate(-410.054 -102.779)" fill="#fff"/>
                <path id="Trazado_99261" data-name="Trazado 99261" d="M450.184,103.823a1.094,1.094,0,1,1-1.092-1.044A1.069,1.069,0,0,1,450.184,103.823Z" transform="translate(-408.667 -102.779)" fill="#fff"/>
                <path id="Trazado_99262" data-name="Trazado 99262" d="M458.63,103.823a1.094,1.094,0,1,1-1.092-1.044A1.069,1.069,0,0,1,458.63,103.823Z" transform="translate(-407.28 -102.779)" fill="#fff"/>
                <path id="Trazado_99263" data-name="Trazado 99263" d="M467.077,103.823a1.094,1.094,0,1,1-1.093-1.044A1.07,1.07,0,0,1,467.077,103.823Z" transform="translate(-405.893 -102.779)" fill="#fff"/>
                <path id="Trazado_99264" data-name="Trazado 99264" d="M475.523,103.823a1.094,1.094,0,1,1-1.092-1.044A1.069,1.069,0,0,1,475.523,103.823Z" transform="translate(-404.507 -102.779)" fill="#fff"/>
                <path id="Trazado_99265" data-name="Trazado 99265" d="M483.969,103.823a1.094,1.094,0,1,1-1.092-1.044A1.069,1.069,0,0,1,483.969,103.823Z" transform="translate(-403.12 -102.779)" fill="#fff"/>
                <path id="Trazado_99266" data-name="Trazado 99266" d="M492.416,103.823a1.094,1.094,0,1,1-1.093-1.044A1.07,1.07,0,0,1,492.416,103.823Z" transform="translate(-401.733 -102.779)" fill="#fff"/>
                <path id="Trazado_99267" data-name="Trazado 99267" d="M500.862,103.823a1.094,1.094,0,1,1-1.093-1.044A1.069,1.069,0,0,1,500.862,103.823Z" transform="translate(-400.347 -102.779)" fill="#fff"/>
              </g>
              <g id="Grupo_53314" data-name="Grupo 53314" transform="translate(0 66.87)">
                <ellipse id="Elipse_3975" data-name="Elipse 3975" cx="1.093" cy="1.045" rx="1.093" ry="1.045" fill="#fff"/>
                <path id="Trazado_99268" data-name="Trazado 99268" d="M424.845,111.331a1.094,1.094,0,1,1-1.092-1.044A1.07,1.07,0,0,1,424.845,111.331Z" transform="translate(-412.827 -110.287)" fill="#fff"/>
                <ellipse id="Elipse_3976" data-name="Elipse 3976" cx="1.093" cy="1.045" rx="1.093" ry="1.045" transform="translate(19.666)" fill="#fff"/>
                <path id="Trazado_99269" data-name="Trazado 99269" d="M441.738,111.331a1.094,1.094,0,1,1-1.093-1.044A1.07,1.07,0,0,1,441.738,111.331Z" transform="translate(-410.054 -110.287)" fill="#fff"/>
                <path id="Trazado_99270" data-name="Trazado 99270" d="M450.184,111.331a1.094,1.094,0,1,1-1.092-1.044A1.07,1.07,0,0,1,450.184,111.331Z" transform="translate(-408.667 -110.287)" fill="#fff"/>
                <ellipse id="Elipse_3977" data-name="Elipse 3977" cx="1.093" cy="1.045" rx="1.093" ry="1.045" transform="translate(49.165)" fill="#fff"/>
                <path id="Trazado_99271" data-name="Trazado 99271" d="M467.077,111.331a1.094,1.094,0,1,1-1.093-1.044A1.071,1.071,0,0,1,467.077,111.331Z" transform="translate(-405.893 -110.287)" fill="#fff"/>
                <ellipse id="Elipse_3978" data-name="Elipse 3978" cx="1.093" cy="1.045" rx="1.093" ry="1.045" transform="translate(68.831)" fill="#fff"/>
                <ellipse id="Elipse_3979" data-name="Elipse 3979" cx="1.093" cy="1.045" rx="1.093" ry="1.045" transform="translate(78.664)" fill="#fff"/>
                <path id="Trazado_99272" data-name="Trazado 99272" d="M492.416,111.331a1.094,1.094,0,1,1-1.093-1.044A1.071,1.071,0,0,1,492.416,111.331Z" transform="translate(-401.733 -110.287)" fill="#fff"/>
                <path id="Trazado_99273" data-name="Trazado 99273" d="M500.862,111.331a1.094,1.094,0,1,1-1.093-1.044A1.07,1.07,0,0,1,500.862,111.331Z" transform="translate(-400.347 -110.287)" fill="#fff"/>
              </g>
              <g id="Grupo_53315" data-name="Grupo 53315" transform="translate(0 75.228)">
                <path id="Trazado_99274" data-name="Trazado 99274" d="M416.4,118.839a1.094,1.094,0,1,1-1.093-1.045A1.07,1.07,0,0,1,416.4,118.839Z" transform="translate(-414.214 -117.794)" fill="#fff"/>
                <path id="Trazado_99275" data-name="Trazado 99275" d="M424.845,118.839a1.094,1.094,0,1,1-1.092-1.045A1.07,1.07,0,0,1,424.845,118.839Z" transform="translate(-412.827 -117.794)" fill="#fff"/>
                <path id="Trazado_99276" data-name="Trazado 99276" d="M433.291,118.839a1.094,1.094,0,1,1-1.092-1.045A1.07,1.07,0,0,1,433.291,118.839Z" transform="translate(-411.441 -117.794)" fill="#fff"/>
                <path id="Trazado_99277" data-name="Trazado 99277" d="M441.738,118.839a1.094,1.094,0,1,1-1.093-1.045A1.07,1.07,0,0,1,441.738,118.839Z" transform="translate(-410.054 -117.794)" fill="#fff"/>
                <path id="Trazado_99278" data-name="Trazado 99278" d="M450.184,118.839a1.094,1.094,0,1,1-1.092-1.045A1.07,1.07,0,0,1,450.184,118.839Z" transform="translate(-408.667 -117.794)" fill="#fff"/>
                <path id="Trazado_99279" data-name="Trazado 99279" d="M458.63,118.839a1.094,1.094,0,1,1-1.092-1.045A1.07,1.07,0,0,1,458.63,118.839Z" transform="translate(-407.28 -117.794)" fill="#fff"/>
                <path id="Trazado_99280" data-name="Trazado 99280" d="M467.077,118.839a1.094,1.094,0,1,1-1.093-1.045A1.071,1.071,0,0,1,467.077,118.839Z" transform="translate(-405.893 -117.794)" fill="#fff"/>
                <path id="Trazado_99281" data-name="Trazado 99281" d="M475.523,118.839a1.094,1.094,0,1,1-1.092-1.045A1.07,1.07,0,0,1,475.523,118.839Z" transform="translate(-404.507 -117.794)" fill="#fff"/>
                <path id="Trazado_99282" data-name="Trazado 99282" d="M483.969,118.839a1.094,1.094,0,1,1-1.092-1.045A1.07,1.07,0,0,1,483.969,118.839Z" transform="translate(-403.12 -117.794)" fill="#fff"/>
                <path id="Trazado_99283" data-name="Trazado 99283" d="M492.416,118.839a1.094,1.094,0,1,1-1.093-1.045A1.071,1.071,0,0,1,492.416,118.839Z" transform="translate(-401.733 -117.794)" fill="#fff"/>
                <path id="Trazado_99284" data-name="Trazado 99284" d="M500.862,118.839a1.094,1.094,0,1,1-1.093-1.045A1.07,1.07,0,0,1,500.862,118.839Z" transform="translate(-400.347 -117.794)" fill="#fff"/>
              </g>
              <g id="Grupo_53316" data-name="Grupo 53316" transform="translate(0 83.587)">
                <ellipse id="Elipse_3980" data-name="Elipse 3980" cx="1.093" cy="1.045" rx="1.093" ry="1.045" transform="translate(0 0)" fill="#fff"/>
                <path id="Trazado_99285" data-name="Trazado 99285" d="M424.845,126.347a1.094,1.094,0,1,1-1.092-1.045A1.069,1.069,0,0,1,424.845,126.347Z" transform="translate(-412.827 -125.302)" fill="#fff"/>
                <ellipse id="Elipse_3981" data-name="Elipse 3981" cx="1.093" cy="1.045" rx="1.093" ry="1.045" transform="translate(19.666 0)" fill="#fff"/>
                <path id="Trazado_99286" data-name="Trazado 99286" d="M441.738,126.347a1.094,1.094,0,1,1-1.093-1.045A1.069,1.069,0,0,1,441.738,126.347Z" transform="translate(-410.054 -125.302)" fill="#fff"/>
                <path id="Trazado_99287" data-name="Trazado 99287" d="M450.184,126.347a1.094,1.094,0,1,1-1.092-1.045A1.069,1.069,0,0,1,450.184,126.347Z" transform="translate(-408.667 -125.302)" fill="#fff"/>
                <ellipse id="Elipse_3982" data-name="Elipse 3982" cx="1.093" cy="1.045" rx="1.093" ry="1.045" transform="translate(49.165 0)" fill="#fff"/>
                <path id="Trazado_99288" data-name="Trazado 99288" d="M467.077,126.347a1.094,1.094,0,1,1-1.093-1.045A1.07,1.07,0,0,1,467.077,126.347Z" transform="translate(-405.893 -125.302)" fill="#fff"/>
                <ellipse id="Elipse_3983" data-name="Elipse 3983" cx="1.093" cy="1.045" rx="1.093" ry="1.045" transform="translate(68.831 0)" fill="#fff"/>
                <ellipse id="Elipse_3984" data-name="Elipse 3984" cx="1.093" cy="1.045" rx="1.093" ry="1.045" transform="translate(78.664 0)" fill="#fff"/>
                <path id="Trazado_99289" data-name="Trazado 99289" d="M492.416,126.347a1.094,1.094,0,1,1-1.093-1.045A1.07,1.07,0,0,1,492.416,126.347Z" transform="translate(-401.733 -125.302)" fill="#fff"/>
                <path id="Trazado_99290" data-name="Trazado 99290" d="M500.862,126.347a1.094,1.094,0,1,1-1.093-1.045A1.069,1.069,0,0,1,500.862,126.347Z" transform="translate(-400.347 -125.302)" fill="#fff"/>
              </g>
              <g id="Grupo_53317" data-name="Grupo 53317" transform="translate(0 91.947)">
                <ellipse id="Elipse_3985" data-name="Elipse 3985" cx="1.093" cy="1.045" rx="1.093" ry="1.045" transform="translate(0 0)" fill="#fff"/>
                <path id="Trazado_99291" data-name="Trazado 99291" d="M424.845,133.855a1.094,1.094,0,1,1-1.092-1.045A1.069,1.069,0,0,1,424.845,133.855Z" transform="translate(-412.827 -132.81)" fill="#fff"/>
                <ellipse id="Elipse_3986" data-name="Elipse 3986" cx="1.093" cy="1.045" rx="1.093" ry="1.045" transform="translate(19.666 0)" fill="#fff"/>
                <path id="Trazado_99292" data-name="Trazado 99292" d="M441.738,133.855a1.094,1.094,0,1,1-1.093-1.045A1.069,1.069,0,0,1,441.738,133.855Z" transform="translate(-410.054 -132.81)" fill="#fff"/>
                <path id="Trazado_99293" data-name="Trazado 99293" d="M450.184,133.855a1.094,1.094,0,1,1-1.092-1.045A1.069,1.069,0,0,1,450.184,133.855Z" transform="translate(-408.667 -132.81)" fill="#fff"/>
                <ellipse id="Elipse_3987" data-name="Elipse 3987" cx="1.093" cy="1.045" rx="1.093" ry="1.045" transform="translate(49.165 0)" fill="#fff"/>
                <path id="Trazado_99294" data-name="Trazado 99294" d="M467.077,133.855a1.094,1.094,0,1,1-1.093-1.045A1.07,1.07,0,0,1,467.077,133.855Z" transform="translate(-405.893 -132.81)" fill="#fff"/>
                <ellipse id="Elipse_3988" data-name="Elipse 3988" cx="1.093" cy="1.045" rx="1.093" ry="1.045" transform="translate(68.831 0)" fill="#fff"/>
                <ellipse id="Elipse_3989" data-name="Elipse 3989" cx="1.093" cy="1.045" rx="1.093" ry="1.045" transform="translate(78.664 0)" fill="#fff"/>
                <path id="Trazado_99295" data-name="Trazado 99295" d="M492.416,133.855a1.094,1.094,0,1,1-1.093-1.045A1.07,1.07,0,0,1,492.416,133.855Z" transform="translate(-401.733 -132.81)" fill="#fff"/>
                <path id="Trazado_99296" data-name="Trazado 99296" d="M500.862,133.855a1.094,1.094,0,1,1-1.093-1.045A1.069,1.069,0,0,1,500.862,133.855Z" transform="translate(-400.347 -132.81)" fill="#fff"/>
              </g>
            </g>
          </g>
          <line id="Línea_138" data-name="Línea 138" y2="152.75" transform="translate(17.548 36.767)" fill="none" stroke="#31313c" stroke-linecap="round" stroke-width="4" stroke-dasharray="8"/>
        </g>
      </g>
    </g>
    <g id="Grupo_158606" data-name="Grupo 158606" transform="translate(934 404)">
      <rect id="Rectángulo_35372" data-name="Rectángulo 35372" width="23.983" height="86.094" transform="translate(0 128.804)" fill="#ebebeb"/>
      <rect id="Rectángulo_35373" data-name="Rectángulo 35373" width="23.983" height="86.094" transform="translate(154.668 128.804)" fill="#ebebeb"/>
      <rect id="Rectángulo_35374" data-name="Rectángulo 35374" width="23.984" height="48.875" transform="translate(34.262 166.024)" fill="#ebebeb"/>
      <rect id="Rectángulo_35375" data-name="Rectángulo 35375" width="23.983" height="48.875" transform="translate(191.865 166.024)" fill="#ebebeb"/>
      <rect id="Rectángulo_35376" data-name="Rectángulo 35376" width="32.794" height="76.414" transform="translate(71.459 138.485)" fill="#ebebeb"/>
      <path id="Trazado_153067" data-name="Trazado 153067" d="M107.036,164.654V209.24H139.83V132.827Z" transform="translate(4.559 5.658)" fill="#ebebeb"/>
      <rect id="Rectángulo_35377" data-name="Rectángulo 35377" width="23.983" height="86.094" transform="translate(251.328 128.804)" fill="#ebebeb"/>
      <rect id="Rectángulo_35378" data-name="Rectángulo 35378" width="23.984" height="86.094" transform="translate(405.994 128.804)" fill="#ebebeb"/>
      <rect id="Rectángulo_35379" data-name="Rectángulo 35379" width="23.983" height="48.875" transform="translate(285.588 166.024)" fill="#ebebeb"/>
      <rect id="Rectángulo_35380" data-name="Rectángulo 35380" width="23.984" height="48.875" transform="translate(443.192 166.024)" fill="#ebc9b1"/>
      <rect id="Rectángulo_35381" data-name="Rectángulo 35381" width="32.793" height="76.414" transform="translate(322.787 138.485)" fill="#ebebeb"/>
      <path id="Trazado_153068" data-name="Trazado 153068" d="M348.1,164.654V209.24h32.793V132.827Z" transform="translate(14.827 5.658)" fill="#ebebeb"/>
      <g id="Grupo_158605" data-name="Grupo 158605">
        <g id="Grupo_158604" data-name="Grupo 158604" clip-path="url(#clip-path-2)">
          <path id="Trazado_153069" data-name="Trazado 153069" d="M16.291,206.933h9.915c-5.137-12.872-14.928-20.991-15.557-19.806-.42.792,3.6,5.093,5.21,12.945a22.192,22.192,0,0,1,.432,6.861" transform="translate(0.452 7.965)" fill="#7894ba"/>
          <path id="Trazado_153070" data-name="Trazado 153070" d="M22.357,206.782a45.184,45.184,0,0,0-7.983-16.237l-.312.424a44.346,44.346,0,0,1,7.809,15.813Z" transform="translate(0.599 8.116)" fill="#333f4f"/>
          <path id="Trazado_153071" data-name="Trazado 153071" d="M31.388,208.479h1.787c.437-31.218-13.486-57.76-13.486-57.76a112.144,112.144,0,0,0,.7,17.9c1.778,14.688,7.993,32.068,11,39.865" transform="translate(0.835 6.42)" fill="#7894ba"/>
          <path id="Trazado_153072" data-name="Trazado 153072" d="M36.227,208.479c-.838-12.414-5.262-19.669-9.636-29.082A80.112,80.112,0,0,1,19.7,150.719c-1.522,14.167,3.535,39.137,8.1,57.76Z" transform="translate(0.827 6.42)" fill="#333f4f"/>
          <path id="Trazado_153073" data-name="Trazado 153073" d="M36.4,209.183H50.206c3.358-11.019,5.891-16.643,4.436-26.2-1.881-12.351-7.965-15.157-8.229-28.689-.23-11.8,4.217-18.928,3.343-20-1.464-1.788-15.86,15.864-16.972,39.557-.587,12.515,3.155,13.439,3.6,30.428.047,1.759.049,3.383.017,4.9" transform="translate(1.394 5.715)" fill="#7894ba"/>
          <path id="Trazado_153074" data-name="Trazado 153074" d="M52.172,206.747c.635-4.959,1.221-10.088,1.727-15.371a148.461,148.461,0,0,0-5.475,15.371Z" transform="translate(2.063 8.151)" fill="#333f4f"/>
          <path id="Trazado_153075" data-name="Trazado 153075" d="M40.827,179.541a53.6,53.6,0,0,1,2.212,11.4,59.783,59.783,0,0,1-1.351,17.991h.743a60.717,60.717,0,0,0,1.316-18.107,54.693,54.693,0,0,0-2.26-11.659A44.731,44.731,0,0,1,39.5,168.671c-.527-8.732,1.531-18.167,6.116-28.045l-.6-.554c-4.675,10.071-6.771,19.722-6.229,28.684a45.738,45.738,0,0,0,2.032,10.785" transform="translate(1.649 5.966)" fill="#333f4f"/>
          <path id="Trazado_153076" data-name="Trazado 153076" d="M71.407,207.254c4.191-9.171,5.77-20.886,7.347-23.565a8.663,8.663,0,0,1,5.208-4.22c-20.312,2.942-27.364,12.861-29.9,21.843a39.7,39.7,0,0,0-1.135,5.942Z" transform="translate(2.255 7.644)" fill="#7894ba"/>
          <path id="Trazado_153077" data-name="Trazado 153077" d="M60.952,207.16c.147-.415.31-.822.451-1.239,7.277-21.372,16.037-23.22,16.125-23.235l-.09-1c-.373.067-9.213,1.88-16.676,23.8-.192.564-.411,1.117-.611,1.676Z" transform="translate(2.562 7.739)" fill="#333f4f"/>
          <rect id="Rectángulo_35382" data-name="Rectángulo 35382" width="10.863" height="23.831" transform="translate(243.764 191.068)" fill="#ababab"/>
          <path id="Trazado_153078" data-name="Trazado 153078" d="M292.664,210.906V123.2A29.466,29.466,0,0,0,263.2,93.731H227.453A29.466,29.466,0,0,0,197.987,123.2v87.708Z" transform="translate(8.433 3.992)" fill="#31313c"/>
          <path id="Trazado_153079" data-name="Trazado 153079" d="M91.224,209.286c.6-3.5.972-5.657.972-5.657l19.579-27.384,11.956-38.554-34.9-5.931s-16.745,8.575-20.563,15.7c-3.287,6.134-8.3,30.309-11.211,61.827Z" transform="translate(2.43 5.612)" fill="#31313c"/>
          <path id="Trazado_153080" data-name="Trazado 153080" d="M148.853,209.068c-7.9-28.9-19.567-68.891-19.567-68.891l-27.27-3.3L87.535,171.875l26.652,37.193Z" transform="translate(3.728 5.83)" fill="#31313c"/>
          <path id="Trazado_153081" data-name="Trazado 153081" d="M161.823,78.794c-32.941-18.073-55.671-5.161-68.8,5.635a21.367,21.367,0,0,0-6.786,22.955l4.413,19.9L87.633,134.4c21.8,24.912,41.752,8.636,41.752,8.636a39.772,39.772,0,0,0,11.808-9.262c14.142-1.515,13-15.278,12.1-20.311a134.993,134.993,0,0,0,8.533-34.668" transform="translate(3.63 2.972)" fill="#fd9827"/>
          <path id="Trazado_153082" data-name="Trazado 153082" d="M118.679,76.073s-12.2,2.71-7.3,13.682,10.092,16.715,10.092,16.715l13.639-8.263,10.572,3.856s13.514-38.634-27-25.99" transform="translate(4.694 3.132)" fill="#fff"/>
          <path id="Trazado_153083" data-name="Trazado 153083" d="M158.93,78.426l32.7,52.521-11.789,8.424L153.147,99.858Z" transform="translate(6.523 3.34)" fill="#fd9827"/>
          <path id="Trazado_153084" data-name="Trazado 153084" d="M118.278,84.408s-.775,11.127,16.484,13.664c0,0,11.519-6.889,6.258-17.462s-22.742,3.8-22.742,3.8" transform="translate(5.038 3.268)" fill="#fab39b"/>
          <path id="Trazado_153085" data-name="Trazado 153085" d="M141.03,80.709c-5.261-10.573-22.685-4.673-22.685-4.673s-.7,6.491.057,8.828a22.888,22.888,0,0,0,12.218,6.7c5.3.95,9.119-1.319,11.832-5.3a12.544,12.544,0,0,0-1.423-5.558" transform="translate(5.028 3.169)" fill="#de937a"/>
          <path id="Trazado_153086" data-name="Trazado 153086" d="M109.688,65.768s12.749,28.544,28.326,24.318c7.666-2.08,12.007-11.269,12.218-29.218.152-13.022-23.524-35.936-36.526-17.216-8.461,12.18-4.018,22.115-4.018,22.115" transform="translate(4.622 1.558)" fill="#fab39b"/>
          <path id="Trazado_153087" data-name="Trazado 153087" d="M120.309,48.1A13.875,13.875,0,1,1,118.069,28.6,13.875,13.875,0,0,1,120.309,48.1" transform="translate(4.071 1.09)" fill="#383534"/>
          <path id="Trazado_153088" data-name="Trazado 153088" d="M140.742,49.333s7.56.4,9.6,11.578c0,0,6.758-30.217-25.27-24.609s-14.2,34.821-14.2,34.821l6.361.642v-6.48s21.279,2.17,23.507-15.952" transform="translate(4.512 1.517)" fill="#383534"/>
          <path id="Trazado_153089" data-name="Trazado 153089" d="M109.742,73.9c.2,3.792,3.147,6.716,6.573,6.532s6.037-3.409,5.831-7.2S119,66.515,115.574,66.7s-6.036,3.408-5.831,7.2" transform="translate(4.674 2.841)" fill="#fab39b"/>
          <path id="Trazado_153090" data-name="Trazado 153090" d="M115.3,75.813c.281-.987,2-1.578,2.638-1.723l.421-.1-.195-.385a4.625,4.625,0,0,0-2.838-2.681,3.411,3.411,0,0,0-2.616.474l.389.55a2.782,2.782,0,0,1,2.073-.37,3.734,3.734,0,0,1,2.2,1.965c-.776.242-2.373.877-2.716,2.08Z" transform="translate(4.801 3.017)" fill="#38261f"/>
          <path id="Trazado_153091" data-name="Trazado 153091" d="M117.407,76.928a1.956,1.956,0,1,0,1.616,2.245,1.955,1.955,0,0,0-1.616-2.245" transform="translate(4.904 3.276)" fill="#fff"/>
          <path id="Trazado_153092" data-name="Trazado 153092" d="M164.746,116.55l19.639,29.024,14.384-4-21.885-34.723c-4.324,0-9.767,4.29-12.138,9.7" transform="translate(7.017 4.551)" fill="#fab39b"/>
          <path id="Trazado_153093" data-name="Trazado 153093" d="M120.409,42.846l-.754-.538a10.849,10.849,0,0,0,1.922-7.885c-.974-5.947-6.986-8.294-7.048-8.317l.329-.866c.268.1,6.574,2.565,7.633,9.033a11.776,11.776,0,0,1-2.082,8.573" transform="translate(4.878 1.075)" fill="#383534"/>
          <path id="Trazado_153094" data-name="Trazado 153094" d="M123.356,66.7l-.176-.91c1.771-.343,10.8-2.437,14.69-9.968a15.358,15.358,0,0,0,1.556-8.908l.92-.112a16.229,16.229,0,0,1-1.651,9.445c-4.082,7.912-13.492,10.1-15.338,10.453" transform="translate(5.247 1.993)" fill="#383534"/>
          <path id="Trazado_153095" data-name="Trazado 153095" d="M141.471,181.826l-24.554-34.549-2.948-20.251c-7.627-7.34-18.761-1.584-20.924,1.085l5.277,23.132,30.729,36.922a14.052,14.052,0,0,0,2.426-.227l2.269-.572c5.7-1.941,7.726-5.539,7.726-5.539" transform="translate(3.963 5.258)" fill="#fab39b"/>
          <path id="Trazado_153096" data-name="Trazado 153096" d="M166.1,119.681l-3.836-4.508a.377.377,0,0,1-.068-.382c.607-1.591,4.773-11.631,13.088-10.815a.372.372,0,0,1,.275.174l3.115,4.978a.371.371,0,0,1-.174.552c-1.956.663-9.963,3.723-11.8,9.856a.343.343,0,0,1-.6.145" transform="translate(6.907 4.427)" fill="#fff"/>
          <path id="Trazado_153097" data-name="Trazado 153097" d="M93.022,128.377l-1.778-6.962a.354.354,0,0,1,.154-.4c1.7-1.048,12.818-7.418,22.178-.679a.514.514,0,0,1,.219.36l.633,6.884a.394.394,0,0,1-.546.388c-2.727-.786-14.107-3.689-20.066.708a.529.529,0,0,1-.794-.294" transform="translate(3.886 4.995)" fill="#fff"/>
          <path id="Trazado_153098" data-name="Trazado 153098" d="M137.292,80.843a7.139,7.139,0,0,0,2.439-.821l-.368-.6c-.16.1-3.947,2.336-9.319-.937l-.366.6a11,11,0,0,0,7.614,1.756" transform="translate(5.523 3.343)" fill="#38261f"/>
          <path id="Trazado_153099" data-name="Trazado 153099" d="M139.977,76.748a3.3,3.3,0,0,0,2.22-1.954c.322-1.118-.221-2.448-1.616-3.956l-.517.479c1.2,1.294,1.7,2.427,1.458,3.278-.309,1.076-1.713,1.47-1.727,1.473Z" transform="translate(5.954 3.017)" fill="#38261f"/>
          <path id="Trazado_153100" data-name="Trazado 153100" d="M131.463,71.111c.136.863.654,1.5,1.157,1.421s.8-.843.665-1.708-.654-1.5-1.157-1.42-.8.843-.665,1.707" transform="translate(5.598 2.956)" fill="#38261f"/>
          <path id="Trazado_153101" data-name="Trazado 153101" d="M144.341,68.5c.129.841.632,1.462,1.122,1.386s.783-.818.653-1.659-.632-1.462-1.122-1.387-.782.818-.653,1.66" transform="translate(6.147 2.847)" fill="#38261f"/>
          <path id="Trazado_153102" data-name="Trazado 153102" d="M133.2,65.128a3.377,3.377,0,0,0-.841.017,7.2,7.2,0,0,0-4.034,1.771c-2.305,2.021.972.072,2.931-.424A13.033,13.033,0,0,0,132.861,66a1.908,1.908,0,0,0,.691-.375c.177-.192.075-.335-.132-.433a.907.907,0,0,0-.221-.067" transform="translate(5.432 2.773)" fill="#383534"/>
          <path id="Trazado_153103" data-name="Trazado 153103" d="M143.228,63.222a1.528,1.528,0,0,1,.509-.205,4.2,4.2,0,0,1,3.088.489c2.149,1.155-.554.316-1.914.4a6.8,6.8,0,0,1-1.147-.006,1.2,1.2,0,0,1-.556-.146.272.272,0,0,1-.087-.411.469.469,0,0,1,.106-.116" transform="translate(6.094 2.679)" fill="#383534"/>
          <rect id="Rectángulo_35383" data-name="Rectángulo 35383" width="0.927" height="12.699" transform="translate(114.52 112.057) rotate(-8.284)" fill="#383534"/>
          <path id="Trazado_153104" data-name="Trazado 153104" d="M120.682,133.389c-.22,0-.339,0-.349,0l.017-.927a106.51,106.51,0,0,0,19.428-1.918l.174.91a109.685,109.685,0,0,1-19.269,1.937" transform="translate(5.125 5.56)" fill="#383534"/>
          <rect id="Rectángulo_35384" data-name="Rectángulo 35384" width="5.877" height="0.926" transform="translate(160.794 104.132) rotate(-24.258)" fill="#383534"/>
          <path id="Trazado_153105" data-name="Trazado 153105" d="M105.934,52.528s-1.869-12.2,16.732-15.944c0,0-19.256-1.952-16.732,15.944" transform="translate(4.502 1.556)" fill="#7894ba"/>
          <path id="Trazado_153106" data-name="Trazado 153106" d="M217.852,49.692c0,.445-2.311,21.485,1.123,23.522s6.082-22.863,6.082-22.863Z" transform="translate(9.247 2.117)" fill="#704c44"/>
          <path id="Trazado_153107" data-name="Trazado 153107" d="M215.839,76.385a5.206,5.206,0,1,0,4.079-6.562,5.477,5.477,0,0,0-4.079,6.562" transform="translate(9.189 2.971)" fill="#de937a"/>
          <rect id="Rectángulo_35385" data-name="Rectángulo 35385" width="2.852" height="0.927" transform="translate(226.735 76.238) rotate(-10.692)" fill="#fff"/>
          <path id="Trazado_153108" data-name="Trazado 153108" d="M284.4,206.812l-1.6-16.952-77.907,2.585.049,14.367Z" transform="translate(8.727 8.087)" fill="#383534"/>
          <path id="Trazado_153109" data-name="Trazado 153109" d="M200.858,210.682h84.315L282.9,184.166s14.549-59.3,11.213-62.807-23.412-19.389-44.632-22.376L232.7,100.3s-28.628,9.317-34.633,18.675,3.039,31.916,3.039,31.916Z" transform="translate(8.349 4.216)" fill="#b58868"/>
          <path id="Trazado_153110" data-name="Trazado 153110" d="M227.318,110.853l7.912,20.887,13.253-20.03-11.724-4.1Z" transform="translate(9.682 4.583)" fill="#fff"/>
          <path id="Trazado_153111" data-name="Trazado 153111" d="M231.408,111.272s.647,7.261,2.037,7.776c1.611.6,4.666,1.281,6.4-.1s2.718-7.43,2.718-7.43l-5.65-2.7Z" transform="translate(9.856 4.635)" fill="#383534"/>
          <path id="Trazado_153112" data-name="Trazado 153112" d="M234.5,117.336l-3.1,4.328,3.661,9.663,6.228-9.415-2.79-4.326Z" transform="translate(9.856 4.998)" fill="#383534"/>
          <path id="Trazado_153113" data-name="Trazado 153113" d="M291.912,120.445s7.594,40.913,11.837,56.436a4.676,4.676,0,0,1-3.543,5.81l-47.44,10.051-4.968-21.8,24.838-6.359Z" transform="translate(10.555 5.13)" fill="#b58868"/>
          <rect id="Rectángulo_35386" data-name="Rectángulo 35386" width="0.927" height="18.354" transform="translate(283.505 153.183) rotate(-13.95)" fill="#383534"/>
          <rect id="Rectángulo_35387" data-name="Rectángulo 35387" width="21.607" height="0.926" transform="matrix(0.928, -0.373, 0.373, 0.928, 275.208, 176.084)" fill="#383534"/>
          <path id="Trazado_153114" data-name="Trazado 153114" d="M269.454,187.765H180.94l-3.612-51.613a3.009,3.009,0,0,1,2.869-3.324h90a3.008,3.008,0,0,1,2.869,3.324Z" transform="translate(7.553 5.658)" fill="#b3b3b3"/>
          <path id="Trazado_153115" data-name="Trazado 153115" d="M234.69,163.8c0,2.555-4.924,4.626-11,4.626s-11-2.071-11-4.626,4.924-4.626,11-4.626,11,2.071,11,4.626" transform="translate(9.059 6.78)" fill="#d4d4d4"/>
          <path id="Trazado_153116" data-name="Trazado 153116" d="M180.2,135.746h90a2.906,2.906,0,0,1,2.744,2.2l.125-1.792a3.009,3.009,0,0,0-2.869-3.324h-90a3.008,3.008,0,0,0-2.869,3.324l.125,1.792a2.906,2.906,0,0,1,2.744-2.2" transform="translate(7.553 5.658)" fill="#d4d4d4"/>
          <path id="Trazado_153117" data-name="Trazado 153117" d="M223.243,102.835s.321-6.478,15.834-6.483,15.467,3.976,15.467,3.976,1.529,8.979-5.7,14.119l-11.583-5.1-10.188,4.546s-4.152-5.347-3.83-11.058" transform="translate(9.508 4.104)" fill="#fff"/>
          <path id="Trazado_153118" data-name="Trazado 153118" d="M247.433,86.876v16.9a1.757,1.757,0,0,1-.665,1.388c-1.965,1.536-8.1,5.293-15.884-.032a1.767,1.767,0,0,1-.751-1.458V92.239Z" transform="translate(9.802 3.7)" fill="#fab39b"/>
          <path id="Trazado_153119" data-name="Trazado 153119" d="M230.133,97.789c3.866.253,12.917-.1,17.3-8.2V86.875l-17.3,5.363Z" transform="translate(9.802 3.7)" fill="#de937a"/>
          <path id="Trazado_153120" data-name="Trazado 153120" d="M219.891,56.806s-4.851,39.852,11.6,40.532c11.7.485,16.661-2.14,19.229-12,1.81-6.947,3.083-18.362,1.385-25.609-.7-2.968,3.052-6.92.874-9.053-4.979-4.88-13.36-7.417-20.11-6.552-7.143.915-11.978,5.5-12.977,12.683" transform="translate(9.337 1.872)" fill="#fab39b"/>
          <path id="Trazado_153121" data-name="Trazado 153121" d="M250.484,72.738,249.276,59.4s-22.053,4.6-29.878-1.867c-15.9-13.143.445-29.115,25.283-13.312,5.737,3.65,10.659,5.084,12.607,6.244a5.154,5.154,0,0,1,2.511,3.9c.335,3.348.188,19.948-2.548,25.853Z" transform="translate(9.077 1.603)" fill="#704c44"/>
          <path id="Trazado_153122" data-name="Trazado 153122" d="M259.276,76.341c-.636,3.528-3.736,5.923-6.924,5.349s-5.255-3.9-4.618-7.431,3.736-5.923,6.923-5.347,5.256,3.9,4.619,7.43" transform="translate(10.547 2.932)" fill="#fab39b"/>
          <path id="Trazado_153123" data-name="Trazado 153123" d="M254.069,77.052c-.444-.861-2.146-1.087-2.763-1.1l-.408-.009.108-.393a4.367,4.367,0,0,1,2.126-3.011,3.222,3.222,0,0,1,2.508-.05l-.257.583a2.62,2.62,0,0,0-1.987.045,3.525,3.525,0,0,0-1.665,2.229c.763.078,2.359.367,2.9,1.417Z" transform="translate(10.687 3.078)" fill="#38261f"/>
          <path id="Trazado_153124" data-name="Trazado 153124" d="M235.512,64.447c.581-.888,2.861-.33,4.127.207,1.593.678,2.982,1.924,2.8,2.3-.126.254-.866-.12-2.563-.234-2.3-.155-3.087.389-3.833-.241a1.767,1.767,0,0,1-.527-2.03" transform="translate(10.025 2.725)" fill="#704c44"/>
          <path id="Trazado_153125" data-name="Trazado 153125" d="M226.042,64.107c-.655-.822-2.853-.059-4.05.59-1.508.816-2.761,2.175-2.542,2.525.149.239.843-.2,2.505-.469,2.256-.368,3.081.1,3.756-.6a1.75,1.75,0,0,0,.331-2.051" transform="translate(9.346 2.715)" fill="#704c44"/>
          <path id="Trazado_153126" data-name="Trazado 153126" d="M242,77.953H234.4a2.008,2.008,0,0,1-2.006-2.006V71.332a2.009,2.009,0,0,1,2.006-2.006H242A2.009,2.009,0,0,1,244,71.332v4.616A2.008,2.008,0,0,1,242,77.953m-7.591-7.7a1.081,1.081,0,0,0-1.079,1.079v4.616a1.08,1.08,0,0,0,1.079,1.079H242a1.08,1.08,0,0,0,1.079-1.079V71.332A1.081,1.081,0,0,0,242,70.253Z" transform="translate(9.899 2.953)" fill="#fff"/>
          <path id="Trazado_153127" data-name="Trazado 153127" d="M224.731,77.953h-5.737a2.008,2.008,0,0,1-2.006-2.006V71.332a2.009,2.009,0,0,1,2.006-2.006h5.737a2.009,2.009,0,0,1,2.006,2.006v4.616a2.008,2.008,0,0,1-2.006,2.006m-5.737-7.7a1.081,1.081,0,0,0-1.079,1.079v4.616a1.08,1.08,0,0,0,1.079,1.079h5.737a1.08,1.08,0,0,0,1.079-1.079V71.332a1.081,1.081,0,0,0-1.079-1.079Z" transform="translate(9.242 2.953)" fill="#fff"/>
          <path id="Trazado_153128" data-name="Trazado 153128" d="M231.247,85.493a8.081,8.081,0,0,1-2.857-.625l.342-.721c.192.09,4.749,2.149,10.409-2.216l.489.632a12.507,12.507,0,0,1-8.383,2.93" transform="translate(9.728 3.49)" fill="#38261f"/>
          <path id="Trazado_153129" data-name="Trazado 153129" d="M228.794,80.064a3.751,3.751,0,0,1-2.749-1.932c-.5-1.222-.054-2.792,1.335-4.669l.642.476c-1.192,1.61-1.621,2.953-1.24,3.885a3,3,0,0,0,2.134,1.449Z" transform="translate(9.62 3.129)" fill="#38261f"/>
          <path id="Trazado_153130" data-name="Trazado 153130" d="M238.4,73.8c-.193.975-.809,1.673-1.377,1.562s-.873-.994-.68-1.968.809-1.673,1.377-1.562.873.994.68,1.968" transform="translate(10.064 3.059)" fill="#38261f"/>
          <path id="Trazado_153131" data-name="Trazado 153131" d="M223.677,73.5c-.175.888-.737,1.525-1.255,1.423s-.794-.9-.619-1.793.737-1.525,1.255-1.423.794.9.619,1.793" transform="translate(9.445 3.054)" fill="#38261f"/>
          <path id="Trazado_153132" data-name="Trazado 153132" d="M232.888,73.505c-4-2.872-6.679-.172-6.791-.056l-.671-.639c.033-.034,3.333-3.41,8-.057Z" transform="translate(9.602 3.036)" fill="#fff"/>
          <rect id="Rectángulo_35388" data-name="Rectángulo 35388" width="6.713" height="0.926" transform="translate(253.284 75.727) rotate(-19.19)" fill="#fff"/>
          <path id="Trazado_153133" data-name="Trazado 153133" d="M249,48.794c-2.835-3.779-9.073-10.381-18.986-12.13a28.421,28.421,0,0,0-10.506.147l-.181-.909a29.312,29.312,0,0,1,10.847-.15c10.229,1.8,16.65,8.6,19.567,12.485Z" transform="translate(9.342 1.504)" fill="#704c44"/>
          <path id="Trazado_153134" data-name="Trazado 153134" d="M231.31,87.4s-6.4,6.278-10.581-3.754c0,0-1.16,10.042,4.18,15.588,3.549,3.686,20.795,5,25.471-2.065s2.654-20.013,2.654-20.013l-4.388,1.027a3.491,3.491,0,0,0-2,2.433c-.858,3.772-3.788,12.118-12.3,6.562Z" transform="translate(9.397 3.286)" fill="#704c44"/>
          <path id="Trazado_153135" data-name="Trazado 153135" d="M225.752,99.557c-2.175-1.491-4.335-3.263-5.409-6.122a11.626,11.626,0,0,1,.383-8.913l.823.426a10.8,10.8,0,0,0-.337,8.161c.983,2.618,3.014,4.278,5.064,5.682Z" transform="translate(9.355 3.6)" fill="#704c44"/>
          <path id="Trazado_153136" data-name="Trazado 153136" d="M322.556,2s16.285-8.073,26.96,8.189,23.139,53.2,23.139,53.2-29.006,1.636-58.032-6.485c0,0-9.155-28.469-7.715-43.211S322.556,2,322.556,2" transform="translate(13.066 0)" fill="#704c44"/>
          <path id="Trazado_153137" data-name="Trazado 153137" d="M379.971,207.322c.376-9.454-.358-18.134-3.307-23.322-9.356-16.459-32.285,5.437-32.285,5.437s.223,7.588.9,17.885Z" transform="translate(14.668 7.576)" fill="#fab39b"/>
          <path id="Trazado_153138" data-name="Trazado 153138" d="M346.776,209.164a500.238,500.238,0,0,0,24.841-69.886L330.6,134.639c-9.281,20.782-14.965,50.82-18.959,74.525Z" transform="translate(13.274 5.735)" fill="#fab39b"/>
          <path id="Trazado_153139" data-name="Trazado 153139" d="M391.171,210.12c-2.677-25-8.136-73.605-10.6-78.368-7.849-15.188-20.783-19.566-20.783-19.566s-20.463,16-35.885,4.2v18.385s-14.6,40.77-18.765,75.351Z" transform="translate(12.997 4.778)" fill="#31313c"/>
          <path id="Trazado_153140" data-name="Trazado 153140" d="M371.3,59.127h0c2.1.793,4.243,1.9,5.416,3.81,7.729,12.615,26.248,42.957,26.248,42.957l-12.176,11.391-26.751-34.1s-12.294-14.321,7.263-24.06" transform="translate(15.343 2.518)" fill="#785549"/>
          <path id="Trazado_153141" data-name="Trazado 153141" d="M312.7,55.464s-5.5,3.266-5.95,15.256-4.177,37.185-4.177,37.185l-26.809,17.81s7.913,3.176,9.969,10.541l31.058-15.205a3.668,3.668,0,0,0,2.03-2.867l5-42.625Z" transform="translate(11.746 2.362)" fill="#785549"/>
          <path id="Trazado_153142" data-name="Trazado 153142" d="M276.914,121.422l4.334-3.472a.335.335,0,0,1,.354-.045c1.436.671,10.482,5.241,9.333,13.245a.357.357,0,0,1-.173.256l-4.733,2.75a.336.336,0,0,1-.5-.2c-.518-1.928-2.953-9.841-8.513-11.951a.34.34,0,0,1-.1-.585" transform="translate(11.789 5.021)" fill="#fff"/>
          <path id="Trazado_153143" data-name="Trazado 153143" d="M311.194,112.69a11.567,11.567,0,0,0-9.708-6.444h0l-.007-.927a12.5,12.5,0,0,1,10.541,6.948Z" transform="translate(12.841 4.486)" fill="#383534"/>
          <path id="Trazado_153144" data-name="Trazado 153144" d="M311.192,55.675s34.995-15.239,67.024,6.58L367.54,77.549s-.593,26.643-8.3,38.826c0,0-16.014,16.22-35.588,2.635,0,0-11.269-23.948-10.083-34.188Z" transform="translate(13.255 2.151)" fill="#785549"/>
          <path id="Trazado_153145" data-name="Trazado 153145" d="M287.656,134.092c.236-.466,3.129-4.07,3.057-4.619-.815-6.213-14.55-11.024-17.775-5.686a16.216,16.216,0,0,0-2.161,7c-.169,4.719,2.971,3.279,2.971,3.279s-.238,2.475,1.621,3.1c2.316.782,1.923-2.212,1.923-2.212s-1.216,3.805.205,5.439c1.214,1.395,2.715-1.123,3-1.406,0,0,.08,2.6,2.9,1.122,2.777-1.454,3.449-4.417,4.259-6.017" transform="translate(11.533 5.175)" fill="#fab39b"/>
          <path id="Trazado_153146" data-name="Trazado 153146" d="M274.1,134.028l-.912-.164.99-5.513a4.086,4.086,0,0,1,.51-1.37l1.648-2.762.8.475-1.648,2.761a3.154,3.154,0,0,0-.394,1.06Z" transform="translate(11.636 5.291)" fill="#383534"/>
          <path id="Trazado_153147" data-name="Trazado 153147" d="M277.1,136.96l-.886-.276,1.874-6a3.994,3.994,0,0,1,.614-1.206l2.344-3.124.74.556-2.344,3.125a3.078,3.078,0,0,0-.47.926Z" transform="translate(11.765 5.382)" fill="#383534"/>
          <path id="Trazado_153148" data-name="Trazado 153148" d="M280.557,138.821l-.872-.316,1.9-5.224a3.889,3.889,0,0,1,.591-1.076l2.435-3.136.731.568-2.435,3.136a3.029,3.029,0,0,0-.45.823Z" transform="translate(11.913 5.497)" fill="#383534"/>
          <path id="Trazado_153149" data-name="Trazado 153149" d="M289,126.923s2.192,5.064,4.308,5.288c5.187.548,3.671,2.465,1.414,3.1-1.44.407-1.571.063-3.755-.133a14.792,14.792,0,0,0-5.06.808Z" transform="translate(12.178 5.406)" fill="#fab39b"/>
          <path id="Trazado_153150" data-name="Trazado 153150" d="M318.749,107.541l-2.921-4.95a9.11,9.11,0,0,1-5.439-5.613c-2.135-6.448,2.573-15.05,3.453-16.571l-4.113-8.227.828-.414,4.34,8.681-.131.219c-.057.093-5.664,9.482-3.5,16.023a8.263,8.263,0,0,0,5.053,5.106l.145.058,3.081,5.219Z" transform="translate(13.192 3.057)" fill="#383534"/>
          <path id="Trazado_153151" data-name="Trazado 153151" d="M364.685,83.957c-1.364-1.738-5.135-6.307-5.172-6.353l.714-.59c.04.046,3.816,4.624,5.187,6.37Z" transform="translate(15.313 3.28)" fill="#383534"/>
          <path id="Trazado_153152" data-name="Trazado 153152" d="M329,44.519l1.084,7.783s-4.866,4.451-2.2,6.007,8.884,3.127,18.227-6.525l-3.971-22.74Z" transform="translate(13.932 1.237)" fill="#fab39b"/>
          <path id="Trazado_153153" data-name="Trazado 153153" d="M330.418,1.514c-22.388-.4-18.752,24.766-18.711,25.4.769,11.746,9.614,24.362,14.857,23.463,15.882-2.725,15.2-18.828,15.2-18.828.161-1,4.583-11.531,4.595-12.571.131-12.182-2.86-17.23-15.943-17.462" transform="translate(13.266 0.064)" fill="#fab39b"/>
          <path id="Trazado_153154" data-name="Trazado 153154" d="M348.218,30.169c-.185,3.431-2.848,6.077-5.947,5.91s-5.462-3.085-5.278-6.516,2.848-6.077,5.948-5.91,5.462,3.085,5.277,6.516" transform="translate(14.353 1.007)" fill="#fab39b"/>
          <path id="Trazado_153155" data-name="Trazado 153155" d="M343.364,31.452c-.525-.765-2.17-.779-2.759-.719l-.389.04.056-.387a4.184,4.184,0,0,1,1.663-3.116,3.09,3.09,0,0,1,2.38-.346l-.175.585a2.505,2.505,0,0,0-1.884.279,3.379,3.379,0,0,0-1.318,2.318c.735-.016,2.287.069,2.928,1Z" transform="translate(14.491 1.142)" fill="#38261f"/>
          <path id="Trazado_153156" data-name="Trazado 153156" d="M340.969,32.909a1.77,1.77,0,1,1-1.463,2.032,1.769,1.769,0,0,1,1.463-2.032" transform="translate(14.46 1.401)" fill="#fff"/>
          <path id="Trazado_153157" data-name="Trazado 153157" d="M317.924,9.824s2.966,14.789,22.033,11.882l.834,4.536,4.347-1.464s5.479-11.646.091-18.658C341.815,1.679,334.4,1.12,333.138,1a21.658,21.658,0,0,0-3.163-.055c-2.316.109-7.929.337-12.8,4.04-7.569,5.75-8.263,15.793-8.4,17.645,0,0,5.821,2.733,9.155-12.809" transform="translate(13.151 0.039)" fill="#704c44"/>
          <path id="Trazado_153158" data-name="Trazado 153158" d="M325.538,37.89a7.122,7.122,0,0,1-2.573,0l.158-.685c.181.041,4.486.956,8.533-3.859l.539.451a11,11,0,0,1-6.657,4.092" transform="translate(13.756 1.42)" fill="#38261f"/>
          <path id="Trazado_153159" data-name="Trazado 153159" d="M321.377,34.86a3.3,3.3,0,0,1-2.726-1.145c-.662-.956-.571-2.391.271-4.263l.641.288c-.723,1.608-.838,2.843-.336,3.572a2.64,2.64,0,0,0,2.106.847Z" transform="translate(13.554 1.254)" fill="#38261f"/>
          <path id="Trazado_153160" data-name="Trazado 153160" d="M327.657,26.94c.018.874-.382,1.591-.89,1.6s-.937-.69-.954-1.565.382-1.591.89-1.6.936.69.954,1.564" transform="translate(13.877 1.081)" fill="#38261f"/>
          <path id="Trazado_153161" data-name="Trazado 153161" d="M315.8,28.554c.016.8-.347,1.45-.811,1.459s-.854-.629-.87-1.425.347-1.45.811-1.459.854.629.87,1.425" transform="translate(13.379 1.156)" fill="#38261f"/>
          <path id="Trazado_153162" data-name="Trazado 153162" d="M324.271,21.638a3.346,3.346,0,0,1,.8-.252,7.2,7.2,0,0,1,4.387.393c2.83,1.179-.9.377-2.912.532a13.288,13.288,0,0,1-1.68.049,1.883,1.883,0,0,1-.774-.136c-.229-.125-.178-.293-.013-.451a.887.887,0,0,1,.188-.134" transform="translate(13.798 0.903)" fill="#704c44"/>
          <path id="Trazado_153163" data-name="Trazado 153163" d="M314.776,23.446a1.652,1.652,0,0,0-.547-.033,4.259,4.259,0,0,0-2.755,1.277c-1.651,1.587.626.116,1.935-.194a7.334,7.334,0,0,0,1.081-.325,1.2,1.2,0,0,0,.476-.279.231.231,0,0,0-.053-.375.476.476,0,0,0-.138-.07" transform="translate(13.242 0.997)" fill="#704c44"/>
          <path id="Trazado_153164" data-name="Trazado 153164" d="M339.076,37.566A16.192,16.192,0,0,1,329.4,47.757l.484,3.471c8.239-3.266,9.194-13.662,9.194-13.662" transform="translate(14.03 1.6)" fill="#de937a"/>
          <path id="Trazado_153165" data-name="Trazado 153165" d="M338.663,101.044a15.063,15.063,0,0,1-3.555-.386l.247-.893c.5.14,12.426,3.247,17.834-10.37l.861.343c-3.857,9.707-11.06,11.306-15.387,11.306" transform="translate(14.273 3.808)" fill="#383534"/>
          <path id="Trazado_153166" data-name="Trazado 153166" d="M390.69,95.309s-18.566,7.124-28.534,8.645l7.883,10.984s.414.834,8.106,2.345c13.581,2.668,24.381,1.66,26.568-5.547,2.643-8.711-14.024-16.427-14.024-16.427" transform="translate(15.425 4.06)" fill="#785549"/>
          <path id="Trazado_153167" data-name="Trazado 153167" d="M364.19,119.19c.521-.09,5.933-3.011,6.249-3.879.414-1.134,3.353-11.942-9.48-11.3-3.884.194-10.678,4.133-11.442,4.616-3.841,2.426-.892,3.677-.892,3.677s-4.056,1.617-3.35,3.229c.879,2.008,5.672-.139,5.672-.139s-3.639,1.56-2.445,3.184c.987,1.344,5.27-.289,5.681-.246,0,0-1.449,2.069,1.806,2.386,2.56.25,6.413-1.221,8.2-1.527" transform="translate(14.703 4.429)" fill="#fab39b"/>
          <path id="Trazado_153168" data-name="Trazado 153168" d="M348.671,112.576l-.36-.854,9.8-4.111.36.854Z" transform="translate(14.836 4.583)" fill="#383534"/>
          <rect id="Rectángulo_35389" data-name="Rectángulo 35389" width="10.032" height="0.927" transform="matrix(0.918, -0.396, 0.396, 0.918, 365.467, 119.402)" fill="#383534"/>
          <rect id="Rectángulo_35390" data-name="Rectángulo 35390" width="7.92" height="0.927" transform="translate(368.72 122.33) rotate(-21.024)" fill="#383534"/>
          <path id="Trazado_153169" data-name="Trazado 153169" d="M365.316,104.9a14.326,14.326,0,0,1-6.023-4.7c-3.011-4.453-4.523-4.736-4.662-2.962a5.533,5.533,0,0,0,1.064,3.923c1.9,2.221-.536,5.005-.536,5.005s9.253.109,10.157-1.271" transform="translate(15.104 4.098)" fill="#fab39b"/>
          <path id="Trazado_153170" data-name="Trazado 153170" d="M394.394,101.1c-10.7-5.514-16.547-1.139-16.605-1.095l-.571-.73c.253-.2,6.33-4.8,17.6,1Z" transform="translate(16.067 4.147)" fill="#383534"/>
          <path id="Trazado_153171" data-name="Trazado 153171" d="M345.943,51.063l-.334.071a30.646,30.646,0,0,0-14.614,7.618,10.142,10.142,0,0,1,8.417,5.644L353.8,52.3s-.853-6.306-8.736-6.3Z" transform="translate(14.098 1.96)" fill="#fff"/>
          <path id="Trazado_153172" data-name="Trazado 153172" d="M331.366,58.658l-1.081-7.171-.492-3.31s-8.552,4.764-7.441,13.16c0,0,5.106-4.485,9.014-2.678" transform="translate(13.726 2.052)" fill="#fff"/>
          <path id="Trazado_153173" data-name="Trazado 153173" d="M362.351,102.911l5.042-2.327a.332.332,0,0,1,.355.042c1.232,1,8.914,7.608,5.874,15.1a.358.358,0,0,1-.229.207l-5.256,1.531a.337.337,0,0,1-.437-.313c-.039-2-.5-10.262-5.388-13.649a.339.339,0,0,1,.04-.592" transform="translate(15.425 4.283)" fill="#fff"/>
          <path id="Trazado_153174" data-name="Trazado 153174" d="M305.675,14.922A11.408,11.408,0,0,1,310.1,2.868c4.772-3.421,11.808-3.167,16.733.6l-.563.736C321.665.679,315.09.432,310.644,3.621a10.486,10.486,0,0,0-4.069,11.08Z" transform="translate(13.005 0.02)" fill="#704c44"/>
          <path id="Trazado_153175" data-name="Trazado 153175" d="M370.3,53.522c-2.341-5.607-4.881-11.236-7.552-16.732-11.219-23.083-16.2-26.324-18.074-27.543-5.325-3.461-11.913-5.083-19.6-4.819l-.032-.927c7.884-.265,14.654,1.4,20.139,4.968,1.934,1.259,7.072,4.6,18.4,27.915,2.679,5.511,5.227,11.157,7.573,16.779Z" transform="translate(13.844 0.148)" fill="#704c44"/>
          <path id="Trazado_153176" data-name="Trazado 153176" d="M134.646,206.542l.563-10.354H120.551v10.354Z" transform="translate(5.135 8.356)" fill="#96665b"/>
          <path id="Trazado_153177" data-name="Trazado 153177" d="M393.585,206.542V196.188H378.927l.563,10.354Z" transform="translate(16.14 8.356)" fill="#96665b"/>
          <path id="Trazado_153178" data-name="Trazado 153178" d="M412.64,206.391v-6.647H395.719l.389,6.647Z" transform="translate(16.855 8.508)" fill="#96665b"/>
          <path id="Trazado_153179" data-name="Trazado 153179" d="M117.957,206.391l.388-6.647h-16.92v6.647Z" transform="translate(4.32 8.508)" fill="#96665b"/>
          <rect id="Rectángulo_35391" data-name="Rectángulo 35391" width="323.75" height="19.771" transform="translate(105.745 193.424)" fill="#31313c"/>
          <path id="Trazado_153180" data-name="Trazado 153180" d="M142.948,186.534c-.084-.611.808-6.227.369-6.712-4.97-5.49-21.555-.93-21.1,6.425a19.165,19.165,0,0,0,2.6,8.253c3.008,4.7,5.092,1.19,5.092,1.19s1.434,2.565,3.663,1.926c2.776-.8.382-3.443.382-3.443s1.376,4.515,3.857,5.148c2.118.54,1.884-2.917,1.973-3.386,0,0,2.422,2.721,3.57-.858.862-2.686-.122-6.444-.41-8.543" transform="translate(5.205 7.556)" fill="#fab39b"/>
          <path id="Trazado_153181" data-name="Trazado 153181" d="M129.324,195.576l-2.743-6.023a4.714,4.714,0,0,1-.42-1.646l.142-3.329.926.04-.142,3.278a3.9,3.9,0,0,0,.338,1.274l2.743,6.023Z" transform="translate(5.374 7.862)" fill="#383534"/>
          <path id="Trazado_153182" data-name="Trazado 153182" d="M134.112,196.362l-2.217-7.1a4.594,4.594,0,0,1-.212-1.556l.177-4.611.926.035-.177,4.612a3.708,3.708,0,0,0,.17,1.242l2.217,7.1Z" transform="translate(5.609 7.799)" fill="#383534"/>
          <path id="Trazado_153183" data-name="Trazado 153183" d="M138.713,195.8l-1.669-6.354a4.6,4.6,0,0,1-.147-1.416l.259-4.686.926.051-.259,4.685a3.621,3.621,0,0,0,.118,1.129l1.669,6.354Z" transform="translate(5.831 7.809)" fill="#383534"/>
          <path id="Trazado_153184" data-name="Trazado 153184" d="M139.867,178.063s5.146,1.474,6.111,2.364a11.4,11.4,0,0,0,5.931,1.892c3.41-.222,3.93,2.482-.432,3.321-3.315.637-4.831-.46-6.24-.312a8.7,8.7,0,0,0-3.041,1.179Z" transform="translate(5.957 7.584)" fill="#fab39b"/>
          <path id="Trazado_153185" data-name="Trazado 153185" d="M134.646,206.189l.093-1.7H120.551v1.7Z" transform="translate(5.135 8.71)" fill="#704c44"/>
          <path id="Trazado_153186" data-name="Trazado 153186" d="M393.565,206.189v-1.7H379.378l.093,1.7Z" transform="translate(16.159 8.71)" fill="#704c44"/>
          <path id="Trazado_153187" data-name="Trazado 153187" d="M412.629,206.189v-1.7H396l.1,1.7Z" transform="translate(16.867 8.71)" fill="#704c44"/>
          <path id="Trazado_153188" data-name="Trazado 153188" d="M117.957,206.189l.1-1.7H101.425v1.7Z" transform="translate(4.32 8.71)" fill="#704c44"/>
          <rect id="Rectángulo_35392" data-name="Rectángulo 35392" width="59.507" height="15.812" transform="translate(363.956 177.611)" fill="#6c8ecc"/>
          <path id="Trazado_153189" data-name="Trazado 153189" d="M360.391,178.085a3.595,3.595,0,1,1-3.595-3.595,3.6,3.6,0,0,1,3.595,3.595" transform="translate(15.044 7.432)" fill="#383534"/>
          <circle id="Elipse_4779" data-name="Elipse 4779" cx="3.595" cy="3.595" r="3.595" transform="translate(368.245 181.922)" fill="none" stroke="#fff" stroke-miterlimit="10" stroke-width="1"/>
          <rect id="Rectángulo_35393" data-name="Rectángulo 35393" width="12.03" height="4.753" transform="translate(405.721 183.046)" fill="#fff"/>
          <rect id="Rectángulo_35394" data-name="Rectángulo 35394" width="59.507" height="15.812" transform="translate(363.956 145.986)" fill="#ffc375"/>
          <path id="Trazado_153190" data-name="Trazado 153190" d="M360.391,147.752a3.595,3.595,0,1,1-3.595-3.595,3.6,3.6,0,0,1,3.595,3.595" transform="translate(15.044 6.14)" fill="#383534"/>
          <circle id="Elipse_4780" data-name="Elipse 4780" cx="3.595" cy="3.595" r="3.595" transform="translate(368.245 150.297)" fill="none" stroke="#fff" stroke-miterlimit="10" stroke-width="1"/>
          <rect id="Rectángulo_35395" data-name="Rectángulo 35395" width="12.03" height="4.753" transform="translate(405.721 151.421)" fill="#fff"/>
          <rect id="Rectángulo_35396" data-name="Rectángulo 35396" width="59.507" height="15.812" transform="translate(354.37 161.799)" fill="#ff9775"/>
          <path id="Trazado_153191" data-name="Trazado 153191" d="M351.2,162.919a3.595,3.595,0,1,1-3.595-3.595,3.6,3.6,0,0,1,3.595,3.595" transform="translate(14.652 6.786)" fill="#383534"/>
          <circle id="Elipse_4781" data-name="Elipse 4781" cx="3.595" cy="3.595" r="3.595" transform="translate(358.659 166.11)" fill="none" stroke="#fff" stroke-miterlimit="10" stroke-width="1"/>
          <rect id="Rectángulo_35397" data-name="Rectángulo 35397" width="12.03" height="4.753" transform="translate(396.135 167.233)" fill="#fff"/>
        </g>
      </g>
    </g>
  </g>
</svg>
