<svg id="Grupo_158100" data-name="Grupo 158100" xmlns="http://www.w3.org/2000/svg" xmlns:xlink="http://www.w3.org/1999/xlink" width="368" height="181" viewBox="0 0 368 181">
  <defs>
    <clipPath id="clip-path">
      <rect id="Rectángulo_34881" data-name="Rectángulo 34881" width="195.942" height="99.96" fill="#785549"/>
    </clipPath>
  </defs>
  <g id="Grupo_157916" data-name="Grupo 157916" transform="translate(0 4.078)">
    <g id="Enmascarar_grupo_63" data-name="Enmascarar grupo 63" transform="translate(0 59.481)" opacity="0.311" clip-path="url(#clip-path)">
      <path id="Trazado_151731" data-name="Trazado 151731" d="M93.295,147.308a54.013,54.013,0,1,1,54.013-54.013,54.074,54.074,0,0,1-54.013,54.013m0,39.282A93.295,93.295,0,1,0,0,93.295,93.295,93.295,0,0,0,93.295,186.59Z" transform="translate(4.047 6.666)" fill="#785549"/>
    </g>
    <path id="Trazado_145968" data-name="Trazado 145968" d="M40.14,0A40.14,40.14,0,1,1,0,40.14,40.14,40.14,0,0,1,40.14,0Z" transform="translate(287.719)" fill="#31313c" opacity="0.444" style="mix-blend-mode: multiply;isolation: isolate"/>
    <g id="Grupo_78276" data-name="Grupo 78276" transform="translate(238.493 32.526)">
      <g id="Grupo_53306" data-name="Grupo 53306">
        <path id="Trazado_99200" data-name="Trazado 99200" d="M416.4,51.268a1.094,1.094,0,1,1-1.093-1.044A1.07,1.07,0,0,1,416.4,51.268Z" transform="translate(-414.214 -50.224)" fill="#fff"/>
        <path id="Trazado_99201" data-name="Trazado 99201" d="M424.845,51.268a1.094,1.094,0,1,1-1.092-1.044A1.069,1.069,0,0,1,424.845,51.268Z" transform="translate(-412.827 -50.224)" fill="#fff"/>
        <path id="Trazado_99202" data-name="Trazado 99202" d="M433.291,51.268a1.094,1.094,0,1,1-1.092-1.044A1.069,1.069,0,0,1,433.291,51.268Z" transform="translate(-411.441 -50.224)" fill="#fff"/>
        <path id="Trazado_99203" data-name="Trazado 99203" d="M441.738,51.268a1.094,1.094,0,1,1-1.093-1.044A1.07,1.07,0,0,1,441.738,51.268Z" transform="translate(-410.054 -50.224)" fill="#fff"/>
        <path id="Trazado_99204" data-name="Trazado 99204" d="M450.184,51.268a1.094,1.094,0,1,1-1.092-1.044A1.069,1.069,0,0,1,450.184,51.268Z" transform="translate(-408.667 -50.224)" fill="#fff"/>
        <path id="Trazado_99205" data-name="Trazado 99205" d="M458.63,51.268a1.094,1.094,0,1,1-1.092-1.044A1.069,1.069,0,0,1,458.63,51.268Z" transform="translate(-407.28 -50.224)" fill="#fff"/>
        <path id="Trazado_99206" data-name="Trazado 99206" d="M467.077,51.268a1.094,1.094,0,1,1-1.093-1.044A1.07,1.07,0,0,1,467.077,51.268Z" transform="translate(-405.893 -50.224)" fill="#fff"/>
        <path id="Trazado_99207" data-name="Trazado 99207" d="M475.523,51.268a1.094,1.094,0,1,1-1.092-1.044A1.069,1.069,0,0,1,475.523,51.268Z" transform="translate(-404.507 -50.224)" fill="#fff"/>
        <path id="Trazado_99208" data-name="Trazado 99208" d="M483.969,51.268a1.094,1.094,0,1,1-1.092-1.044A1.069,1.069,0,0,1,483.969,51.268Z" transform="translate(-403.12 -50.224)" fill="#fff"/>
        <path id="Trazado_99209" data-name="Trazado 99209" d="M492.416,51.268a1.094,1.094,0,1,1-1.093-1.044A1.07,1.07,0,0,1,492.416,51.268Z" transform="translate(-401.733 -50.224)" fill="#fff"/>
        <path id="Trazado_99210" data-name="Trazado 99210" d="M500.862,51.268a1.094,1.094,0,1,1-1.093-1.044A1.069,1.069,0,0,1,500.862,51.268Z" transform="translate(-400.347 -50.224)" fill="#fff"/>
      </g>
      <g id="Grupo_53307" data-name="Grupo 53307" transform="translate(0 8.359)">
        <path id="Trazado_99211" data-name="Trazado 99211" d="M416.4,58.776a1.094,1.094,0,1,1-1.093-1.044A1.07,1.07,0,0,1,416.4,58.776Z" transform="translate(-414.214 -57.732)" fill="#fff"/>
        <path id="Trazado_99212" data-name="Trazado 99212" d="M424.845,58.776a1.094,1.094,0,1,1-1.092-1.044A1.069,1.069,0,0,1,424.845,58.776Z" transform="translate(-412.827 -57.732)" fill="#fff"/>
        <path id="Trazado_99213" data-name="Trazado 99213" d="M433.291,58.776a1.094,1.094,0,1,1-1.092-1.044A1.069,1.069,0,0,1,433.291,58.776Z" transform="translate(-411.441 -57.732)" fill="#fff"/>
        <path id="Trazado_99214" data-name="Trazado 99214" d="M441.738,58.776a1.094,1.094,0,1,1-1.093-1.044A1.07,1.07,0,0,1,441.738,58.776Z" transform="translate(-410.054 -57.732)" fill="#fff"/>
        <path id="Trazado_99215" data-name="Trazado 99215" d="M450.184,58.776a1.094,1.094,0,1,1-1.092-1.044A1.069,1.069,0,0,1,450.184,58.776Z" transform="translate(-408.667 -57.732)" fill="#fff"/>
        <path id="Trazado_99216" data-name="Trazado 99216" d="M458.63,58.776a1.094,1.094,0,1,1-1.092-1.044A1.069,1.069,0,0,1,458.63,58.776Z" transform="translate(-407.28 -57.732)" fill="#fff"/>
        <path id="Trazado_99217" data-name="Trazado 99217" d="M467.077,58.776a1.094,1.094,0,1,1-1.093-1.044A1.07,1.07,0,0,1,467.077,58.776Z" transform="translate(-405.893 -57.732)" fill="#fff"/>
        <path id="Trazado_99218" data-name="Trazado 99218" d="M475.523,58.776a1.094,1.094,0,1,1-1.092-1.044A1.069,1.069,0,0,1,475.523,58.776Z" transform="translate(-404.507 -57.732)" fill="#fff"/>
        <path id="Trazado_99219" data-name="Trazado 99219" d="M483.969,58.776a1.094,1.094,0,1,1-1.092-1.044A1.069,1.069,0,0,1,483.969,58.776Z" transform="translate(-403.12 -57.732)" fill="#fff"/>
        <path id="Trazado_99220" data-name="Trazado 99220" d="M492.416,58.776a1.094,1.094,0,1,1-1.093-1.044A1.07,1.07,0,0,1,492.416,58.776Z" transform="translate(-401.733 -57.732)" fill="#fff"/>
        <path id="Trazado_99221" data-name="Trazado 99221" d="M500.862,58.776a1.094,1.094,0,1,1-1.093-1.044A1.069,1.069,0,0,1,500.862,58.776Z" transform="translate(-400.347 -57.732)" fill="#fff"/>
      </g>
      <g id="Grupo_53308" data-name="Grupo 53308" transform="translate(0 16.718)">
        <ellipse id="Elipse_3955" data-name="Elipse 3955" cx="1.093" cy="1.045" rx="1.093" ry="1.045" fill="#fff"/>
        <path id="Trazado_99222" data-name="Trazado 99222" d="M424.845,66.284a1.094,1.094,0,1,1-1.092-1.044A1.07,1.07,0,0,1,424.845,66.284Z" transform="translate(-412.827 -65.24)" fill="#fff"/>
        <ellipse id="Elipse_3956" data-name="Elipse 3956" cx="1.093" cy="1.045" rx="1.093" ry="1.045" transform="translate(19.666)" fill="#fff"/>
        <path id="Trazado_99223" data-name="Trazado 99223" d="M441.738,66.284a1.094,1.094,0,1,1-1.093-1.044A1.07,1.07,0,0,1,441.738,66.284Z" transform="translate(-410.054 -65.24)" fill="#fff"/>
        <path id="Trazado_99224" data-name="Trazado 99224" d="M450.184,66.284a1.094,1.094,0,1,1-1.092-1.044A1.07,1.07,0,0,1,450.184,66.284Z" transform="translate(-408.667 -65.24)" fill="#fff"/>
        <ellipse id="Elipse_3957" data-name="Elipse 3957" cx="1.093" cy="1.045" rx="1.093" ry="1.045" transform="translate(49.165)" fill="#fff"/>
        <path id="Trazado_99225" data-name="Trazado 99225" d="M467.077,66.284a1.094,1.094,0,1,1-1.093-1.044A1.071,1.071,0,0,1,467.077,66.284Z" transform="translate(-405.893 -65.24)" fill="#fff"/>
        <ellipse id="Elipse_3958" data-name="Elipse 3958" cx="1.093" cy="1.045" rx="1.093" ry="1.045" transform="translate(68.831)" fill="#fff"/>
        <ellipse id="Elipse_3959" data-name="Elipse 3959" cx="1.093" cy="1.045" rx="1.093" ry="1.045" transform="translate(78.664)" fill="#fff"/>
        <path id="Trazado_99226" data-name="Trazado 99226" d="M492.416,66.284a1.094,1.094,0,1,1-1.093-1.044A1.071,1.071,0,0,1,492.416,66.284Z" transform="translate(-401.733 -65.24)" fill="#fff"/>
        <path id="Trazado_99227" data-name="Trazado 99227" d="M500.862,66.284a1.094,1.094,0,1,1-1.093-1.044A1.07,1.07,0,0,1,500.862,66.284Z" transform="translate(-400.347 -65.24)" fill="#fff"/>
      </g>
      <g id="Grupo_53309" data-name="Grupo 53309" transform="translate(0 25.076)">
        <ellipse id="Elipse_3960" data-name="Elipse 3960" cx="1.093" cy="1.045" rx="1.093" ry="1.045" transform="translate(0 0)" fill="#fff"/>
        <path id="Trazado_99228" data-name="Trazado 99228" d="M424.845,73.792a1.094,1.094,0,1,1-1.092-1.045A1.069,1.069,0,0,1,424.845,73.792Z" transform="translate(-412.827 -72.747)" fill="#fff"/>
        <ellipse id="Elipse_3961" data-name="Elipse 3961" cx="1.093" cy="1.045" rx="1.093" ry="1.045" transform="translate(19.666 0)" fill="#fff"/>
        <path id="Trazado_99229" data-name="Trazado 99229" d="M441.738,73.792a1.094,1.094,0,1,1-1.093-1.045A1.069,1.069,0,0,1,441.738,73.792Z" transform="translate(-410.054 -72.747)" fill="#fff"/>
        <path id="Trazado_99230" data-name="Trazado 99230" d="M450.184,73.792a1.094,1.094,0,1,1-1.092-1.045A1.069,1.069,0,0,1,450.184,73.792Z" transform="translate(-408.667 -72.747)" fill="#fff"/>
        <ellipse id="Elipse_3962" data-name="Elipse 3962" cx="1.093" cy="1.045" rx="1.093" ry="1.045" transform="translate(49.165 0)" fill="#fff"/>
        <path id="Trazado_99231" data-name="Trazado 99231" d="M467.077,73.792a1.094,1.094,0,1,1-1.093-1.045A1.07,1.07,0,0,1,467.077,73.792Z" transform="translate(-405.893 -72.747)" fill="#fff"/>
        <ellipse id="Elipse_3963" data-name="Elipse 3963" cx="1.093" cy="1.045" rx="1.093" ry="1.045" transform="translate(68.831 0)" fill="#fff"/>
        <ellipse id="Elipse_3964" data-name="Elipse 3964" cx="1.093" cy="1.045" rx="1.093" ry="1.045" transform="translate(78.664 0)" fill="#fff"/>
        <path id="Trazado_99232" data-name="Trazado 99232" d="M492.416,73.792a1.094,1.094,0,1,1-1.093-1.045A1.07,1.07,0,0,1,492.416,73.792Z" transform="translate(-401.733 -72.747)" fill="#fff"/>
        <path id="Trazado_99233" data-name="Trazado 99233" d="M500.862,73.792a1.094,1.094,0,1,1-1.093-1.045A1.069,1.069,0,0,1,500.862,73.792Z" transform="translate(-400.347 -72.747)" fill="#fff"/>
      </g>
      <g id="Grupo_53310" data-name="Grupo 53310" transform="translate(0 33.435)">
        <path id="Trazado_99234" data-name="Trazado 99234" d="M416.4,81.3a1.094,1.094,0,1,1-1.093-1.045A1.069,1.069,0,0,1,416.4,81.3Z" transform="translate(-414.214 -80.255)" fill="#fff"/>
        <path id="Trazado_99235" data-name="Trazado 99235" d="M424.845,81.3a1.094,1.094,0,1,1-1.092-1.045A1.069,1.069,0,0,1,424.845,81.3Z" transform="translate(-412.827 -80.255)" fill="#fff"/>
        <path id="Trazado_99236" data-name="Trazado 99236" d="M433.291,81.3a1.094,1.094,0,1,1-1.092-1.045A1.069,1.069,0,0,1,433.291,81.3Z" transform="translate(-411.441 -80.255)" fill="#fff"/>
        <path id="Trazado_99237" data-name="Trazado 99237" d="M441.738,81.3a1.094,1.094,0,1,1-1.093-1.045A1.069,1.069,0,0,1,441.738,81.3Z" transform="translate(-410.054 -80.255)" fill="#fff"/>
        <path id="Trazado_99238" data-name="Trazado 99238" d="M450.184,81.3a1.094,1.094,0,1,1-1.092-1.045A1.069,1.069,0,0,1,450.184,81.3Z" transform="translate(-408.667 -80.255)" fill="#fff"/>
        <path id="Trazado_99239" data-name="Trazado 99239" d="M458.63,81.3a1.094,1.094,0,1,1-1.092-1.045A1.069,1.069,0,0,1,458.63,81.3Z" transform="translate(-407.28 -80.255)" fill="#fff"/>
        <path id="Trazado_99240" data-name="Trazado 99240" d="M467.077,81.3a1.094,1.094,0,1,1-1.093-1.045A1.07,1.07,0,0,1,467.077,81.3Z" transform="translate(-405.893 -80.255)" fill="#fff"/>
        <path id="Trazado_99241" data-name="Trazado 99241" d="M475.523,81.3a1.094,1.094,0,1,1-1.092-1.045A1.069,1.069,0,0,1,475.523,81.3Z" transform="translate(-404.507 -80.255)" fill="#fff"/>
        <path id="Trazado_99242" data-name="Trazado 99242" d="M483.969,81.3a1.094,1.094,0,1,1-1.092-1.045A1.069,1.069,0,0,1,483.969,81.3Z" transform="translate(-403.12 -80.255)" fill="#fff"/>
        <path id="Trazado_99243" data-name="Trazado 99243" d="M492.416,81.3a1.094,1.094,0,1,1-1.093-1.045A1.07,1.07,0,0,1,492.416,81.3Z" transform="translate(-401.733 -80.255)" fill="#fff"/>
        <path id="Trazado_99244" data-name="Trazado 99244" d="M500.862,81.3a1.094,1.094,0,1,1-1.093-1.045A1.069,1.069,0,0,1,500.862,81.3Z" transform="translate(-400.347 -80.255)" fill="#fff"/>
      </g>
      <g id="Grupo_53311" data-name="Grupo 53311" transform="translate(0 41.793)">
        <ellipse id="Elipse_3965" data-name="Elipse 3965" cx="1.093" cy="1.045" rx="1.093" ry="1.045" transform="translate(0 0)" fill="#fff"/>
        <path id="Trazado_99245" data-name="Trazado 99245" d="M424.845,88.808a1.094,1.094,0,1,1-1.092-1.045A1.069,1.069,0,0,1,424.845,88.808Z" transform="translate(-412.827 -87.763)" fill="#fff"/>
        <ellipse id="Elipse_3966" data-name="Elipse 3966" cx="1.093" cy="1.045" rx="1.093" ry="1.045" transform="translate(19.666 0)" fill="#fff"/>
        <path id="Trazado_99246" data-name="Trazado 99246" d="M441.738,88.808a1.094,1.094,0,1,1-1.093-1.045A1.069,1.069,0,0,1,441.738,88.808Z" transform="translate(-410.054 -87.763)" fill="#fff"/>
        <path id="Trazado_99247" data-name="Trazado 99247" d="M450.184,88.808a1.094,1.094,0,1,1-1.092-1.045A1.069,1.069,0,0,1,450.184,88.808Z" transform="translate(-408.667 -87.763)" fill="#fff"/>
        <ellipse id="Elipse_3967" data-name="Elipse 3967" cx="1.093" cy="1.045" rx="1.093" ry="1.045" transform="translate(49.165 0)" fill="#fff"/>
        <path id="Trazado_99248" data-name="Trazado 99248" d="M467.077,88.808a1.094,1.094,0,1,1-1.093-1.045A1.07,1.07,0,0,1,467.077,88.808Z" transform="translate(-405.893 -87.763)" fill="#fff"/>
        <ellipse id="Elipse_3968" data-name="Elipse 3968" cx="1.093" cy="1.045" rx="1.093" ry="1.045" transform="translate(68.831 0)" fill="#fff"/>
        <ellipse id="Elipse_3969" data-name="Elipse 3969" cx="1.093" cy="1.045" rx="1.093" ry="1.045" transform="translate(78.664 0)" fill="#fff"/>
        <path id="Trazado_99249" data-name="Trazado 99249" d="M492.416,88.808a1.094,1.094,0,1,1-1.093-1.045A1.07,1.07,0,0,1,492.416,88.808Z" transform="translate(-401.733 -87.763)" fill="#fff"/>
        <path id="Trazado_99250" data-name="Trazado 99250" d="M500.862,88.808a1.094,1.094,0,1,1-1.093-1.045A1.069,1.069,0,0,1,500.862,88.808Z" transform="translate(-400.347 -87.763)" fill="#fff"/>
      </g>
      <g id="Grupo_53312" data-name="Grupo 53312" transform="translate(0 50.152)">
        <ellipse id="Elipse_3970" data-name="Elipse 3970" cx="1.093" cy="1.045" rx="1.093" ry="1.045" fill="#fff"/>
        <path id="Trazado_99251" data-name="Trazado 99251" d="M424.845,96.315a1.094,1.094,0,1,1-1.092-1.044A1.069,1.069,0,0,1,424.845,96.315Z" transform="translate(-412.827 -95.271)" fill="#fff"/>
        <ellipse id="Elipse_3971" data-name="Elipse 3971" cx="1.093" cy="1.045" rx="1.093" ry="1.045" transform="translate(19.666)" fill="#fff"/>
        <path id="Trazado_99252" data-name="Trazado 99252" d="M441.738,96.315a1.094,1.094,0,1,1-1.093-1.044A1.07,1.07,0,0,1,441.738,96.315Z" transform="translate(-410.054 -95.271)" fill="#fff"/>
        <path id="Trazado_99253" data-name="Trazado 99253" d="M450.184,96.315a1.094,1.094,0,1,1-1.092-1.044A1.069,1.069,0,0,1,450.184,96.315Z" transform="translate(-408.667 -95.271)" fill="#fff"/>
        <ellipse id="Elipse_3972" data-name="Elipse 3972" cx="1.093" cy="1.045" rx="1.093" ry="1.045" transform="translate(49.165)" fill="#fff"/>
        <path id="Trazado_99254" data-name="Trazado 99254" d="M467.077,96.315a1.094,1.094,0,1,1-1.093-1.044A1.07,1.07,0,0,1,467.077,96.315Z" transform="translate(-405.893 -95.271)" fill="#fff"/>
        <ellipse id="Elipse_3973" data-name="Elipse 3973" cx="1.093" cy="1.045" rx="1.093" ry="1.045" transform="translate(68.831)" fill="#fff"/>
        <ellipse id="Elipse_3974" data-name="Elipse 3974" cx="1.093" cy="1.045" rx="1.093" ry="1.045" transform="translate(78.664)" fill="#fff"/>
        <path id="Trazado_99255" data-name="Trazado 99255" d="M492.416,96.315a1.094,1.094,0,1,1-1.093-1.044A1.07,1.07,0,0,1,492.416,96.315Z" transform="translate(-401.733 -95.271)" fill="#fff"/>
        <path id="Trazado_99256" data-name="Trazado 99256" d="M500.862,96.315a1.094,1.094,0,1,1-1.093-1.044A1.069,1.069,0,0,1,500.862,96.315Z" transform="translate(-400.347 -95.271)" fill="#fff"/>
      </g>
      <g id="Grupo_53313" data-name="Grupo 53313" transform="translate(0 58.511)">
        <path id="Trazado_99257" data-name="Trazado 99257" d="M416.4,103.823a1.094,1.094,0,1,1-1.093-1.044A1.07,1.07,0,0,1,416.4,103.823Z" transform="translate(-414.214 -102.779)" fill="#fff"/>
        <path id="Trazado_99258" data-name="Trazado 99258" d="M424.845,103.823a1.094,1.094,0,1,1-1.092-1.044A1.069,1.069,0,0,1,424.845,103.823Z" transform="translate(-412.827 -102.779)" fill="#fff"/>
        <path id="Trazado_99259" data-name="Trazado 99259" d="M433.291,103.823a1.094,1.094,0,1,1-1.092-1.044A1.069,1.069,0,0,1,433.291,103.823Z" transform="translate(-411.441 -102.779)" fill="#fff"/>
        <path id="Trazado_99260" data-name="Trazado 99260" d="M441.738,103.823a1.094,1.094,0,1,1-1.093-1.044A1.07,1.07,0,0,1,441.738,103.823Z" transform="translate(-410.054 -102.779)" fill="#fff"/>
        <path id="Trazado_99261" data-name="Trazado 99261" d="M450.184,103.823a1.094,1.094,0,1,1-1.092-1.044A1.069,1.069,0,0,1,450.184,103.823Z" transform="translate(-408.667 -102.779)" fill="#fff"/>
        <path id="Trazado_99262" data-name="Trazado 99262" d="M458.63,103.823a1.094,1.094,0,1,1-1.092-1.044A1.069,1.069,0,0,1,458.63,103.823Z" transform="translate(-407.28 -102.779)" fill="#fff"/>
        <path id="Trazado_99263" data-name="Trazado 99263" d="M467.077,103.823a1.094,1.094,0,1,1-1.093-1.044A1.07,1.07,0,0,1,467.077,103.823Z" transform="translate(-405.893 -102.779)" fill="#fff"/>
        <path id="Trazado_99264" data-name="Trazado 99264" d="M475.523,103.823a1.094,1.094,0,1,1-1.092-1.044A1.069,1.069,0,0,1,475.523,103.823Z" transform="translate(-404.507 -102.779)" fill="#fff"/>
        <path id="Trazado_99265" data-name="Trazado 99265" d="M483.969,103.823a1.094,1.094,0,1,1-1.092-1.044A1.069,1.069,0,0,1,483.969,103.823Z" transform="translate(-403.12 -102.779)" fill="#fff"/>
        <path id="Trazado_99266" data-name="Trazado 99266" d="M492.416,103.823a1.094,1.094,0,1,1-1.093-1.044A1.07,1.07,0,0,1,492.416,103.823Z" transform="translate(-401.733 -102.779)" fill="#fff"/>
        <path id="Trazado_99267" data-name="Trazado 99267" d="M500.862,103.823a1.094,1.094,0,1,1-1.093-1.044A1.069,1.069,0,0,1,500.862,103.823Z" transform="translate(-400.347 -102.779)" fill="#fff"/>
      </g>
      <g id="Grupo_53314" data-name="Grupo 53314" transform="translate(0 66.87)">
        <ellipse id="Elipse_3975" data-name="Elipse 3975" cx="1.093" cy="1.045" rx="1.093" ry="1.045" fill="#fff"/>
        <path id="Trazado_99268" data-name="Trazado 99268" d="M424.845,111.331a1.094,1.094,0,1,1-1.092-1.044A1.07,1.07,0,0,1,424.845,111.331Z" transform="translate(-412.827 -110.287)" fill="#fff"/>
        <ellipse id="Elipse_3976" data-name="Elipse 3976" cx="1.093" cy="1.045" rx="1.093" ry="1.045" transform="translate(19.666)" fill="#fff"/>
        <path id="Trazado_99269" data-name="Trazado 99269" d="M441.738,111.331a1.094,1.094,0,1,1-1.093-1.044A1.07,1.07,0,0,1,441.738,111.331Z" transform="translate(-410.054 -110.287)" fill="#fff"/>
        <path id="Trazado_99270" data-name="Trazado 99270" d="M450.184,111.331a1.094,1.094,0,1,1-1.092-1.044A1.07,1.07,0,0,1,450.184,111.331Z" transform="translate(-408.667 -110.287)" fill="#fff"/>
        <ellipse id="Elipse_3977" data-name="Elipse 3977" cx="1.093" cy="1.045" rx="1.093" ry="1.045" transform="translate(49.165)" fill="#fff"/>
        <path id="Trazado_99271" data-name="Trazado 99271" d="M467.077,111.331a1.094,1.094,0,1,1-1.093-1.044A1.071,1.071,0,0,1,467.077,111.331Z" transform="translate(-405.893 -110.287)" fill="#fff"/>
        <ellipse id="Elipse_3978" data-name="Elipse 3978" cx="1.093" cy="1.045" rx="1.093" ry="1.045" transform="translate(68.831)" fill="#fff"/>
        <ellipse id="Elipse_3979" data-name="Elipse 3979" cx="1.093" cy="1.045" rx="1.093" ry="1.045" transform="translate(78.664)" fill="#fff"/>
        <path id="Trazado_99272" data-name="Trazado 99272" d="M492.416,111.331a1.094,1.094,0,1,1-1.093-1.044A1.071,1.071,0,0,1,492.416,111.331Z" transform="translate(-401.733 -110.287)" fill="#fff"/>
        <path id="Trazado_99273" data-name="Trazado 99273" d="M500.862,111.331a1.094,1.094,0,1,1-1.093-1.044A1.07,1.07,0,0,1,500.862,111.331Z" transform="translate(-400.347 -110.287)" fill="#fff"/>
      </g>
      <g id="Grupo_53315" data-name="Grupo 53315" transform="translate(0 75.228)">
        <path id="Trazado_99274" data-name="Trazado 99274" d="M416.4,118.839a1.094,1.094,0,1,1-1.093-1.045A1.07,1.07,0,0,1,416.4,118.839Z" transform="translate(-414.214 -117.794)" fill="#fff"/>
        <path id="Trazado_99275" data-name="Trazado 99275" d="M424.845,118.839a1.094,1.094,0,1,1-1.092-1.045A1.07,1.07,0,0,1,424.845,118.839Z" transform="translate(-412.827 -117.794)" fill="#fff"/>
        <path id="Trazado_99276" data-name="Trazado 99276" d="M433.291,118.839a1.094,1.094,0,1,1-1.092-1.045A1.07,1.07,0,0,1,433.291,118.839Z" transform="translate(-411.441 -117.794)" fill="#fff"/>
        <path id="Trazado_99277" data-name="Trazado 99277" d="M441.738,118.839a1.094,1.094,0,1,1-1.093-1.045A1.07,1.07,0,0,1,441.738,118.839Z" transform="translate(-410.054 -117.794)" fill="#fff"/>
        <path id="Trazado_99278" data-name="Trazado 99278" d="M450.184,118.839a1.094,1.094,0,1,1-1.092-1.045A1.07,1.07,0,0,1,450.184,118.839Z" transform="translate(-408.667 -117.794)" fill="#fff"/>
        <path id="Trazado_99279" data-name="Trazado 99279" d="M458.63,118.839a1.094,1.094,0,1,1-1.092-1.045A1.07,1.07,0,0,1,458.63,118.839Z" transform="translate(-407.28 -117.794)" fill="#fff"/>
        <path id="Trazado_99280" data-name="Trazado 99280" d="M467.077,118.839a1.094,1.094,0,1,1-1.093-1.045A1.071,1.071,0,0,1,467.077,118.839Z" transform="translate(-405.893 -117.794)" fill="#fff"/>
        <path id="Trazado_99281" data-name="Trazado 99281" d="M475.523,118.839a1.094,1.094,0,1,1-1.092-1.045A1.07,1.07,0,0,1,475.523,118.839Z" transform="translate(-404.507 -117.794)" fill="#fff"/>
        <path id="Trazado_99282" data-name="Trazado 99282" d="M483.969,118.839a1.094,1.094,0,1,1-1.092-1.045A1.07,1.07,0,0,1,483.969,118.839Z" transform="translate(-403.12 -117.794)" fill="#fff"/>
        <path id="Trazado_99283" data-name="Trazado 99283" d="M492.416,118.839a1.094,1.094,0,1,1-1.093-1.045A1.071,1.071,0,0,1,492.416,118.839Z" transform="translate(-401.733 -117.794)" fill="#fff"/>
        <path id="Trazado_99284" data-name="Trazado 99284" d="M500.862,118.839a1.094,1.094,0,1,1-1.093-1.045A1.07,1.07,0,0,1,500.862,118.839Z" transform="translate(-400.347 -117.794)" fill="#fff"/>
      </g>
      <g id="Grupo_53316" data-name="Grupo 53316" transform="translate(0 83.587)">
        <ellipse id="Elipse_3980" data-name="Elipse 3980" cx="1.093" cy="1.045" rx="1.093" ry="1.045" transform="translate(0 0)" fill="#fff"/>
        <path id="Trazado_99285" data-name="Trazado 99285" d="M424.845,126.347a1.094,1.094,0,1,1-1.092-1.045A1.069,1.069,0,0,1,424.845,126.347Z" transform="translate(-412.827 -125.302)" fill="#fff"/>
        <ellipse id="Elipse_3981" data-name="Elipse 3981" cx="1.093" cy="1.045" rx="1.093" ry="1.045" transform="translate(19.666 0)" fill="#fff"/>
        <path id="Trazado_99286" data-name="Trazado 99286" d="M441.738,126.347a1.094,1.094,0,1,1-1.093-1.045A1.069,1.069,0,0,1,441.738,126.347Z" transform="translate(-410.054 -125.302)" fill="#fff"/>
        <path id="Trazado_99287" data-name="Trazado 99287" d="M450.184,126.347a1.094,1.094,0,1,1-1.092-1.045A1.069,1.069,0,0,1,450.184,126.347Z" transform="translate(-408.667 -125.302)" fill="#fff"/>
        <ellipse id="Elipse_3982" data-name="Elipse 3982" cx="1.093" cy="1.045" rx="1.093" ry="1.045" transform="translate(49.165 0)" fill="#fff"/>
        <path id="Trazado_99288" data-name="Trazado 99288" d="M467.077,126.347a1.094,1.094,0,1,1-1.093-1.045A1.07,1.07,0,0,1,467.077,126.347Z" transform="translate(-405.893 -125.302)" fill="#fff"/>
        <ellipse id="Elipse_3983" data-name="Elipse 3983" cx="1.093" cy="1.045" rx="1.093" ry="1.045" transform="translate(68.831 0)" fill="#fff"/>
        <ellipse id="Elipse_3984" data-name="Elipse 3984" cx="1.093" cy="1.045" rx="1.093" ry="1.045" transform="translate(78.664 0)" fill="#fff"/>
        <path id="Trazado_99289" data-name="Trazado 99289" d="M492.416,126.347a1.094,1.094,0,1,1-1.093-1.045A1.07,1.07,0,0,1,492.416,126.347Z" transform="translate(-401.733 -125.302)" fill="#fff"/>
        <path id="Trazado_99290" data-name="Trazado 99290" d="M500.862,126.347a1.094,1.094,0,1,1-1.093-1.045A1.069,1.069,0,0,1,500.862,126.347Z" transform="translate(-400.347 -125.302)" fill="#fff"/>
      </g>
      <g id="Grupo_53317" data-name="Grupo 53317" transform="translate(0 91.947)">
        <ellipse id="Elipse_3985" data-name="Elipse 3985" cx="1.093" cy="1.045" rx="1.093" ry="1.045" transform="translate(0 0)" fill="#fff"/>
        <path id="Trazado_99291" data-name="Trazado 99291" d="M424.845,133.855a1.094,1.094,0,1,1-1.092-1.045A1.069,1.069,0,0,1,424.845,133.855Z" transform="translate(-412.827 -132.81)" fill="#fff"/>
        <ellipse id="Elipse_3986" data-name="Elipse 3986" cx="1.093" cy="1.045" rx="1.093" ry="1.045" transform="translate(19.666 0)" fill="#fff"/>
        <path id="Trazado_99292" data-name="Trazado 99292" d="M441.738,133.855a1.094,1.094,0,1,1-1.093-1.045A1.069,1.069,0,0,1,441.738,133.855Z" transform="translate(-410.054 -132.81)" fill="#fff"/>
        <path id="Trazado_99293" data-name="Trazado 99293" d="M450.184,133.855a1.094,1.094,0,1,1-1.092-1.045A1.069,1.069,0,0,1,450.184,133.855Z" transform="translate(-408.667 -132.81)" fill="#fff"/>
        <ellipse id="Elipse_3987" data-name="Elipse 3987" cx="1.093" cy="1.045" rx="1.093" ry="1.045" transform="translate(49.165 0)" fill="#fff"/>
        <path id="Trazado_99294" data-name="Trazado 99294" d="M467.077,133.855a1.094,1.094,0,1,1-1.093-1.045A1.07,1.07,0,0,1,467.077,133.855Z" transform="translate(-405.893 -132.81)" fill="#fff"/>
        <ellipse id="Elipse_3988" data-name="Elipse 3988" cx="1.093" cy="1.045" rx="1.093" ry="1.045" transform="translate(68.831 0)" fill="#fff"/>
        <ellipse id="Elipse_3989" data-name="Elipse 3989" cx="1.093" cy="1.045" rx="1.093" ry="1.045" transform="translate(78.664 0)" fill="#fff"/>
        <path id="Trazado_99295" data-name="Trazado 99295" d="M492.416,133.855a1.094,1.094,0,1,1-1.093-1.045A1.07,1.07,0,0,1,492.416,133.855Z" transform="translate(-401.733 -132.81)" fill="#fff"/>
        <path id="Trazado_99296" data-name="Trazado 99296" d="M500.862,133.855a1.094,1.094,0,1,1-1.093-1.045A1.069,1.069,0,0,1,500.862,133.855Z" transform="translate(-400.347 -132.81)" fill="#fff"/>
      </g>
    </g>
  </g>
  <g id="Grupo_158097" data-name="Grupo 158097" transform="translate(43 0)">
    <g id="Grupo_158098" data-name="Grupo 158098">
      <g id="Grupo_158095" data-name="Grupo 158095">
        <g id="Grupo_158099" data-name="Grupo 158099">
          <path id="Trazado_152760" data-name="Trazado 152760" d="M919.666,522.724A12.723,12.723,0,0,0,906.943,510H894.111v67.761h82.851V522.724Z" transform="translate(-694.62 -397.536)" fill="#785549"/>
          <path id="Trazado_152761" data-name="Trazado 152761" d="M1205.922,751.3a4.856,4.856,0,1,1-4.856-4.856,4.856,4.856,0,0,1,4.856,4.856" transform="translate(-929.224 -581.152)" fill="#fffeeb"/>
          <path id="Trazado_152762" data-name="Trazado 152762" d="M1124.9,754.615a5.479,5.479,0,1,1,5.479-5.479,5.485,5.485,0,0,1-5.479,5.479m0-9.713a4.233,4.233,0,1,0,4.234,4.234,4.238,4.238,0,0,0-4.234-4.234" transform="translate(-869.593 -578.988)" fill="#fffeeb"/>
          <path id="Trazado_152764" data-name="Trazado 152764" d="M521.591,247.8c0-.006-.06-4.058-.12-7.384-.084-4.649,1.655-8.216,7.031-10.224s6.486-8.581,9.893-8.208,1.656,4.767-.249,8.151c0,0,3.125-5.425,4.228-6.509s3.058-2.63,4.21-1.233c0,0,1.708-2.615,3.994-1.591s.741,3.658.741,3.658,3.145-2.26,4.985,1-3.59,5.887-3.59,5.887,3.086,1.189-.686,4.958-8.408,8.017-8.408,8.017l.2,2.255Z" transform="translate(-405.089 -171.753)" fill="#ffa194"/>
          <path id="Trazado_152765" data-name="Trazado 152765" d="M298.8,389.523c-9.125,13.236-24.919,19.43-40.861,18.621-18.673-.947-26.3-7.345-42.475-21.9l21.924-23.308c7.249,7.72,21.149,9.859,31.354,6.8,10.253-3.078,16.275-17.181,15.214-31.534l22.226-1.227c5.216,26.033,3.209,37.191-7.383,52.555" transform="translate(-167.391 -262.684)" fill="#f5e8df"/>
          <path id="Trazado_152766" data-name="Trazado 152766" d="M237.384,453.184,215.46,476.492c12.253,11.029,19.6,17.373,30.564,20.214l.151-9.891s3.948-4.759,4.124-13.777a31.51,31.51,0,0,0-2.291-13.435,25.121,25.121,0,0,1-10.624-6.418" transform="translate(-167.375 -353.011)" fill="#ddd4d1"/>
          <path id="Trazado_152767" data-name="Trazado 152767" d="M603.379,245.807a.623.623,0,0,1-.4-1.1l11.066-9.351a.623.623,0,1,1,.8.951L603.78,245.66a.619.619,0,0,1-.4.147" transform="translate(-468.223 -183.112)" fill="#db5349"/>
          <path id="Trazado_152768" data-name="Trazado 152768" d="M552.294,276.053a.633.633,0,0,1-.1-.008.623.623,0,0,1-.515-.714,8.356,8.356,0,0,1,3.561-5.826c4.206-2.869,10.569-1.92,12.063-1.645,6.072-5.248,9.107-3.133,9.234-3.04l-.737,1c-.014-.009-2.519-1.59-7.905,3.172a.623.623,0,0,1-.544.142c-.071-.015-7.167-1.5-11.412,1.4a7.156,7.156,0,0,0-3.03,4.994.623.623,0,0,1-.614.523" transform="translate(-428.546 -205.777)" fill="#db5349"/>
          <path id="Trazado_152769" data-name="Trazado 152769" d="M144.412,286.655a10.821,10.821,0,1,0,10.821-10.821,10.821,10.821,0,0,0-10.821,10.821" transform="translate(-112.147 -214.774)" fill="#28121f"/>
          <path id="Trazado_152770" data-name="Trazado 152770" d="M55.049,407.214a15.9,15.9,0,1,1-15.9-15.9,15.9,15.9,0,0,1,15.9,15.9" transform="translate(-18.052 -304.744)" fill="#28121f"/>
          <path id="Trazado_152771" data-name="Trazado 152771" d="M114.619,351.494a10.477,10.477,0,1,1-10.477-10.477,10.477,10.477,0,0,1,10.477,10.477" transform="translate(-72.737 -265.525)" fill="#28121f"/>
          <path id="Trazado_152772" data-name="Trazado 152772" d="M96.759,355.682a11.1,11.1,0,1,1,11.1-11.1,11.113,11.113,0,0,1-11.1,11.1m0-20.955a9.855,9.855,0,1,0,9.855,9.854,9.866,9.866,0,0,0-9.855-9.854" transform="translate(-66.521 -259.663)" fill="#28121f"/>
          <path id="Trazado_152773" data-name="Trazado 152773" d="M194.5,370.07a8.677,8.677,0,1,0,8.677-8.677,8.677,8.677,0,0,0-8.677,8.677" transform="translate(-151.092 -281.374)" fill="#28121f"/>
          <path id="Trazado_152774" data-name="Trazado 152774" d="M689.013,159.424a.623.623,0,0,1-.508-.982l5.3-7.521a.623.623,0,0,1,.868-.15l3.776,2.664,4.585-6.5a.623.623,0,1,1,1.018.718l-4.944,7.008a.623.623,0,0,1-.868.15l-3.776-2.664-4.946,7.012a.622.622,0,0,1-.509.264" transform="translate(-534.747 -114.188)" fill="#31313c"/>
          <path id="Trazado_152775" data-name="Trazado 152775" d="M62.868,730.867H126.51l-5.352-20.5H62.867Z" transform="translate(-48.821 -553.135)" fill="#28121f"/>
          <path id="Trazado_152776" data-name="Trazado 152776" d="M72.133,475.892l.333-21.847s3.909-4.76,4.124-13.777c.368-15.478-6.621-20.659-12.563-24.75-7.717-5.313-27.9-7.32-39.555,1.663-17.771,13.7-25.3,37.7-24.4,54.72.882,16.617,14.6,27.65,30.166,28.587,17.1,1.03,27.153-6.984,42.738-16.408Z" transform="translate(0 -320.644)" fill="#f5e8df"/>
          <path id="Trazado_152777" data-name="Trazado 152777" d="M462,72.882a.623.623,0,0,1-.574-.381l-2.287-5.433a.623.623,0,1,1,1.148-.483l2.287,5.433a.623.623,0,0,1-.574.865" transform="translate(-356.617 -51.412)" fill="#31313c"/>
          <path id="Trazado_152778" data-name="Trazado 152778" d="M413.928,122.544a.619.619,0,0,1-.326-.093l-8.709-5.374a.623.623,0,1,1,.654-1.06l8.709,5.374a.623.623,0,0,1-.328,1.153" transform="translate(-314.291 -90.024)" fill="#31313c"/>
          <path id="Trazado_152779" data-name="Trazado 152779" d="M23.744,706.814a17.88,17.88,0,0,0-12.571,5.143c4.732,10.749,15.684,17.536,27.742,18.262.643.039,1.274.063,1.9.076a17.951,17.951,0,0,0-17.068-23.482" transform="translate(-8.677 -550.376)" fill="#fd9827"/>
          <path id="Trazado_152780" data-name="Trazado 152780" d="M135.29,444.492c-9.113,0-18.571-4.365-24.9-8.027l-1.422-.823a.623.623,0,0,1,.624-1.078l1.422.823c6.2,3.586,15.44,7.86,24.276,7.86.493,0,.985-.014,1.464-.04a16.131,16.131,0,0,0,13.494-8.059.623.623,0,0,1,1.068.641,17.328,17.328,0,0,1-14.493,8.662c-.5.028-1.017.042-1.533.042" transform="translate(-84.38 -338.241)" fill="#31313c"/>
          <path id="Trazado_152781" data-name="Trazado 152781" d="M160.778,415.4c-7.118-4.739-24.214-6.748-35.961-.422,5.814,3.364,15.522,7.98,24.346,7.487a13.62,13.62,0,0,0,11.615-7.065" transform="translate(-96.93 -319.96)" fill="#ffa194"/>
          <path id="Trazado_152782" data-name="Trazado 152782" d="M187.392,316.555l-.544-5.79c8.719-.819,8.988-2.645,7.663-12.085-.41-2.923-.731-6.033-4.986-8.648-5.686-3.5-13.511-.461-15.039,6.036q-.028.12-.055.243c-.9,4.146-.963,7.87,1.728,10.2l1.034,11.007Z" transform="translate(-135.027 -224.714)" fill="#ffa194"/>
          <path id="Trazado_152783" data-name="Trazado 152783" d="M211.132,389.418a9.21,9.21,0,0,0,4.936,2.946l-.416-4.431-4.03.319a.711.711,0,0,0-.489,1.165" transform="translate(-163.83 -301.982)" fill="#db5349"/>
          <path id="Trazado_152784" data-name="Trazado 152784" d="M226.193,326.732c.005-.011-1.119-.547-1.119-.547a1.953,1.953,0,0,1,3.235-.344l-.989.757a.712.712,0,0,0-1.127.133" transform="translate(-174.787 -253.087)" fill="#28121f"/>
          <path id="Trazado_152785" data-name="Trazado 152785" d="M203.439,348.508l.107-.225c-.039.073-.074.148-.107.225" transform="translate(-157.986 -271.101)" fill="#3180b5"/>
          <path id="Trazado_152786" data-name="Trazado 152786" d="M149.4,362.728a8.964,8.964,0,1,1-7.132-10.481,8.964,8.964,0,0,1,7.132,10.481" transform="translate(-102.217 -274.131)" fill="#28121f"/>
          <path id="Trazado_152787" data-name="Trazado 152787" d="M252.977,512.606h-.038a.623.623,0,0,1-.584-.659c.559-9.365.945-18.354-.457-25.384a45.014,45.014,0,0,0-5.332-14.116.623.623,0,0,1,1.047-.675,45.38,45.38,0,0,1,5.507,14.547c1.431,7.175,1.043,16.252.479,25.7a.623.623,0,0,1-.621.586" transform="translate(-191.455 -367.249)" fill="#31313c"/>
          <path id="Trazado_152788" data-name="Trazado 152788" d="M189.87,538.848a4.5,4.5,0,1,1-4.5-4.5,4.5,4.5,0,0,1,4.5,4.5" transform="translate(-140.456 -415.98)" fill="#fffeeb"/>
          <path id="Trazado_152789" data-name="Trazado 152789" d="M248.11,355.305l-3.8.427a.468.468,0,0,0-.364.682,2.5,2.5,0,0,0,2.418,1.3,2.25,2.25,0,0,0,2.25-1.821.468.468,0,0,0-.506-.585" transform="translate(-189.455 -276.572)" fill="#fffeeb"/>
          <path id="Trazado_152790" data-name="Trazado 152790" d="M232.646,338.216a.625.625,0,1,1-.625-.625.625.625,0,0,1,.625.625" transform="translate(-179.696 -262.782)" fill="#28121f"/>
          <path id="Trazado_152791" data-name="Trazado 152791" d="M258.923,335.081a.625.625,0,1,1-.625-.625.625.625,0,0,1,.625.625" transform="translate(-200.158 -260.341)" fill="#28121f"/>
          <path id="Trazado_152792" data-name="Trazado 152792" d="M251.261,331.659a.623.623,0,0,1-.506-.985l.824-1.154-.837.079a.622.622,0,0,1-.632-.378c-.1-.246-.989-2.443-.045-3.829a.623.623,0,0,1,1.03.7,2.977,2.977,0,0,0,.013,2.22l.9-.084a1,1,0,0,1,.9,1.572l-1.14,1.6a.622.622,0,0,1-.507.261" transform="translate(-193.915 -253.092)" fill="#db5349"/>
          <path id="Trazado_152793" data-name="Trazado 152793" d="M252.47,323.6c.005-.011-1.119-.547-1.119-.547a1.953,1.953,0,0,1,3.235-.344l-.989.757a.712.712,0,0,0-1.127.133" transform="translate(-195.249 -250.652)" fill="#28121f"/>
          <path id="Trazado_152794" data-name="Trazado 152794" d="M185.762,283.6c-.681-4.85-5.494-8.64-12.182-6.769,0,0-9.871,3.5-10.121,9.968-.2,5.21,4.693,11.129,4.693,11.129,3.923-1.677,2.569-5,2.569-5,5.5-.966,3.514-11.261,3.514-11.261a5.549,5.549,0,0,1,2.06,3.286.714.714,0,0,0,.794.554l8.062-1.1a.717.717,0,0,0,.612-.811" transform="translate(-126.934 -215.167)" fill="#28121f"/>
          <path id="Trazado_152795" data-name="Trazado 152795" d="M182.62,340.945a3.012,3.012,0,1,0,2.056-3.73,3.011,3.011,0,0,0-2.056,3.73" transform="translate(-141.725 -262.413)" fill="#ffa194"/>
          <path id="Trazado_152796" data-name="Trazado 152796" d="M187.793,344.674a1.846,1.846,0,1,0,1.26-2.286,1.846,1.846,0,0,0-1.26,2.286" transform="translate(-145.779 -266.467)" fill="#db5349"/>
          <path id="Trazado_152797" data-name="Trazado 152797" d="M195.148,361.966a1.96,1.96,0,1,1-1.767-2.135,1.96,1.96,0,0,1,1.767,2.135" transform="translate(-148.511 -280.096)" fill="#fffeeb"/>
          <path id="Trazado_152798" data-name="Trazado 152798" d="M205.593,272.41a.623.623,0,0,1-.4-1.1,9.521,9.521,0,0,1,3.216-1.6,7.791,7.791,0,0,1,7.173,1.5.623.623,0,0,1-.772.977c-4.4-3.472-8.781.054-8.825.09a.621.621,0,0,1-.4.142" transform="translate(-159.221 -209.703)" fill="#28121f"/>
          <path id="Trazado_152799" data-name="Trazado 152799" d="M187.893,305.182a.623.623,0,0,1-.416-1.087c2.338-2.093,1.741-5.943,1.735-5.982a.623.623,0,0,1,1.229-.2c.031.185.721,4.559-2.133,7.113a.62.62,0,0,1-.415.159" transform="translate(-145.43 -231.51)" fill="#70529e"/>
          <path id="Trazado_152800" data-name="Trazado 152800" d="M226.792,348.5a1.846,1.846,0,1,1-1.469-2.158,1.846,1.846,0,0,1,1.469,2.158" transform="translate(-173.279 -269.58)" fill="#f4756e"/>
          <path id="Trazado_152801" data-name="Trazado 152801" d="M519.852,336.654a.623.623,0,0,1-.034-1.244l22.226-1.228a.623.623,0,1,1,.069,1.244l-22.226,1.228h-.035" transform="translate(-403.345 -260.131)" fill="#31313c"/>
          <path id="Trazado_152802" data-name="Trazado 152802" d="M244.309,297.475a.623.623,0,0,1-.613-.519,4.233,4.233,0,0,0-1.045-2.187.623.623,0,0,1,.854-.906,5.414,5.414,0,0,1,1.419,2.886.623.623,0,0,1-.511.718.64.64,0,0,1-.1.009" transform="translate(-188.339 -228.618)" fill="#70529e"/>
          <path id="Trazado_152803" data-name="Trazado 152803" d="M354.876,526.19a12.723,12.723,0,0,0-12.723-12.723H329.321v67.761h82.851V526.19Z" transform="translate(-255.844 -400.228)" fill="#31313c"/>
          <path id="Trazado_152804" data-name="Trazado 152804" d="M641.132,754.766a4.856,4.856,0,1,1-4.856-4.856,4.856,4.856,0,0,1,4.856,4.856" transform="translate(-490.488 -583.844)" fill="#fffeeb"/>
          <path id="Trazado_152805" data-name="Trazado 152805" d="M560.113,758.081a5.479,5.479,0,1,1,5.479-5.479,5.485,5.485,0,0,1-5.479,5.479m0-9.712a4.233,4.233,0,1,0,4.233,4.233,4.238,4.238,0,0,0-4.233-4.233" transform="translate(-430.841 -581.68)" fill="#fffeeb"/>
          <path id="Trazado_152807" data-name="Trazado 152807" d="M512.794,97.724a23.838,23.838,0,1,1-23.838-23.838,23.838,23.838,0,0,1,23.838,23.838" transform="translate(-361.321 -57.378)" fill="#c0c942"/>
          <path id="Trazado_152808" data-name="Trazado 152808" d="M513.037,184.5a19.84,19.84,0,0,0-16.91,9.48,19.822,19.822,0,0,0,33.82,0,19.841,19.841,0,0,0-16.91-9.48" transform="translate(-385.403 -143.651)" fill="#fffeeb"/>
          <path id="Trazado_152809" data-name="Trazado 152809" d="M551.157,108.868a8.343,8.343,0,1,1-8.343-8.343,8.343,8.343,0,0,1,8.343,8.343" transform="translate(-415.181 -78.065)" fill="#fffeeb"/>
          <path id="Trazado_152811" data-name="Trazado 152811" d="M352.213,275.553a16.946,16.946,0,1,1-16.946-16.946,16.947,16.947,0,0,1,16.946,16.946" transform="translate(-247.278 -201.404)" fill="#31313c"/>
          <path id="Trazado_152812" data-name="Trazado 152812" d="M352.386,337.241a14.1,14.1,0,0,0-12.021,6.739,14.091,14.091,0,0,0,24.042,0,14.1,14.1,0,0,0-12.021-6.739" transform="translate(-264.4 -262.554)" fill="#fffeeb"/>
          <path id="Trazado_152813" data-name="Trazado 152813" d="M379.485,283.476a5.931,5.931,0,1,1-5.931-5.931,5.931,5.931,0,0,1,5.931,5.931" transform="translate(-285.571 -216.073)" fill="#fffeeb"/>
          <path id="Trazado_152814" data-name="Trazado 152814" d="M1064.112,412.584a16.946,16.946,0,1,1-16.946-16.946,16.946,16.946,0,0,1,16.946,16.946" transform="translate(-800.319 -308.124)" fill="#31313c"/>
          <path id="Trazado_152815" data-name="Trazado 152815" d="M1064.285,474.271a14.1,14.1,0,0,0-12.021,6.739,14.091,14.091,0,0,0,24.042,0,14.1,14.1,0,0,0-12.021-6.739" transform="translate(-817.439 -369.237)" fill="#fffeeb"/>
          <path id="Trazado_152816" data-name="Trazado 152816" d="M1091.384,420.506a5.931,5.931,0,1,1-5.931-5.931,5.931,5.931,0,0,1,5.931,5.931" transform="translate(-838.606 -322.753)" fill="#fffeeb"/>
          <path id="Trazado_152817" data-name="Trazado 152817" d="M878.207,569.792a16.946,16.946,0,1,1-16.946-16.946,16.947,16.947,0,0,1,16.946,16.946" transform="translate(-655.883 -430.809)" fill="#31313c"/>
          <path id="Trazado_152818" data-name="Trazado 152818" d="M878.38,631.479a14.1,14.1,0,0,0-12.021,6.739,14.091,14.091,0,0,0,24.042,0,14.1,14.1,0,0,0-12.021-6.739" transform="translate(-673 -491.628)" fill="#fffeeb"/>
          <path id="Trazado_152819" data-name="Trazado 152819" d="M905.478,577.714a5.931,5.931,0,1,1-5.931-5.931,5.931,5.931,0,0,1,5.931,5.931" transform="translate(-694.164 -445.142)" fill="#fffeeb"/>
          <path id="Trazado_152820" data-name="Trazado 152820" d="M689.879,411.2a16.946,16.946,0,1,1-16.946-16.946A16.947,16.947,0,0,1,689.879,411.2" transform="translate(-509.585 -307.05)" fill="#31313c"/>
          <path id="Trazado_152821" data-name="Trazado 152821" d="M689.922,418.344l-2.937,5.951a.924.924,0,0,1-.7.505l-6.567.954a.924.924,0,0,0-.512,1.576l4.752,4.632a.923.923,0,0,1,.266.818l-1.122,6.541a.924.924,0,0,0,1.341.974l5.874-3.088a.924.924,0,0,1,.86,0l5.874,3.088a.924.924,0,0,0,1.34-.974l-1.122-6.541a.924.924,0,0,1,.266-.818l4.752-4.632a.924.924,0,0,0-.512-1.576l-6.567-.954a.925.925,0,0,1-.7-.505l-2.937-5.951a.924.924,0,0,0-1.657,0" transform="translate(-527.402 -325.341)" fill="#fffeeb"/>
          <path id="Trazado_152822" data-name="Trazado 152822" d="M264.2,156.781l-2.049,4.153a.645.645,0,0,1-.486.353l-4.583.666a.645.645,0,0,0-.357,1.1l3.316,3.233a.644.644,0,0,1,.185.571l-.783,4.564a.645.645,0,0,0,.935.68l4.1-2.155a.644.644,0,0,1,.6,0l4.1,2.155a.645.645,0,0,0,.935-.68l-.783-4.564a.644.644,0,0,1,.185-.571l3.316-3.233a.645.645,0,0,0-.357-1.1l-4.583-.666a.646.646,0,0,1-.486-.353l-2.049-4.153a.645.645,0,0,0-1.156,0" transform="translate(-199.27 -121.784)" fill="#fd9827"/>
          <path id="Trazado_152823" data-name="Trazado 152823" d="M917.461,418.289l-2.049,4.153a.645.645,0,0,1-.485.353l-4.583.666a.645.645,0,0,0-.357,1.1l3.316,3.233a.644.644,0,0,1,.185.571l-.783,4.564a.645.645,0,0,0,.935.68l4.1-2.155a.644.644,0,0,1,.6,0l4.1,2.155a.645.645,0,0,0,.935-.68l-.783-4.564a.644.644,0,0,1,.185-.571l3.316-3.233a.645.645,0,0,0-.357-1.1l-4.583-.666a.646.646,0,0,1-.486-.353l-2.049-4.153a.645.645,0,0,0-1.156,0" transform="translate(-706.731 -325.384)" fill="#785549"/>
          <path id="Trazado_152824" data-name="Trazado 152824" d="M550.3.264,548.8,3.31a.473.473,0,0,1-.356.259l-3.362.488a.473.473,0,0,0-.262.807l2.433,2.371a.473.473,0,0,1,.136.419L546.813,11a.473.473,0,0,0,.686.5l3.007-1.581a.472.472,0,0,1,.44,0l3.007,1.581a.473.473,0,0,0,.686-.5l-.574-3.348a.473.473,0,0,1,.136-.419l2.433-2.371a.473.473,0,0,0-.262-.807l-3.362-.488a.474.474,0,0,1-.356-.259L551.15.264a.473.473,0,0,0-.848,0" transform="translate(-423.106 0)" fill="#785549"/>
          <path id="Trazado_152825" data-name="Trazado 152825" d="M849.116,205.6l-4.8,9.721a1.508,1.508,0,0,1-1.136.825L832.455,217.7a1.509,1.509,0,0,0-.837,2.574l7.763,7.567a1.508,1.508,0,0,1,.434,1.336l-1.832,10.684a1.509,1.509,0,0,0,2.19,1.591l9.6-5.044a1.508,1.508,0,0,1,1.4,0l9.6,5.044a1.509,1.509,0,0,0,2.189-1.591l-1.833-10.684a1.51,1.51,0,0,1,.434-1.336l7.763-7.567a1.509,1.509,0,0,0-.837-2.574l-10.728-1.559a1.509,1.509,0,0,1-1.136-.825l-4.8-9.721a1.509,1.509,0,0,0-2.707,0" transform="translate(-645.669 -159.474)" fill="#785549"/>
          <path id="Trazado_152826" data-name="Trazado 152826" d="M705.655,203.1l-2.049,4.153a.646.646,0,0,1-.486.353l-4.583.666a.645.645,0,0,0-.357,1.1l3.316,3.233a.644.644,0,0,1,.185.57l-.783,4.565a.645.645,0,0,0,.935.68l4.1-2.155a.645.645,0,0,1,.6,0l4.1,2.155a.645.645,0,0,0,.935-.68l-.783-4.565a.644.644,0,0,1,.185-.57l3.316-3.233a.645.645,0,0,0-.357-1.1l-4.583-.666a.645.645,0,0,1-.485-.353l-2.049-4.153a.645.645,0,0,0-1.156,0" transform="translate(-542.199 -157.849)" fill="#fd9827"/>
          <path id="Trazado_152827" data-name="Trazado 152827" d="M287.315,583.745s4.084-9.146,5.53-11.629c1.982-3.4,6.06-1.186,5.44,2.1-.28,1.486-.592,3.341-.984,5.381,0,0,3.487-2.088,6.07-3.423,7.311-3.778,8.837-2.728,9.69-1.328.8,1.31.84,3.013-1.917,4.579-.764.434-1.843,1.041-3.407,2.025,6.1-3.612,8.09-2.085,8.87-.992.844,1.183,1.485,3.334-1.228,4.988-.325.2-.7.365-1.065.555a2.9,2.9,0,0,1,3.3,1.335c.95,1.516.68,3.345-2.115,5.2-.472.313-1,.648-1.559.988a2.044,2.044,0,0,1,2.312,1.515c.87,3.017-2.822,4.071-7.442,6.051s-17.75,6.793-17.75,6.793L280.821,588Z" transform="translate(-218.149 -444.451)" fill="#ffa194"/>
          <path id="Trazado_152828" data-name="Trazado 152828" d="M355.744,620.027a.623.623,0,0,1-.294-1.172l10.79-5.756a.623.623,0,0,1,.586,1.1l-10.79,5.756a.62.62,0,0,1-.293.073" transform="translate(-275.859 -477.217)" fill="#db5349"/>
          <path id="Trazado_152829" data-name="Trazado 152829" d="M368.671,645.428a.623.623,0,0,1-.282-1.178l13.381-6.783a.623.623,0,1,1,.563,1.111l-13.381,6.783a.619.619,0,0,1-.281.068" transform="translate(-285.902 -496.198)" fill="#db5349"/>
          <path id="Trazado_152830" data-name="Trazado 152830" d="M380.472,676.1a.623.623,0,0,1-.256-1.191l10.747-4.83a.623.623,0,1,1,.511,1.136l-10.747,4.83a.619.619,0,0,1-.255.055" transform="translate(-295.068 -521.807)" fill="#db5349"/>
          <path id="Trazado_152831" data-name="Trazado 152831" d="M344.688,592.819c.391-2.041.7-3.9.984-5.381l-3.775,6.22a.367.367,0,0,0,.5.507Z" transform="translate(-265.541 -457.297)" fill="#db5349"/>
          <path id="Trazado_152832" data-name="Trazado 152832" d="M179.54,569.735a.623.623,0,0,1-.554-.337L169.064,550.2c-1.125.43-2.443,1-3.827,1.6-3.869,1.677-8.685,3.765-13.282,4.551a17.03,17.03,0,0,1-6.726-.016,10.4,10.4,0,0,1-5.661-3.38c-1.711-1.979-2.493-4.933-2.324-8.779a42.548,42.548,0,0,1,2.1-10.587,89.892,89.892,0,0,1,5.216-12.773.623.623,0,0,1,1.105.574,88.574,88.574,0,0,0-5.137,12.587c-1.909,6.088-3.461,14.181-.019,18.163a9.83,9.83,0,0,0,7.892,3.288,19.879,19.879,0,0,0,3.342-.306c4.449-.761,9.189-2.816,13-4.466,1.619-.7,3.148-1.365,4.412-1.82a.623.623,0,0,1,.764.3l10.175,19.685a.623.623,0,0,1-.553.909" transform="translate(-106.563 -405.677)" fill="#31313c"/>
          <path id="Trazado_152833" data-name="Trazado 152833" d="M740.029,687.943a4.574,4.574,0,1,1-4.573-4.573,4.573,4.573,0,0,1,4.573,4.573" transform="translate(-567.75 -532.17)" fill="#31313c"/>
          <path id="Trazado_152834" data-name="Trazado 152834" d="M780.97,291.937a4.574,4.574,0,1,1-4.573-4.573,4.574,4.574,0,0,1,4.573,4.573" transform="translate(-599.553 -223.709)" fill="#31313c"/>
          <path id="Trazado_152835" data-name="Trazado 152835" d="M1031.543,277.8a4.574,4.574,0,1,1-4.574-4.573,4.574,4.574,0,0,1,4.574,4.573" transform="translate(-794.244 -212.7)" fill="#31313c"/>
        </g>
      </g>
    </g>
  </g>
</svg>
