<svg xmlns="http://www.w3.org/2000/svg" xmlns:xlink="http://www.w3.org/1999/xlink" width="77" height="77" viewBox="0 0 77 77">
  <defs>
    <clipPath id="clip-path">
      <rect id="Rectángulo_35709" data-name="Rectángulo 35709" width="45.451" height="41.694"/>
    </clipPath>
  </defs>
  <g id="Grupo_158010" data-name="Grupo 158010" transform="translate(-1286.891 -1571.613)">
    <circle id="Elipse_4727" data-name="Elipse 4727" cx="38.5" cy="38.5" r="38.5" transform="translate(1286.891 1571.613)" fill="#fd9827"/>
    <g id="Grupo_158938" data-name="Grupo 158938" transform="translate(1302.891 1589.614)">
      <g id="Grupo_158938-2" data-name="Grupo 158938" clip-path="url(#clip-path)">
        <path id="Trazado_154468" data-name="Trazado 154468" d="M0,38.335V29.813a.751.751,0,0,0,.072-.159A3.885,3.885,0,0,1,2.125,26.91a2.044,2.044,0,0,0,.208-.149c-.046-.087-.081-.152-.113-.217a2.355,2.355,0,0,1,1.86-3.44,6.113,6.113,0,0,1,1.063-.015.416.416,0,0,0,.476-.335,7.1,7.1,0,0,0,.016-5.031.459.459,0,0,0-.548-.365,6.08,6.08,0,0,1-.8,0,2.366,2.366,0,0,1-.146-4.726c.178-.018.357-.03.607-.051-.168-.145-.268-.228-.365-.316A6.747,6.747,0,0,1,2.1,5.594,6.911,6.911,0,0,1,8.991,0q11.1-.012,22.19,0c.1,0,.207,0,.311.006a2.427,2.427,0,0,1,2.221,1.805A2.3,2.3,0,0,1,32.667,4.42a4.5,4.5,0,0,1-1.559.392c-.3.038-.436.116-.53.4a5.589,5.589,0,0,0-.073,3.316c.123.45.292.637.8.626a2.349,2.349,0,0,1,2.467,2.269,6.883,6.883,0,0,1-.147,1.2c.52,0,1.05,0,1.581,0a3.9,3.9,0,0,1,4.125,4.111c0,2.071-.019,4.142.008,6.213a4.8,4.8,0,0,1-.975,3.544h.587c1.435.005,2.871-.023,4.3.027a2.344,2.344,0,0,1,.331,4.633,7.4,7.4,0,0,1-1.368.071.38.38,0,0,0-.423.282,6.9,6.9,0,0,0,.012,5.148.579.579,0,0,0,.405.281c.424.053.86.01,1.281.072a2.343,2.343,0,0,1,1.9,2.785,2.392,2.392,0,0,1-2.533,1.9q-9.253,0-18.506,0-10.119,0-20.238,0a4.061,4.061,0,0,1-2.977-1.149A4.455,4.455,0,0,1,0,38.335m11.529-7.079c-.123-.013-.194-.028-.265-.028-2.042,0-4.083.005-6.125-.008-.352,0-.419.155-.417.457.008,1.553,0,3.107,0,4.66,0,.606,0,.607.615.607H40.492a8.255,8.255,0,0,1-.01-5.718H31.4a1.949,1.949,0,0,1-.442-.019.624.624,0,0,1-.537-.7.611.611,0,0,1,.6-.6,4,4,0,0,1,.443-.008H42.735a3.628,3.628,0,0,0,.443-.01,1.044,1.044,0,0,0,.937-1.058,1.018,1.018,0,0,0-.952-.988,4.6,4.6,0,0,0-.487-.016H18.482v2.074h8.955a3.6,3.6,0,0,1,.4.007.616.616,0,0,1,.606.641.63.63,0,0,1-.579.672,2.148,2.148,0,0,1-.4.011H18.44c0,.784,0,1.507,0,2.23a.946.946,0,0,1-.5.963.925.925,0,0,1-1.054-.248c-.257-.222-.5-.463-.745-.7-.384-.365-.767-.732-1.159-1.107-.651.617-1.267,1.214-1.9,1.793a.923.923,0,0,1-1.051.264.908.908,0,0,1-.5-.953c0-.724,0-1.447,0-2.218M29.21,4.829H19.57a4.075,4.075,0,0,1-.487-.014.636.636,0,0,1-.627-.668.632.632,0,0,1,.651-.643c.147-.013.3-.006.444-.006q5.7,0,11.406,0a3.383,3.383,0,0,0,.662-.045.983.983,0,0,0,.79-.752,1.038,1.038,0,0,0-.748-1.308,2.093,2.093,0,0,0-.526-.055q-11.073,0-22.146,0A5.647,5.647,0,0,0,3.465,8.417,5.739,5.739,0,0,0,9.14,12.633c7.308-.037,14.617-.012,21.925-.013a3.8,3.8,0,0,0,.443-.017,1.054,1.054,0,0,0,.941-.965,1.032,1.032,0,0,0-.724-1.092,2.489,2.489,0,0,0-.7-.075q-10.851-.006-21.7,0c-.222,0-.444,0-.666-.01A3.494,3.494,0,0,1,5.47,6.518,3.45,3.45,0,0,1,9.011,3.5c2.2-.015,4.409,0,6.613,0a1.632,1.632,0,0,1,.353.026.556.556,0,0,1,.5.629,1.17,1.17,0,0,1-.464.616c-.13.1-.37.057-.562.057q-3.107,0-6.213,0a5.393,5.393,0,0,0-.576.022,2.152,2.152,0,0,0,.41,4.282q9.9,0,19.794,0h.355a17.749,17.749,0,0,1-.251-2.129,18.538,18.538,0,0,1,.242-2.177M18.466,26.466c.163.009.293.023.424.023q8.189,0,16.378,0A2.551,2.551,0,0,0,38,23.734q0-3.484,0-6.968a2.574,2.574,0,0,0-2.812-2.813q-15.269,0-30.537,0a2.927,2.927,0,0,0-.53.034,1.018,1.018,0,0,0-.05,1.993,3.255,3.255,0,0,0,.7.054q14.692,0,29.383,0c1.219,0,1.783.569,1.783,1.8,0,1.568-.037,3.138.014,4.7a1.7,1.7,0,0,1-1.9,1.89c-5.015-.041-10.031-.016-15.047-.016h-.54Zm-6.957,1.395a1.586,1.586,0,0,0-.218-.036c-2.47,0-4.94-.024-7.41.011A2.506,2.506,0,0,0,1.333,30.5q-.008,3.55,0,7.1A2.576,2.576,0,0,0,4.109,40.36q19.346,0,38.692,0a2.261,2.261,0,0,0,.527-.048,1.019,1.019,0,0,0,.788-1.042,1.008,1.008,0,0,0-.841-.952,4.2,4.2,0,0,0-.707-.04q-18.68,0-37.361,0c-1.249,0-1.811-.564-1.812-1.817q0-2.418,0-4.837A1.55,1.55,0,0,1,5.122,29.9q2.95,0,5.9,0h.485Zm6.957-4.8c.125.008.212.019.3.019q7.7,0,15.4.007c.355,0,.456-.125.453-.466-.013-1.553-.005-3.107-.006-4.66,0-.592,0-.593-.578-.593H6.963l.482,2.185H8q7.434,0,14.868,0c.581,0,.909.262.892.69-.016.412-.325.637-.894.639-1.08,0-2.16,0-3.24,0H18.466Zm-1.388,9.46V20.915H12.893V32.51c.535-.509,1.013-.966,1.494-1.421.446-.421.728-.423,1.183,0,.484.452.962.912,1.508,1.431m-5.567-8.084c-.148-.01-.249-.023-.349-.023q-3.346,0-6.691,0a1.653,1.653,0,0,0-.479.067,1.019,1.019,0,0,0,.123,1.971,2.731,2.731,0,0,0,.485.033q3.213,0,6.425,0c.158,0,.316-.014.487-.022Zm-.018-1.37V20.921H7.436l-.472,2.147Z" transform="translate(0 0)"/>
      </g>
    </g>
  </g>
</svg>
