<svg xmlns="http://www.w3.org/2000/svg" xmlns:xlink="http://www.w3.org/1999/xlink" width="505" height="177.863" viewBox="0 0 505 177.863">
  <defs>
    <clipPath id="clip-path">
      <rect id="Rect치ngulo_34881" data-name="Rect치ngulo 34881" width="218.58" height="111.509" fill="#785549"/>
    </clipPath>
  </defs>
  <g id="Grupo_159242" data-name="Grupo 159242" transform="translate(-219 -8287.014)">
    <g id="Grupo_158318" data-name="Grupo 158318" transform="translate(219 8287.014)">
      <g id="Grupo_157916" data-name="Grupo 157916" transform="translate(0 0)">
        <g id="Enmascarar_grupo_63" data-name="Enmascarar grupo 63" opacity="0.311" clip-path="url(#clip-path)">
          <path id="Trazado_151731" data-name="Trazado 151731" d="M104.074,43.82a60.253,60.253,0,1,0,60.253,60.253A60.321,60.321,0,0,0,104.074,43.82m0-43.82A104.074,104.074,0,1,1,0,104.074,104.074,104.074,0,0,1,104.074,0Z" transform="translate(4.515 -104.074)" fill="#785549"/>
        </g>
        <path id="Trazado_145968" data-name="Trazado 145968" d="M44.778,89.556A44.778,44.778,0,1,0,0,44.778,44.778,44.778,0,0,0,44.778,89.556Z" transform="translate(415.444 88.306)" fill="#31313c" opacity="0.444" style="mix-blend-mode: multiply;isolation: isolate"/>
        <g id="Grupo_78276" data-name="Grupo 78276" transform="translate(360.53 36.677)">
          <g id="Grupo_53306" data-name="Grupo 53306" transform="translate(0 102.57)">
            <path id="Trazado_99200" data-name="Trazado 99200" d="M416.652,51.39a1.22,1.22,0,1,0-1.22,1.165A1.193,1.193,0,0,0,416.652,51.39Z" transform="translate(-414.214 -50.224)" fill="#fff"/>
            <path id="Trazado_99201" data-name="Trazado 99201" d="M425.1,51.39a1.22,1.22,0,1,0-1.218,1.165A1.193,1.193,0,0,0,425.1,51.39Z" transform="translate(-411.691 -50.224)" fill="#fff"/>
            <path id="Trazado_99202" data-name="Trazado 99202" d="M433.544,51.39a1.22,1.22,0,1,0-1.218,1.165A1.193,1.193,0,0,0,433.544,51.39Z" transform="translate(-409.168 -50.224)" fill="#fff"/>
            <path id="Trazado_99203" data-name="Trazado 99203" d="M441.991,51.39a1.22,1.22,0,1,0-1.219,1.165A1.193,1.193,0,0,0,441.991,51.39Z" transform="translate(-406.646 -50.224)" fill="#fff"/>
            <path id="Trazado_99204" data-name="Trazado 99204" d="M450.437,51.39a1.22,1.22,0,1,0-1.218,1.165A1.193,1.193,0,0,0,450.437,51.39Z" transform="translate(-404.123 -50.224)" fill="#fff"/>
            <path id="Trazado_99205" data-name="Trazado 99205" d="M458.883,51.39a1.22,1.22,0,1,0-1.218,1.165A1.193,1.193,0,0,0,458.883,51.39Z" transform="translate(-401.6 -50.224)" fill="#fff"/>
            <path id="Trazado_99206" data-name="Trazado 99206" d="M467.33,51.39a1.22,1.22,0,1,0-1.219,1.165A1.194,1.194,0,0,0,467.33,51.39Z" transform="translate(-399.077 -50.224)" fill="#fff"/>
            <path id="Trazado_99207" data-name="Trazado 99207" d="M475.776,51.39a1.22,1.22,0,1,0-1.218,1.165A1.193,1.193,0,0,0,475.776,51.39Z" transform="translate(-396.555 -50.224)" fill="#fff"/>
            <path id="Trazado_99208" data-name="Trazado 99208" d="M484.222,51.39A1.22,1.22,0,1,0,483,52.555,1.193,1.193,0,0,0,484.222,51.39Z" transform="translate(-394.032 -50.224)" fill="#fff"/>
            <path id="Trazado_99209" data-name="Trazado 99209" d="M492.669,51.39a1.22,1.22,0,1,0-1.219,1.165A1.194,1.194,0,0,0,492.669,51.39Z" transform="translate(-391.509 -50.224)" fill="#fff"/>
            <path id="Trazado_99210" data-name="Trazado 99210" d="M501.115,51.39a1.22,1.22,0,1,0-1.22,1.165A1.193,1.193,0,0,0,501.115,51.39Z" transform="translate(-388.986 -50.224)" fill="#fff"/>
          </g>
          <g id="Grupo_53307" data-name="Grupo 53307" transform="translate(0 93.245)">
            <path id="Trazado_99211" data-name="Trazado 99211" d="M416.652,58.9a1.22,1.22,0,1,0-1.22,1.165A1.193,1.193,0,0,0,416.652,58.9Z" transform="translate(-414.214 -57.732)" fill="#fff"/>
            <path id="Trazado_99212" data-name="Trazado 99212" d="M425.1,58.9a1.22,1.22,0,1,0-1.218,1.165A1.193,1.193,0,0,0,425.1,58.9Z" transform="translate(-411.691 -57.732)" fill="#fff"/>
            <path id="Trazado_99213" data-name="Trazado 99213" d="M433.544,58.9a1.22,1.22,0,1,0-1.218,1.165A1.193,1.193,0,0,0,433.544,58.9Z" transform="translate(-409.168 -57.732)" fill="#fff"/>
            <path id="Trazado_99214" data-name="Trazado 99214" d="M441.991,58.9a1.22,1.22,0,1,0-1.219,1.165A1.193,1.193,0,0,0,441.991,58.9Z" transform="translate(-406.646 -57.732)" fill="#fff"/>
            <path id="Trazado_99215" data-name="Trazado 99215" d="M450.437,58.9a1.22,1.22,0,1,0-1.218,1.165A1.193,1.193,0,0,0,450.437,58.9Z" transform="translate(-404.123 -57.732)" fill="#fff"/>
            <path id="Trazado_99216" data-name="Trazado 99216" d="M458.883,58.9a1.22,1.22,0,1,0-1.218,1.165A1.193,1.193,0,0,0,458.883,58.9Z" transform="translate(-401.6 -57.732)" fill="#fff"/>
            <path id="Trazado_99217" data-name="Trazado 99217" d="M467.33,58.9a1.22,1.22,0,1,0-1.219,1.165A1.194,1.194,0,0,0,467.33,58.9Z" transform="translate(-399.077 -57.732)" fill="#fff"/>
            <path id="Trazado_99218" data-name="Trazado 99218" d="M475.776,58.9a1.22,1.22,0,1,0-1.218,1.165A1.193,1.193,0,0,0,475.776,58.9Z" transform="translate(-396.555 -57.732)" fill="#fff"/>
            <path id="Trazado_99219" data-name="Trazado 99219" d="M484.222,58.9A1.22,1.22,0,1,0,483,60.063,1.193,1.193,0,0,0,484.222,58.9Z" transform="translate(-394.032 -57.732)" fill="#fff"/>
            <path id="Trazado_99220" data-name="Trazado 99220" d="M492.669,58.9a1.22,1.22,0,1,0-1.219,1.165A1.194,1.194,0,0,0,492.669,58.9Z" transform="translate(-391.509 -57.732)" fill="#fff"/>
            <path id="Trazado_99221" data-name="Trazado 99221" d="M501.115,58.9a1.22,1.22,0,1,0-1.22,1.165A1.193,1.193,0,0,0,501.115,58.9Z" transform="translate(-388.986 -57.732)" fill="#fff"/>
          </g>
          <g id="Grupo_53308" data-name="Grupo 53308" transform="translate(0 83.92)">
            <ellipse id="Elipse_3955" data-name="Elipse 3955" cx="1.219" cy="1.166" rx="1.219" ry="1.166" transform="translate(0 0.001)" fill="#fff"/>
            <path id="Trazado_99222" data-name="Trazado 99222" d="M425.1,66.406a1.22,1.22,0,1,0-1.218,1.165A1.193,1.193,0,0,0,425.1,66.406Z" transform="translate(-411.691 -65.24)" fill="#fff"/>
            <ellipse id="Elipse_3956" data-name="Elipse 3956" cx="1.219" cy="1.166" rx="1.219" ry="1.166" transform="translate(21.938 0.001)" fill="#fff"/>
            <path id="Trazado_99223" data-name="Trazado 99223" d="M441.991,66.406a1.22,1.22,0,1,0-1.219,1.165A1.194,1.194,0,0,0,441.991,66.406Z" transform="translate(-406.645 -65.24)" fill="#fff"/>
            <path id="Trazado_99224" data-name="Trazado 99224" d="M450.437,66.406a1.22,1.22,0,1,0-1.218,1.165A1.194,1.194,0,0,0,450.437,66.406Z" transform="translate(-404.123 -65.24)" fill="#fff"/>
            <ellipse id="Elipse_3957" data-name="Elipse 3957" cx="1.219" cy="1.166" rx="1.219" ry="1.166" transform="translate(54.846 0.001)" fill="#fff"/>
            <path id="Trazado_99225" data-name="Trazado 99225" d="M467.33,66.406a1.22,1.22,0,1,0-1.219,1.165A1.195,1.195,0,0,0,467.33,66.406Z" transform="translate(-399.077 -65.24)" fill="#fff"/>
            <ellipse id="Elipse_3958" data-name="Elipse 3958" cx="1.219" cy="1.166" rx="1.219" ry="1.166" transform="translate(76.784 0.001)" fill="#fff"/>
            <ellipse id="Elipse_3959" data-name="Elipse 3959" cx="1.219" cy="1.166" rx="1.219" ry="1.166" transform="translate(87.753 0.001)" fill="#fff"/>
            <path id="Trazado_99226" data-name="Trazado 99226" d="M492.669,66.406a1.22,1.22,0,1,0-1.219,1.165A1.195,1.195,0,0,0,492.669,66.406Z" transform="translate(-391.509 -65.24)" fill="#fff"/>
            <path id="Trazado_99227" data-name="Trazado 99227" d="M501.115,66.406a1.22,1.22,0,1,0-1.22,1.165A1.194,1.194,0,0,0,501.115,66.406Z" transform="translate(-388.986 -65.24)" fill="#fff"/>
          </g>
          <g id="Grupo_53309" data-name="Grupo 53309" transform="translate(0 74.596)">
            <ellipse id="Elipse_3960" data-name="Elipse 3960" cx="1.219" cy="1.166" rx="1.219" ry="1.166" fill="#fff"/>
            <path id="Trazado_99228" data-name="Trazado 99228" d="M425.1,73.912a1.22,1.22,0,1,0-1.218,1.166A1.192,1.192,0,0,0,425.1,73.912Z" transform="translate(-411.691 -72.747)" fill="#fff"/>
            <ellipse id="Elipse_3961" data-name="Elipse 3961" cx="1.219" cy="1.166" rx="1.219" ry="1.166" transform="translate(21.938)" fill="#fff"/>
            <path id="Trazado_99229" data-name="Trazado 99229" d="M441.991,73.912a1.22,1.22,0,1,0-1.219,1.166A1.193,1.193,0,0,0,441.991,73.912Z" transform="translate(-406.645 -72.747)" fill="#fff"/>
            <path id="Trazado_99230" data-name="Trazado 99230" d="M450.437,73.912a1.22,1.22,0,1,0-1.218,1.166A1.193,1.193,0,0,0,450.437,73.912Z" transform="translate(-404.123 -72.747)" fill="#fff"/>
            <ellipse id="Elipse_3962" data-name="Elipse 3962" cx="1.219" cy="1.166" rx="1.219" ry="1.166" transform="translate(54.846)" fill="#fff"/>
            <path id="Trazado_99231" data-name="Trazado 99231" d="M467.33,73.912a1.22,1.22,0,1,0-1.219,1.166A1.194,1.194,0,0,0,467.33,73.912Z" transform="translate(-399.077 -72.747)" fill="#fff"/>
            <ellipse id="Elipse_3963" data-name="Elipse 3963" cx="1.219" cy="1.166" rx="1.219" ry="1.166" transform="translate(76.784)" fill="#fff"/>
            <ellipse id="Elipse_3964" data-name="Elipse 3964" cx="1.219" cy="1.166" rx="1.219" ry="1.166" transform="translate(87.753)" fill="#fff"/>
            <path id="Trazado_99232" data-name="Trazado 99232" d="M492.669,73.912a1.22,1.22,0,1,0-1.219,1.166A1.194,1.194,0,0,0,492.669,73.912Z" transform="translate(-391.509 -72.747)" fill="#fff"/>
            <path id="Trazado_99233" data-name="Trazado 99233" d="M501.115,73.912a1.22,1.22,0,1,0-1.22,1.166A1.193,1.193,0,0,0,501.115,73.912Z" transform="translate(-388.986 -72.747)" fill="#fff"/>
          </g>
          <g id="Grupo_53310" data-name="Grupo 53310" transform="translate(0 65.272)">
            <path id="Trazado_99234" data-name="Trazado 99234" d="M416.652,81.42a1.22,1.22,0,1,0-1.22,1.166A1.193,1.193,0,0,0,416.652,81.42Z" transform="translate(-414.214 -80.255)" fill="#fff"/>
            <path id="Trazado_99235" data-name="Trazado 99235" d="M425.1,81.42a1.22,1.22,0,1,0-1.218,1.166A1.192,1.192,0,0,0,425.1,81.42Z" transform="translate(-411.691 -80.255)" fill="#fff"/>
            <path id="Trazado_99236" data-name="Trazado 99236" d="M433.544,81.42a1.22,1.22,0,1,0-1.218,1.166A1.192,1.192,0,0,0,433.544,81.42Z" transform="translate(-409.168 -80.255)" fill="#fff"/>
            <path id="Trazado_99237" data-name="Trazado 99237" d="M441.991,81.42a1.22,1.22,0,1,0-1.219,1.166A1.193,1.193,0,0,0,441.991,81.42Z" transform="translate(-406.646 -80.255)" fill="#fff"/>
            <path id="Trazado_99238" data-name="Trazado 99238" d="M450.437,81.42a1.22,1.22,0,1,0-1.218,1.166A1.193,1.193,0,0,0,450.437,81.42Z" transform="translate(-404.123 -80.255)" fill="#fff"/>
            <path id="Trazado_99239" data-name="Trazado 99239" d="M458.883,81.42a1.22,1.22,0,1,0-1.218,1.166A1.192,1.192,0,0,0,458.883,81.42Z" transform="translate(-401.6 -80.255)" fill="#fff"/>
            <path id="Trazado_99240" data-name="Trazado 99240" d="M467.33,81.42a1.22,1.22,0,1,0-1.219,1.166A1.194,1.194,0,0,0,467.33,81.42Z" transform="translate(-399.077 -80.255)" fill="#fff"/>
            <path id="Trazado_99241" data-name="Trazado 99241" d="M475.776,81.42a1.22,1.22,0,1,0-1.218,1.166A1.192,1.192,0,0,0,475.776,81.42Z" transform="translate(-396.555 -80.255)" fill="#fff"/>
            <path id="Trazado_99242" data-name="Trazado 99242" d="M484.222,81.42A1.22,1.22,0,1,0,483,82.586,1.193,1.193,0,0,0,484.222,81.42Z" transform="translate(-394.032 -80.255)" fill="#fff"/>
            <path id="Trazado_99243" data-name="Trazado 99243" d="M492.669,81.42a1.22,1.22,0,1,0-1.219,1.166A1.194,1.194,0,0,0,492.669,81.42Z" transform="translate(-391.509 -80.255)" fill="#fff"/>
            <path id="Trazado_99244" data-name="Trazado 99244" d="M501.115,81.42a1.22,1.22,0,1,0-1.22,1.166A1.193,1.193,0,0,0,501.115,81.42Z" transform="translate(-388.986 -80.255)" fill="#fff"/>
          </g>
          <g id="Grupo_53311" data-name="Grupo 53311" transform="translate(0 55.948)">
            <ellipse id="Elipse_3965" data-name="Elipse 3965" cx="1.219" cy="1.166" rx="1.219" ry="1.166" fill="#fff"/>
            <path id="Trazado_99245" data-name="Trazado 99245" d="M425.1,88.928a1.22,1.22,0,1,0-1.218,1.166A1.192,1.192,0,0,0,425.1,88.928Z" transform="translate(-411.691 -87.763)" fill="#fff"/>
            <ellipse id="Elipse_3966" data-name="Elipse 3966" cx="1.219" cy="1.166" rx="1.219" ry="1.166" transform="translate(21.938)" fill="#fff"/>
            <path id="Trazado_99246" data-name="Trazado 99246" d="M441.991,88.928a1.22,1.22,0,1,0-1.219,1.166A1.193,1.193,0,0,0,441.991,88.928Z" transform="translate(-406.645 -87.763)" fill="#fff"/>
            <path id="Trazado_99247" data-name="Trazado 99247" d="M450.437,88.928a1.22,1.22,0,1,0-1.218,1.166A1.193,1.193,0,0,0,450.437,88.928Z" transform="translate(-404.123 -87.763)" fill="#fff"/>
            <ellipse id="Elipse_3967" data-name="Elipse 3967" cx="1.219" cy="1.166" rx="1.219" ry="1.166" transform="translate(54.846)" fill="#fff"/>
            <path id="Trazado_99248" data-name="Trazado 99248" d="M467.33,88.928a1.22,1.22,0,1,0-1.219,1.166A1.194,1.194,0,0,0,467.33,88.928Z" transform="translate(-399.077 -87.763)" fill="#fff"/>
            <ellipse id="Elipse_3968" data-name="Elipse 3968" cx="1.219" cy="1.166" rx="1.219" ry="1.166" transform="translate(76.784)" fill="#fff"/>
            <ellipse id="Elipse_3969" data-name="Elipse 3969" cx="1.219" cy="1.166" rx="1.219" ry="1.166" transform="translate(87.753)" fill="#fff"/>
            <path id="Trazado_99249" data-name="Trazado 99249" d="M492.669,88.928a1.22,1.22,0,1,0-1.219,1.166A1.194,1.194,0,0,0,492.669,88.928Z" transform="translate(-391.509 -87.763)" fill="#fff"/>
            <path id="Trazado_99250" data-name="Trazado 99250" d="M501.115,88.928a1.22,1.22,0,1,0-1.22,1.166A1.193,1.193,0,0,0,501.115,88.928Z" transform="translate(-388.986 -87.763)" fill="#fff"/>
          </g>
          <g id="Grupo_53312" data-name="Grupo 53312" transform="translate(0 46.623)">
            <ellipse id="Elipse_3970" data-name="Elipse 3970" cx="1.219" cy="1.166" rx="1.219" ry="1.166" transform="translate(0 0)" fill="#fff"/>
            <path id="Trazado_99251" data-name="Trazado 99251" d="M425.1,96.437A1.22,1.22,0,1,0,423.88,97.6,1.193,1.193,0,0,0,425.1,96.437Z" transform="translate(-411.691 -95.271)" fill="#fff"/>
            <ellipse id="Elipse_3971" data-name="Elipse 3971" cx="1.219" cy="1.166" rx="1.219" ry="1.166" transform="translate(21.938 0)" fill="#fff"/>
            <path id="Trazado_99252" data-name="Trazado 99252" d="M441.991,96.437a1.22,1.22,0,1,0-1.219,1.165A1.193,1.193,0,0,0,441.991,96.437Z" transform="translate(-406.645 -95.271)" fill="#fff"/>
            <path id="Trazado_99253" data-name="Trazado 99253" d="M450.437,96.437a1.22,1.22,0,1,0-1.218,1.165A1.193,1.193,0,0,0,450.437,96.437Z" transform="translate(-404.123 -95.271)" fill="#fff"/>
            <ellipse id="Elipse_3972" data-name="Elipse 3972" cx="1.219" cy="1.166" rx="1.219" ry="1.166" transform="translate(54.846 0)" fill="#fff"/>
            <path id="Trazado_99254" data-name="Trazado 99254" d="M467.33,96.437A1.22,1.22,0,1,0,466.11,97.6,1.194,1.194,0,0,0,467.33,96.437Z" transform="translate(-399.077 -95.271)" fill="#fff"/>
            <ellipse id="Elipse_3973" data-name="Elipse 3973" cx="1.219" cy="1.166" rx="1.219" ry="1.166" transform="translate(76.784 0)" fill="#fff"/>
            <ellipse id="Elipse_3974" data-name="Elipse 3974" cx="1.219" cy="1.166" rx="1.219" ry="1.166" transform="translate(87.753 0)" fill="#fff"/>
            <path id="Trazado_99255" data-name="Trazado 99255" d="M492.669,96.437a1.22,1.22,0,1,0-1.219,1.165A1.194,1.194,0,0,0,492.669,96.437Z" transform="translate(-391.509 -95.271)" fill="#fff"/>
            <path id="Trazado_99256" data-name="Trazado 99256" d="M501.115,96.437A1.22,1.22,0,1,0,499.9,97.6,1.193,1.193,0,0,0,501.115,96.437Z" transform="translate(-388.986 -95.271)" fill="#fff"/>
          </g>
          <g id="Grupo_53313" data-name="Grupo 53313" transform="translate(0 37.299)">
            <path id="Trazado_99257" data-name="Trazado 99257" d="M416.652,103.945a1.22,1.22,0,1,0-1.22,1.165A1.193,1.193,0,0,0,416.652,103.945Z" transform="translate(-414.214 -102.779)" fill="#fff"/>
            <path id="Trazado_99258" data-name="Trazado 99258" d="M425.1,103.945a1.22,1.22,0,1,0-1.218,1.165A1.193,1.193,0,0,0,425.1,103.945Z" transform="translate(-411.691 -102.779)" fill="#fff"/>
            <path id="Trazado_99259" data-name="Trazado 99259" d="M433.544,103.945a1.22,1.22,0,1,0-1.218,1.165A1.193,1.193,0,0,0,433.544,103.945Z" transform="translate(-409.168 -102.779)" fill="#fff"/>
            <path id="Trazado_99260" data-name="Trazado 99260" d="M441.991,103.945a1.22,1.22,0,1,0-1.219,1.165A1.193,1.193,0,0,0,441.991,103.945Z" transform="translate(-406.646 -102.779)" fill="#fff"/>
            <path id="Trazado_99261" data-name="Trazado 99261" d="M450.437,103.945a1.22,1.22,0,1,0-1.218,1.165A1.193,1.193,0,0,0,450.437,103.945Z" transform="translate(-404.123 -102.779)" fill="#fff"/>
            <path id="Trazado_99262" data-name="Trazado 99262" d="M458.883,103.945a1.22,1.22,0,1,0-1.218,1.165A1.193,1.193,0,0,0,458.883,103.945Z" transform="translate(-401.6 -102.779)" fill="#fff"/>
            <path id="Trazado_99263" data-name="Trazado 99263" d="M467.33,103.945a1.22,1.22,0,1,0-1.219,1.165A1.194,1.194,0,0,0,467.33,103.945Z" transform="translate(-399.077 -102.779)" fill="#fff"/>
            <path id="Trazado_99264" data-name="Trazado 99264" d="M475.776,103.945a1.22,1.22,0,1,0-1.218,1.165A1.193,1.193,0,0,0,475.776,103.945Z" transform="translate(-396.555 -102.779)" fill="#fff"/>
            <path id="Trazado_99265" data-name="Trazado 99265" d="M484.222,103.945A1.22,1.22,0,1,0,483,105.11,1.193,1.193,0,0,0,484.222,103.945Z" transform="translate(-394.032 -102.779)" fill="#fff"/>
            <path id="Trazado_99266" data-name="Trazado 99266" d="M492.669,103.945a1.22,1.22,0,1,0-1.219,1.165A1.194,1.194,0,0,0,492.669,103.945Z" transform="translate(-391.509 -102.779)" fill="#fff"/>
            <path id="Trazado_99267" data-name="Trazado 99267" d="M501.115,103.945a1.22,1.22,0,1,0-1.22,1.165A1.193,1.193,0,0,0,501.115,103.945Z" transform="translate(-388.986 -102.779)" fill="#fff"/>
          </g>
          <g id="Grupo_53314" data-name="Grupo 53314" transform="translate(0 27.973)">
            <ellipse id="Elipse_3975" data-name="Elipse 3975" cx="1.219" cy="1.166" rx="1.219" ry="1.166" transform="translate(0 0.001)" fill="#fff"/>
            <path id="Trazado_99268" data-name="Trazado 99268" d="M425.1,111.453a1.22,1.22,0,1,0-1.218,1.165A1.193,1.193,0,0,0,425.1,111.453Z" transform="translate(-411.691 -110.287)" fill="#fff"/>
            <ellipse id="Elipse_3976" data-name="Elipse 3976" cx="1.219" cy="1.166" rx="1.219" ry="1.166" transform="translate(21.938 0.001)" fill="#fff"/>
            <path id="Trazado_99269" data-name="Trazado 99269" d="M441.991,111.453a1.22,1.22,0,1,0-1.219,1.165A1.194,1.194,0,0,0,441.991,111.453Z" transform="translate(-406.645 -110.287)" fill="#fff"/>
            <path id="Trazado_99270" data-name="Trazado 99270" d="M450.437,111.453a1.22,1.22,0,1,0-1.218,1.165A1.194,1.194,0,0,0,450.437,111.453Z" transform="translate(-404.123 -110.287)" fill="#fff"/>
            <ellipse id="Elipse_3977" data-name="Elipse 3977" cx="1.219" cy="1.166" rx="1.219" ry="1.166" transform="translate(54.846 0.001)" fill="#fff"/>
            <path id="Trazado_99271" data-name="Trazado 99271" d="M467.33,111.453a1.22,1.22,0,1,0-1.219,1.165A1.195,1.195,0,0,0,467.33,111.453Z" transform="translate(-399.077 -110.287)" fill="#fff"/>
            <ellipse id="Elipse_3978" data-name="Elipse 3978" cx="1.219" cy="1.166" rx="1.219" ry="1.166" transform="translate(76.784 0.001)" fill="#fff"/>
            <ellipse id="Elipse_3979" data-name="Elipse 3979" cx="1.219" cy="1.166" rx="1.219" ry="1.166" transform="translate(87.753 0.001)" fill="#fff"/>
            <path id="Trazado_99272" data-name="Trazado 99272" d="M492.669,111.453a1.22,1.22,0,1,0-1.219,1.165A1.195,1.195,0,0,0,492.669,111.453Z" transform="translate(-391.509 -110.287)" fill="#fff"/>
            <path id="Trazado_99273" data-name="Trazado 99273" d="M501.115,111.453a1.22,1.22,0,1,0-1.22,1.165A1.194,1.194,0,0,0,501.115,111.453Z" transform="translate(-388.986 -110.287)" fill="#fff"/>
          </g>
          <g id="Grupo_53315" data-name="Grupo 53315" transform="translate(0 18.649)">
            <path id="Trazado_99274" data-name="Trazado 99274" d="M416.652,118.96a1.22,1.22,0,1,0-1.22,1.166A1.194,1.194,0,0,0,416.652,118.96Z" transform="translate(-414.214 -117.794)" fill="#fff"/>
            <path id="Trazado_99275" data-name="Trazado 99275" d="M425.1,118.96a1.22,1.22,0,1,0-1.218,1.166A1.193,1.193,0,0,0,425.1,118.96Z" transform="translate(-411.691 -117.794)" fill="#fff"/>
            <path id="Trazado_99276" data-name="Trazado 99276" d="M433.544,118.96a1.22,1.22,0,1,0-1.218,1.166A1.194,1.194,0,0,0,433.544,118.96Z" transform="translate(-409.168 -117.794)" fill="#fff"/>
            <path id="Trazado_99277" data-name="Trazado 99277" d="M441.991,118.96a1.22,1.22,0,1,0-1.219,1.166A1.194,1.194,0,0,0,441.991,118.96Z" transform="translate(-406.646 -117.794)" fill="#fff"/>
            <path id="Trazado_99278" data-name="Trazado 99278" d="M450.437,118.96a1.22,1.22,0,1,0-1.218,1.166A1.194,1.194,0,0,0,450.437,118.96Z" transform="translate(-404.123 -117.794)" fill="#fff"/>
            <path id="Trazado_99279" data-name="Trazado 99279" d="M458.883,118.96a1.22,1.22,0,1,0-1.218,1.166A1.194,1.194,0,0,0,458.883,118.96Z" transform="translate(-401.6 -117.794)" fill="#fff"/>
            <path id="Trazado_99280" data-name="Trazado 99280" d="M467.33,118.96a1.22,1.22,0,1,0-1.219,1.166A1.195,1.195,0,0,0,467.33,118.96Z" transform="translate(-399.077 -117.794)" fill="#fff"/>
            <path id="Trazado_99281" data-name="Trazado 99281" d="M475.776,118.96a1.22,1.22,0,1,0-1.218,1.166A1.194,1.194,0,0,0,475.776,118.96Z" transform="translate(-396.555 -117.794)" fill="#fff"/>
            <path id="Trazado_99282" data-name="Trazado 99282" d="M484.222,118.96A1.22,1.22,0,1,0,483,120.126,1.194,1.194,0,0,0,484.222,118.96Z" transform="translate(-394.032 -117.794)" fill="#fff"/>
            <path id="Trazado_99283" data-name="Trazado 99283" d="M492.669,118.96a1.22,1.22,0,1,0-1.219,1.166A1.195,1.195,0,0,0,492.669,118.96Z" transform="translate(-391.509 -117.794)" fill="#fff"/>
            <path id="Trazado_99284" data-name="Trazado 99284" d="M501.115,118.96a1.22,1.22,0,1,0-1.22,1.166A1.194,1.194,0,0,0,501.115,118.96Z" transform="translate(-388.986 -117.794)" fill="#fff"/>
          </g>
          <g id="Grupo_53316" data-name="Grupo 53316" transform="translate(0 9.325)">
            <ellipse id="Elipse_3980" data-name="Elipse 3980" cx="1.219" cy="1.166" rx="1.219" ry="1.166" fill="#fff"/>
            <path id="Trazado_99285" data-name="Trazado 99285" d="M425.1,126.467a1.22,1.22,0,1,0-1.218,1.166A1.192,1.192,0,0,0,425.1,126.467Z" transform="translate(-411.691 -125.302)" fill="#fff"/>
            <ellipse id="Elipse_3981" data-name="Elipse 3981" cx="1.219" cy="1.166" rx="1.219" ry="1.166" transform="translate(21.938)" fill="#fff"/>
            <path id="Trazado_99286" data-name="Trazado 99286" d="M441.991,126.467a1.22,1.22,0,1,0-1.219,1.166A1.193,1.193,0,0,0,441.991,126.467Z" transform="translate(-406.645 -125.302)" fill="#fff"/>
            <path id="Trazado_99287" data-name="Trazado 99287" d="M450.437,126.467a1.22,1.22,0,1,0-1.218,1.166A1.193,1.193,0,0,0,450.437,126.467Z" transform="translate(-404.123 -125.302)" fill="#fff"/>
            <ellipse id="Elipse_3982" data-name="Elipse 3982" cx="1.219" cy="1.166" rx="1.219" ry="1.166" transform="translate(54.846)" fill="#fff"/>
            <path id="Trazado_99288" data-name="Trazado 99288" d="M467.33,126.467a1.22,1.22,0,1,0-1.219,1.166A1.194,1.194,0,0,0,467.33,126.467Z" transform="translate(-399.077 -125.302)" fill="#fff"/>
            <ellipse id="Elipse_3983" data-name="Elipse 3983" cx="1.219" cy="1.166" rx="1.219" ry="1.166" transform="translate(76.784)" fill="#fff"/>
            <ellipse id="Elipse_3984" data-name="Elipse 3984" cx="1.219" cy="1.166" rx="1.219" ry="1.166" transform="translate(87.753)" fill="#fff"/>
            <path id="Trazado_99289" data-name="Trazado 99289" d="M492.669,126.467a1.22,1.22,0,1,0-1.219,1.166A1.194,1.194,0,0,0,492.669,126.467Z" transform="translate(-391.509 -125.302)" fill="#fff"/>
            <path id="Trazado_99290" data-name="Trazado 99290" d="M501.115,126.467a1.22,1.22,0,1,0-1.22,1.166A1.193,1.193,0,0,0,501.115,126.467Z" transform="translate(-388.986 -125.302)" fill="#fff"/>
          </g>
          <g id="Grupo_53317" data-name="Grupo 53317" transform="translate(0)">
            <ellipse id="Elipse_3985" data-name="Elipse 3985" cx="1.219" cy="1.166" rx="1.219" ry="1.166" fill="#fff"/>
            <path id="Trazado_99291" data-name="Trazado 99291" d="M425.1,133.975a1.22,1.22,0,1,0-1.218,1.166A1.192,1.192,0,0,0,425.1,133.975Z" transform="translate(-411.691 -132.81)" fill="#fff"/>
            <ellipse id="Elipse_3986" data-name="Elipse 3986" cx="1.219" cy="1.166" rx="1.219" ry="1.166" transform="translate(21.938)" fill="#fff"/>
            <path id="Trazado_99292" data-name="Trazado 99292" d="M441.991,133.975a1.22,1.22,0,1,0-1.219,1.166A1.193,1.193,0,0,0,441.991,133.975Z" transform="translate(-406.645 -132.81)" fill="#fff"/>
            <path id="Trazado_99293" data-name="Trazado 99293" d="M450.437,133.975a1.22,1.22,0,1,0-1.218,1.166A1.193,1.193,0,0,0,450.437,133.975Z" transform="translate(-404.123 -132.81)" fill="#fff"/>
            <ellipse id="Elipse_3987" data-name="Elipse 3987" cx="1.219" cy="1.166" rx="1.219" ry="1.166" transform="translate(54.846)" fill="#fff"/>
            <path id="Trazado_99294" data-name="Trazado 99294" d="M467.33,133.975a1.22,1.22,0,1,0-1.219,1.166A1.194,1.194,0,0,0,467.33,133.975Z" transform="translate(-399.077 -132.81)" fill="#fff"/>
            <ellipse id="Elipse_3988" data-name="Elipse 3988" cx="1.219" cy="1.166" rx="1.219" ry="1.166" transform="translate(76.784)" fill="#fff"/>
            <ellipse id="Elipse_3989" data-name="Elipse 3989" cx="1.219" cy="1.166" rx="1.219" ry="1.166" transform="translate(87.753)" fill="#fff"/>
            <path id="Trazado_99295" data-name="Trazado 99295" d="M492.669,133.975a1.22,1.22,0,1,0-1.219,1.166A1.194,1.194,0,0,0,492.669,133.975Z" transform="translate(-391.509 -132.81)" fill="#fff"/>
            <path id="Trazado_99296" data-name="Trazado 99296" d="M501.115,133.975a1.22,1.22,0,1,0-1.22,1.166A1.193,1.193,0,0,0,501.115,133.975Z" transform="translate(-388.986 -132.81)" fill="#fff"/>
          </g>
        </g>
      </g>
    </g>
    <g id="Grupo_158748" data-name="Grupo 158748" transform="translate(219 8287.014)">
      <g id="Grupo_158749" data-name="Grupo 158749" transform="translate(0 0)">
        <path id="Trazado_154001" data-name="Trazado 154001" d="M295.494,27.609s26.61,36.91-1.519,53.883S267,73.9,267,73.9l17.678-46.289Z" transform="translate(-10.721 -1.108)"/>
        <path id="Trazado_154002" data-name="Trazado 154002" d="M265.023,66.89s-14.542,2.08-23.957,19.2-17.319,64.31-15.878,65.8,32.847,5.962,58.883,5.962,34.2-.993,36.706-2.484-8.225-70.6-22.642-77.012S280.494,61.764,265.023,66.89" transform="translate(-9.035 -2.629)" fill="#6876aa"/>
        <path id="Trazado_154003" data-name="Trazado 154003" d="M261.559,67.551s-22.845,35.816-27.359,58.991a318.477,318.477,0,0,0-5.389,39.581l83.011.514,1.486-63.052-22.7-35.429-10.269-5.2Z" transform="translate(-9.187 -2.527)" fill="#fd9827"/>
        <path id="Trazado_154004" data-name="Trazado 154004" d="M261.577,67.743s-11.652,43.12-14.113,58.184a265.449,265.449,0,0,0-2.97,29.46l-15.232-2.275,5.817-35.357,20.788-45.239Z" transform="translate(-9.206 -2.72)" fill="#31313c"/>
        <path id="Trazado_154005" data-name="Trazado 154005" d="M260.32,67.734S245.4,64.78,228.172,80.5s-36.331,53.53-28.358,68.529c8.554,16.091,37.164,17.065,37.164,17.065l1.473-32.7,8.57-47.463Z" transform="translate(-7.948 -2.71)" fill="#31313c"/>
        <path id="Trazado_154006" data-name="Trazado 154006" d="M266.447,71.794a23.722,23.722,0,0,1-3.643-.249.6.6,0,0,1,.2-1.188c.1.016,10.008,1.585,17.484-4.066a.6.6,0,1,1,.727.962c-5.064,3.828-11.028,4.541-14.767,4.541" transform="translate(-10.532 -2.656)" fill="#465884"/>
        <path id="Trazado_154007" data-name="Trazado 154007" d="M236.14,137.813a.666.666,0,0,1-.421-.15c-.1-.078-9.691-7.842-18.23-12.21a.669.669,0,0,1,.61-1.192c8.667,4.434,18.368,12.285,18.465,12.364a.669.669,0,0,1-.422,1.188" transform="translate(-8.718 -4.986)" fill="#465884"/>
        <path id="Trazado_154008" data-name="Trazado 154008" d="M282.443,54.076l-.18,15.748s-2.892,4.495-12.113,5.139c-6.87.48-9-3.07-9-3.07l1.819-13.762,16.678-3.47Z" transform="translate(-10.486 -2.171)" fill="#f48462"/>
        <path id="Trazado_154009" data-name="Trazado 154009" d="M279.678,54.686A5.2,5.2,0,0,1,279.2,56.2c-3.614,7.827-13.267,9.412-17.235,9.722L263,58.156Z" transform="translate(-10.519 -2.195)"/>
        <path id="Trazado_154010" data-name="Trazado 154010" d="M259.558,20.621s-8.49,19.651-5.357,30.658,13.166,9.232,19.165,7.077a19.881,19.881,0,0,0,8.772-5.85,8.471,8.471,0,0,0,9.352-3.354c3.732-5.234,1.4-11.218-1.814-12.578s-7.011.969-7.011.969l2.963-5.713s-12.683-28.919-26.07-11.21" transform="translate(-10.179 -0.597)" fill="#f48462"/>
        <path id="Trazado_154011" data-name="Trazado 154011" d="M284.59,47a.669.669,0,0,1-.43-1.183l6.272-5.251a.669.669,0,0,1,.859,1.026l-6.272,5.251a.662.662,0,0,1-.429.156" transform="translate(-11.4 -1.622)"/>
        <path id="Trazado_154012" data-name="Trazado 154012" d="M291.031,47.051a.663.663,0,0,1-.287-.065l-3.978-1.894a.669.669,0,1,1,.576-1.208l3.977,1.893a.67.67,0,0,1-.288,1.275" transform="translate(-11.499 -1.759)"/>
        <path id="Trazado_154013" data-name="Trazado 154013" d="M282.822,37.374a17.7,17.7,0,0,1-11.271-6.3,46.471,46.471,0,0,1-6.444-11.427,8.57,8.57,0,0,0-4.763,2.829c-1.362,1.713-2.959,4.2-2.959,4.2s-.2-7.942,3.778-11.861,7.414-2.584,7.414-2.584,8.747-5.032,17.708,2.829,4.846,22.2,4.846,22.2-4.528-1.777-8.309.114" transform="translate(-10.335 -0.427)"/>
        <path id="Trazado_154014" data-name="Trazado 154014" d="M260.118,45.657a.668.668,0,0,1-.647-.5,7.4,7.4,0,0,1,2.45-7.476.67.67,0,0,1,.83,1.051,6.061,6.061,0,0,0-1.986,6.086.669.669,0,0,1-.478.817.645.645,0,0,1-.17.022" transform="translate(-10.409 -1.507)"/>
        <path id="Trazado_154015" data-name="Trazado 154015" d="M256.932,38.371a.65.65,0,0,1-.129-.012.67.67,0,0,1-.531-.784l.928-4.823-.78-.91a.669.669,0,1,1,1.016-.872l.991,1.156a.668.668,0,0,1,.149.562l-.989,5.14a.669.669,0,0,1-.656.543" transform="translate(-10.29 -1.234)"/>
        <path id="Trazado_154016" data-name="Trazado 154016" d="M268.672,39.9a.668.668,0,0,1-.66-.783l.855-4.961-.974-1.335a.669.669,0,1,1,1.081-.789l1.142,1.564a.672.672,0,0,1,.12.509l-.9,5.241a.671.671,0,0,1-.659.556" transform="translate(-10.752 -1.275)"/>
        <path id="Trazado_154017" data-name="Trazado 154017" d="M257.07,28.826a.669.669,0,0,1-.111-1.329l3.381-.576a.669.669,0,1,1,.225,1.32l-3.381.576a.644.644,0,0,1-.113.01" transform="translate(-10.295 -1.08)"/>
        <path id="Trazado_154018" data-name="Trazado 154018" d="M272.261,30.206a.69.69,0,0,1-.176-.023l-6.35-1.721a.67.67,0,1,1,.35-1.293l6.35,1.721a.67.67,0,0,1-.175,1.316" transform="translate(-10.65 -1.09)"/>
        <path id="Trazado_154019" data-name="Trazado 154019" d="M263.111,53.364c-2.455,0-3.772-3-3.828-3.128a.667.667,0,0,1,.029-.589.674.674,0,0,1,.486-.337l6.794-1.031a.664.664,0,0,1,.615.233.671.671,0,0,1,.118.648c-.141.408-1.455,4-3.979,4.195-.08.006-.158.01-.235.01m-2.161-2.875a2.8,2.8,0,0,0,2.293,1.53c.99-.076,1.829-1.243,2.347-2.234Z" transform="translate(-10.409 -1.938)"/>
        <path id="Trazado_154020" data-name="Trazado 154020" d="M285.2,17.755s-.665-19.823,14.526-15.149,5,21.79-3.973,25.575-12.716-4.371-12.716-4.371Z" transform="translate(-11.365 -0.076)"/>
        <path id="Trazado_154021" data-name="Trazado 154021" d="M269.927,76.37a13.71,13.71,0,0,1-9.286-3.34.67.67,0,0,1,.957-.938c.3.3,7.493,7.338,20.157-1.282a.669.669,0,0,1,.754,1.107c-4.961,3.377-9.2,4.454-12.582,4.454" transform="translate(-10.458 -2.838)" fill="#465884"/>
        <path id="Trazado_154022" data-name="Trazado 154022" d="M145.217,111.32l21.938,57.6-29.377-1.2-8.79-44.639Z" transform="translate(-5.179 -4.469)" fill="#f48462"/>
        <path id="Trazado_154023" data-name="Trazado 154023" d="M19.79,127.863S25.932,88.02,49.672,72.481s64.223-5.743,75.979,1.566c15.406,9.58,26.731,48.249,26.731,48.249l-18.41,17.367,2.989,26.485-83.491.134L55,127.661Z" transform="translate(-0.795 -2.578)" fill="#fdb768"/>
        <rect id="Rect치ngulo_35596" data-name="Rect치ngulo 35596" width="404.348" height="21.741" transform="translate(0 156.122)" fill="#785549"/>
        <path id="Trazado_154024" data-name="Trazado 154024" d="M263.2,109.355s-5.2-27.253-7.886-30.2-20.333-10.744-22.582-8.6.038,4.838.038,4.838-3.356-1.917-4.619.09,1.185,5.127,1.185,5.127-2.676-1.685-2.322,2.05,7.682,10.57,7.682,10.57a39.762,39.762,0,0,0,5.115,15.838c4.693,8.2,18.977,8.571,18.977,8.571Z" transform="translate(-9.114 -2.818)" fill="#f48462"/>
        <path id="Trazado_154025" data-name="Trazado 154025" d="M247.023,83.1a.651.651,0,0,1-.309-.076l-13.991-7.3a.67.67,0,1,1,.62-1.187l13.99,7.3a.669.669,0,0,1-.31,1.263" transform="translate(-9.33 -2.99)"/>
        <path id="Trazado_154026" data-name="Trazado 154026" d="M243.1,90.256a.669.669,0,0,1-.355-.1l-13.688-8.57a.669.669,0,1,1,.71-1.135l13.689,8.57a.669.669,0,0,1-.356,1.236" transform="translate(-9.184 -3.226)"/>
        <path id="Trazado_154027" data-name="Trazado 154027" d="M110.073,20.771s5.7-15.439-2.659-20.27C103.1-1.993,94.483,5.625,94.483,5.625S80.076,7.858,76.4,14.821s.124,16.974.124,16.974,5.253-2.176,8.543-1.429,25.01-9.595,25.01-9.595" transform="translate(-3.003 0)"/>
        <path id="Trazado_154028" data-name="Trazado 154028" d="M239.32,117.572s28.54,53.4,66.513,50.518,22.828-65.695,10.9-82.646-35.169-22.249-35.169-22.249l-.805,43.58L268.077,95.966Z" transform="translate(-9.609 -2.537)" fill="#31313c"/>
        <path id="Trazado_154029" data-name="Trazado 154029" d="M306.444,131.3a.668.668,0,0,1-.453-.177l-23.977-22.062a.669.669,0,0,1,.906-.986L306.9,130.14a.67.67,0,0,1-.453,1.162" transform="translate(-11.315 -4.332)"/>
        <path id="Trazado_154030" data-name="Trazado 154030" d="M308.568,122.259c-5.912,0-14.12-2.388-14.579-2.523a.668.668,0,0,1,.033-1.292c1.708-.411,16.785-3.929,19.99-1.089a2.027,2.027,0,0,1,.692,1.817,2.825,2.825,0,0,1-1.326,2.1,9.107,9.107,0,0,1-4.809.991m-11.584-3.1c4.975,1.232,13.044,2.729,15.654,1a1.5,1.5,0,0,0,.735-1.136.691.691,0,0,0-.249-.66c-1.755-1.553-9.956-.483-16.141.8" transform="translate(-11.785 -4.668)"/>
        <path id="Trazado_154031" data-name="Trazado 154031" d="M84.974,50.345l.5,14.675s3.1,4.184,12.728,4.769c7.17.435,9.633-1.04,9.633-1.04l-1.249-7.421-1.228-7.236L87.9,50.885Z" transform="translate(-3.412 -2.021)" fill="#f48462"/>
        <path id="Trazado_154032" data-name="Trazado 154032" d="M88.021,50.948a5.394,5.394,0,0,0,.513,1.574c3.858,8.123,13.945,9.669,18.086,9.947l-1.164-8.09Z" transform="translate(-3.534 -2.045)"/>
        <path id="Trazado_154033" data-name="Trazado 154033" d="M107.669,15.188s9.077,20.4,5.934,31.919-13.63,9.778-19.911,7.6a20.745,20.745,0,0,1-9.215-6,8.837,8.837,0,0,1-9.792-3.393c-3.952-5.417-1.583-11.684,1.75-13.139s7.324.932,7.324.932L80.6,27.174s12.9-30.307,27.067-11.987" transform="translate(-2.916 -0.373)" fill="#f48462"/>
        <path id="Trazado_154034" data-name="Trazado 154034" d="M83.055,43.81a.665.665,0,0,1-.487-.21L77.01,37.71a.669.669,0,1,1,.973-.919l5.558,5.89a.669.669,0,0,1-.487,1.129" transform="translate(-3.085 -1.468)"/>
        <path id="Trazado_154035" data-name="Trazado 154035" d="M77.158,42.388a.67.67,0,0,1-.1-1.331l3.845-.583a.669.669,0,1,1,.2,1.324l-3.846.583a.7.7,0,0,1-.1.008" transform="translate(-3.071 -1.624)"/>
        <path id="Trazado_154036" data-name="Trazado 154036" d="M98.811,35.841a.669.669,0,0,1-.663-.585l-.673-5.275a.67.67,0,1,1,1.328-.17l.673,5.275a.67.67,0,0,1-.58.749.65.65,0,0,1-.085.006" transform="translate(-3.914 -1.173)"/>
        <path id="Trazado_154037" data-name="Trazado 154037" d="M110.615,34.808a.669.669,0,0,1-.661-.572l-.762-5.179a.669.669,0,0,1,1.325-.195l.762,5.179a.669.669,0,0,1-.564.759.58.58,0,0,1-.1.008" transform="translate(-4.384 -1.136)"/>
        <path id="Trazado_154038" data-name="Trazado 154038" d="M94.944,26.852a.661.661,0,0,1-.305-.075.669.669,0,0,1-.29-.9c1.393-2.708,4.822-2,4.968-1.969a.669.669,0,0,1-.281,1.308c-.1-.021-2.574-.517-3.5,1.273a.67.67,0,0,1-.6.364" transform="translate(-3.785 -0.955)"/>
        <path id="Trazado_154039" data-name="Trazado 154039" d="M112.118,25.684a.669.669,0,0,1-.483-.2,3.8,3.8,0,0,0-3.794-.989.67.67,0,1,1-.456-1.259,5.145,5.145,0,0,1,5.217,1.322.669.669,0,0,1-.484,1.131" transform="translate(-4.294 -0.921)"/>
        <path id="Trazado_154040" data-name="Trazado 154040" d="M105.042,46.887a8.527,8.527,0,0,1-6.2-3.063.669.669,0,0,1,1.015-.873,7.157,7.157,0,0,0,5.205,2.6.67.67,0,0,1,.038,1.339h-.061" transform="translate(-3.962 -1.715)"/>
        <path id="Trazado_154041" data-name="Trazado 154041" d="M109.049,18s-.071-2.121-4.524-2.211a9.627,9.627,0,0,0-7.1,3.01,12.181,12.181,0,0,1-5.008,10.642,16.125,16.125,0,0,1-10.029,3.51l-5.833-1.04L75.8,24.355l9.93-14.7,21.257-6.771Z" transform="translate(-3.043 -0.115)"/>
        <path id="Trazado_154042" data-name="Trazado 154042" d="M112.264,38.025c-3.228,0-6.034-2.811-6.376-6.511-.36-3.894,2.145-7.322,5.584-7.639s6.53,2.592,6.891,6.486-2.146,7.323-5.584,7.64c-.173.015-.345.024-.514.024m-.276-12.835c-.13,0-.26.006-.392.018-2.7.25-4.667,3.024-4.375,6.182s2.725,5.52,5.434,5.277,4.667-3.024,4.375-6.183c-.278-3.006-2.5-5.295-5.042-5.295" transform="translate(-4.25 -0.957)" fill="#68b6d8"/>
        <path id="Trazado_154043" data-name="Trazado 154043" d="M95.626,40.676a7.1,7.1,0,1,1,.666-.031c-.223.02-.445.031-.666.031m.017-12.849c-.177,0-.355.008-.534.024a5.759,5.759,0,1,0,.534-.024" transform="translate(-3.555 -1.063)" fill="#68b6d8"/>
        <path id="Trazado_154044" data-name="Trazado 154044" d="M102.226,32.305a.67.67,0,0,1-.28-1.279c.273-.123,2.7-1.19,4.277-.316a.67.67,0,1,1-.651,1.171c-.833-.462-2.538.122-3.069.363a.664.664,0,0,1-.277.06" transform="translate(-4.078 -1.219)" fill="#68b6d8"/>
        <path id="Trazado_154045" data-name="Trazado 154045" d="M88.715,35.066a.674.674,0,0,1-.359-.1c-3.967-2.524-12.073-1.232-12.155-1.219a.67.67,0,0,1-.217-1.322c.353-.056,8.691-1.386,13.09,1.411a.67.67,0,0,1-.36,1.234" transform="translate(-3.029 -1.287)" fill="#68b6d8"/>
        <path id="Trazado_154046" data-name="Trazado 154046" d="M106.813,40.186a.669.669,0,0,1-.639-.868,6.127,6.127,0,0,0-1.715-6.167.67.67,0,1,1,.875-1.014,7.406,7.406,0,0,1,2.119,7.576.671.671,0,0,1-.64.472" transform="translate(-4.185 -1.283)"/>
        <path id="Trazado_154047" data-name="Trazado 154047" d="M86.42,150.295l30.172,18.416a3.278,3.278,0,0,0,3.813-.629l40.767-41.095a1.864,1.864,0,0,0-.16-3.053l-30.172-18.415a3.277,3.277,0,0,0-3.813.628L86.259,147.241a1.864,1.864,0,0,0,.16,3.053" transform="translate(-3.435 -4.222)"/>
        <path id="Trazado_154048" data-name="Trazado 154048" d="M90.1,152.526l30.172,18.416a3.278,3.278,0,0,0,3.813-.629l40.767-41.095a1.864,1.864,0,0,0-.16-3.053L134.515,107.75a3.275,3.275,0,0,0-3.812.629L89.936,149.472a1.864,1.864,0,0,0,.16,3.053" transform="translate(-3.583 -4.311)" fill="#31313c"/>
        <path id="Trazado_154049" data-name="Trazado 154049" d="M81.092,118.539c1.7-2.057,9.263-5.326,11.926-5.162,4.347.267,10.913.777,12.429,1.479,2.314,1.072,7.571,5.3,7.571,5.3l-2.165,3.067s19.991,10.437,18.374,14.553c-1.1,2.8-9.971-1.211-9.971-1.211s8.87,4.915,7.329,7.989-12.972-1.764-12.972-1.764,8.816,5.654,4.14,7.045-36.532-7.366-38.2-16.745c-1.1-6.169-1.64-10.706,1.541-14.553" transform="translate(-3.16 -4.552)" fill="#f48462"/>
        <path id="Trazado_154050" data-name="Trazado 154050" d="M23.111,130.153S16.3,156.018,40,159.528s45.026-20.152,45.026-20.152l2.952-23.847L43.664,129.787Z" transform="translate(-0.892 -4.638)" fill="#f48462"/>
        <path id="Trazado_154051" data-name="Trazado 154051" d="M120.374,137.9a.663.663,0,0,1-.3-.073L106.9,131.119a.669.669,0,0,1,.608-1.193l13.168,6.707a.669.669,0,0,1-.3,1.265" transform="translate(-4.278 -5.214)"/>
        <path id="Trazado_154052" data-name="Trazado 154052" d="M114.53,144.4a.654.654,0,0,1-.3-.072l-12.306-6.225a.669.669,0,0,1,.6-1.194l12.305,6.225a.669.669,0,0,1-.3,1.266" transform="translate(-4.078 -5.494)"/>
        <path id="Trazado_154053" data-name="Trazado 154053" d="M98.942,71.393c-4.5,0-9.827-1.115-13.956-5.318a.67.67,0,1,1,.955-.939C94.1,73.445,107.463,68.752,107.6,68.7a.67.67,0,0,1,.454,1.26,30.133,30.133,0,0,1-9.109,1.429" transform="translate(-3.405 -2.607)" fill="#31313c"/>
        <path id="Trazado_154054" data-name="Trazado 154054" d="M374,107.773s8.219-28.9,11.276-28.248-20.775,64.819-22.611,64.414S374,107.773,374,107.773" transform="translate(-14.555 -3.192)" fill="#465884"/>
        <path id="Trazado_154055" data-name="Trazado 154055" d="M367.6,142.893c-1.743.694-10.784-36.323-10.784-36.323s-4.5-13.852-6.264-22.65c-.775-3.842-1.017-6.732-.146-7.087.582-.227,1.68,2.228,3.068,6.328,5.537,16.45,15.515,59.183,14.126,59.732" transform="translate(-14.048 -3.084)" fill="#a37b90"/>
        <path id="Trazado_154056" data-name="Trazado 154056" d="M373.575,148.556H356.593a2.249,2.249,0,0,1-2.21-1.924l-4.355-28.27a2.263,2.263,0,0,1,2.209-2.629H377.93a2.263,2.263,0,0,1,2.21,2.629l-4.355,28.27a2.249,2.249,0,0,1-2.21,1.924" transform="translate(-14.054 -4.647)" fill="#31313c"/>
        <path id="Trazado_154057" data-name="Trazado 154057" d="M353.476,83.16l-2.922.758c-.776-3.841-1.017-6.731-.146-7.087.582-.227,1.68,2.228,3.068,6.328" transform="translate(-14.048 -3.084)" fill="#f7b369"/>
        <path id="Trazado_154058" data-name="Trazado 154058" d="M309.245,175.525H404.8a6.2,6.2,0,0,0,6.2-6.2v-.309a6.2,6.2,0,0,0-6.2-6.2h-95.56Z" transform="translate(-12.417 -6.537)" fill="#b58868"/>
        <path id="Trazado_154059" data-name="Trazado 154059" d="M309.344,175.525H370.6a5.849,5.849,0,0,0,5.849-5.849v-1.014a5.85,5.85,0,0,0-5.849-5.849H309.344a2.082,2.082,0,0,0-2.082,2.082v8.548a2.082,2.082,0,0,0,2.082,2.082" transform="translate(-12.337 -6.537)" fill="#785549"/>
        <path id="Trazado_154060" data-name="Trazado 154060" d="M307.262,173.162h62.386a3.98,3.98,0,0,0,3.98-3.98v-.11a3.98,3.98,0,0,0-3.98-3.98H307.262Z" transform="translate(-12.337 -6.628)" fill="#ece8ef"/>
        <path id="Trazado_154061" data-name="Trazado 154061" d="M387.351,162.3H329.075a6.184,6.184,0,0,1,0-12.368h58.275a1.936,1.936,0,0,1,1.936,1.936v8.5a1.936,1.936,0,0,1-1.936,1.936" transform="translate(-12.965 -6.02)" fill="#ece8ef"/>
        <path id="Trazado_154062" data-name="Trazado 154062" d="M402.155,162.3H343.88a6.184,6.184,0,0,1,0-12.368h58.275a1.936,1.936,0,0,1,1.936,1.936v8.5a1.936,1.936,0,0,1-1.936,1.936" transform="translate(-13.56 -6.02)" fill="#c8bcce"/>
        <path id="Trazado_154063" data-name="Trazado 154063" d="M404.2,160H344.439a3.926,3.926,0,1,1,0-7.853H404.2Z" transform="translate(-13.673 -6.109)" fill="#fff"/>
        <path id="Trazado_154064" data-name="Trazado 154064" d="M185.81,111.769s-11.753-6.682-22.464-7.575a74.959,74.959,0,0,0-20.084,1.19l2.528,9.48Z" transform="translate(-5.752 -4.174)" fill="#eeedef"/>
        <path id="Trazado_154065" data-name="Trazado 154065" d="M185.885,111.636s5.654-4.594,17.257-6.825a119.776,119.776,0,0,1,22.614-1.961l2.083,10.858Z" transform="translate(-7.464 -4.129)" fill="#eeedef"/>
        <path id="Trazado_154066" data-name="Trazado 154066" d="M237.5,172.484H151.474l-10.123-61.873h86.041Z" transform="translate(-5.676 -4.441)" fill="#c8bcce"/>
        <path id="Trazado_154067" data-name="Trazado 154067" d="M199.655,172.484H192.17L182.5,110.611h7.19Z" transform="translate(-7.328 -4.441)" fill="#ddd5e2"/>
        <path id="Trazado_154068" data-name="Trazado 154068" d="M237.9,175.715H151.865a.669.669,0,1,1,0-1.339H237.9a.669.669,0,0,1,0,1.339" transform="translate(-6.071 -7.001)" fill="#b1a5b7"/>
        <path id="Trazado_154069" data-name="Trazado 154069" d="M215.577,175.312a.669.669,0,0,1-.658-.547l-1.461-7.887a1.473,1.473,0,0,0-1.448-1.206H176.047a1.474,1.474,0,0,0-1.462,1.655l.894,7.233a.671.671,0,0,1-.583.747.68.68,0,0,1-.747-.582l-.894-7.233a2.815,2.815,0,0,1,2.791-3.159H212.01a2.813,2.813,0,0,1,2.765,2.3l1.461,7.887a.671.671,0,0,1-.659.791" transform="translate(-6.956 -6.598)" fill="#b1a5b7"/>
      </g>
    </g>
  </g>
</svg>
